<svg xmlns="http://www.w3.org/2000/svg" viewBox="0 0 99.08 12.21"><title>email</title><g id="Layer_2" data-name="Layer 2"><g id="email_address_Image" data-name="email address Image"><path d="M64.39,7.18A2.72,2.72,0,0,0,64.77,5c-.06-.4-.23-.79-.31-1.18a2.2,2.2,0,0,0-1-1.28.87.87,0,0,0-.81-.14,2.54,2.54,0,0,0-1.34.92,3.84,3.84,0,0,0-.61,4.11A2.06,2.06,0,0,0,62,8.61a3.84,3.84,0,0,0,.76.08c.05,0,.1,0,.14,0s.37.08.41.18-.13.35-.32.38a3.48,3.48,0,0,1-.85.06,2.45,2.45,0,0,1-2-1.54A4.56,4.56,0,0,1,62,2a1.85,1.85,0,0,1,1.53-.22,2.24,2.24,0,0,1,1.38,1.39,5.87,5.87,0,0,1,.31,3.24,4,4,0,0,1-.54,1.23.8.8,0,0,1-1.36-.14A8.48,8.48,0,0,1,63,6.56c-.06.16-.13.31-.19.47-.22.57-.27.62-.73.61a.92.92,0,0,1-1-.66A3.06,3.06,0,0,1,61,5.78a4.28,4.28,0,0,1,.39-1.44,1.38,1.38,0,0,1,1.94-.57,1.26,1.26,0,0,1,.85,1.44A3.12,3.12,0,0,0,64.39,7.18Zm-2-.35A4.81,4.81,0,0,0,63,4.88a.87.87,0,0,0-.09-.41s-.11-.13-.15-.12a.27.27,0,0,0-.2.14A3.42,3.42,0,0,0,62.39,6.83Z"/><path d="M95.89,3.13l.12,0c1-.6,1-.59,1.57.42a5.84,5.84,0,0,1,.53-.33.64.64,0,0,1,.94.46,2.07,2.07,0,0,1,0,.5C99,5.52,99,6.88,99,8.25a.66.66,0,0,1,0,.28.33.33,0,0,1-.2.17.25.25,0,0,1-.2-.14.69.69,0,0,1-.09-.34q0-1,0-2c0-.6.07-1.2.07-1.8a3,3,0,0,0-.17-.71,1.26,1.26,0,0,0-.81,1.23c0,.84,0,1.68,0,2.52a3.68,3.68,0,0,1-.06.57c0,.16-.13.36-.33.28a.57.57,0,0,1-.28-.36,2.07,2.07,0,0,1,0-.5c0-1.15,0-2.3,0-3.45,0-.23.07-.57-.21-.62s-.37.25-.5.43a1,1,0,0,0-.14.54c0,1.22,0,2.45,0,3.67a1.39,1.39,0,0,1-.13.61.5.5,0,0,1-.64.15c-.25-.09-.51-.16-.53-.49s0-.58,0-.87c0-1.09,0-2.19,0-3.29a8.21,8.21,0,0,1,.05-1c0-.2,0-.45.23-.55a.94.94,0,0,1,.85.22A2.41,2.41,0,0,1,95.89,3.13Z"/><path d="M71.75,3.26l.14-.07c.84-.7,1.07-.65,1.5.31A5.2,5.2,0,0,1,74,3.18a.62.62,0,0,1,.89.53,3.49,3.49,0,0,1,0,.79c0,.5-.09,1-.11,1.48s0,1,0,1.49a7.11,7.11,0,0,1-.06.92c0,.11-.12.29-.22.31s-.19-.16-.2-.29c0-.33,0-.66,0-1,0-1,0-2.1.07-3.16a.49.49,0,0,0,0-.21c-.06-.1-.12-.24-.21-.26s-.22.06-.28.13a1.59,1.59,0,0,0-.4,1c0,.93-.07,1.85-.12,2.78a1.16,1.16,0,0,1-.07.42.43.43,0,0,1-.29.15c-.06,0-.17-.11-.18-.18a3.44,3.44,0,0,1-.1-.63c0-.77,0-1.53,0-2.29,0-.45,0-.9,0-1.36a1.06,1.06,0,0,0,0-.35c-.06-.15-.17-.23-.32-.09a1.3,1.3,0,0,0-.51,1.06c0,1.07,0,2.15,0,3.23v.43c0,.51-.18.73-.51.71-.49,0-.79-.29-.79-.73,0-1.65,0-3.3,0-4.95,0-.24,0-.5.28-.6a.85.85,0,0,1,.87.33C71.65,3,71.68,3.11,71.75,3.26Z"/><path d="M69.32,6.46c-.06,1.26-.1,2.52-.19,3.78a8.76,8.76,0,0,1-.24,1.26.71.71,0,0,1-.14.33c-.44.43-1,.26-1.5.2a.79.79,0,0,1-.68-.74.56.56,0,0,1,0-.34c0-.06.23-.11.27-.07a.79.79,0,0,1,.23.34c.07.18.16.34.35.27a.58.58,0,0,0,.34-.31,3.67,3.67,0,0,0,.18-.91c0-.46,0-.91,0-1.37s0-.4-.39-.42c-1,0-1.4-.4-1.52-1.4a5.68,5.68,0,0,1,.31-2.32,1.7,1.7,0,0,1,1.2-1,2.91,2.91,0,0,0,.51-.22.7.7,0,0,1,1.15.59c0,.69,0,1.38,0,2.08v.29Zm-2.65-.13h0a10.81,10.81,0,0,0,0,1.14A.61.61,0,0,0,67.4,8c.45,0,.62-.23.64-.68,0-.81.08-1.62.1-2.43a2.22,2.22,0,0,0-.08-.63.35.35,0,0,0-.28-.14,1.18,1.18,0,0,0-1,1C66.69,5.56,66.69,6,66.67,6.33Z"/><path d="M11.61,7.39c-.07,1.13-.13,2.25-.2,3.37a1.5,1.5,0,0,1,0,.22c-.27,1.35-.53,1.29-1.74,1.18a.91.91,0,0,1-.78-1c0-.09.11-.2.2-.25s.18.06.23.12.09.28.17.39a.35.35,0,0,0,.63-.08,2.84,2.84,0,0,0,.1-.49c.06-.62.14-1.24.17-1.86,0-.37,0-.41-.39-.42C8.89,8.56,8.41,8.09,8.4,7c0-.5.11-1,.14-1.49.05-1,.76-1.47,1.56-1.86.11-.05.26-.05.38-.11.57-.28,1-.06,1.08.55s0,1.23,0,1.85V7.39ZM10.38,6.1h0V5.59c0-.38,0-.76,0-1.15,0-.08-.12-.22-.2-.22a1.32,1.32,0,0,0-1.1.86C9,5.87,9,6.66,9,7.45a1,1,0,0,0,.16.39.52.52,0,0,0,.65.29c.43-.11.57-.22.59-.6S10.38,6.57,10.38,6.1Z"/><path d="M2.11,8.33l-.41.14A1.21,1.21,0,0,1,0,7.43,7.55,7.55,0,0,1,.21,4.79,1.44,1.44,0,0,1,1.56,3.7c.6,0,.6,0,.63-.68L2.31.58c0-.22,0-.44.32-.47s.54,0,.68.28a1.17,1.17,0,0,1,.12.48c0,.91,0,1.82-.11,2.73-.12,1.57.09,3.15,0,4.72,0,.15,0,.29,0,.44s0,.49-.35.54a.66.66,0,0,1-.7-.39C2.2,8.73,2.17,8.54,2.11,8.33Zm.07-2.46h-.1c0-.43,0-.86,0-1.28s-.18-.5-.56-.44a1,1,0,0,0-.88.92,19,19,0,0,0-.16,2,1.39,1.39,0,0,0,.21.67.64.64,0,0,0,1,.16,1.09,1.09,0,0,0,.51-1A6.68,6.68,0,0,1,2.18,5.87Z"/><path d="M27.29,8.22c-.83.41-1.36.36-1.81-.17a1.18,1.18,0,0,1-.25-.5A7.17,7.17,0,0,1,25.3,5a1.65,1.65,0,0,1,1.95-1.33c0-.31.1-.61.11-.91,0-.59,0-1.19,0-1.79a2.19,2.19,0,0,1,0-.36C27.5.14,27.67,0,28,0a.61.61,0,0,1,.55.64c0,.7,0,1.39,0,2.09,0,1.17-.08,2.34-.09,3.51,0,.53.06,1,.07,1.58a7.28,7.28,0,0,1-.07.93c0,.26-.08.46-.41.46s-.55-.11-.64-.43C27.35,8.62,27.33,8.45,27.29,8.22ZM25.65,6.47h0V7.4a.55.55,0,0,0,.39.54,1,1,0,0,0,1.28-.85c0-.81-.05-1.62-.1-2.43,0-.51-.18-.61-.68-.51a.85.85,0,0,0-.73.77C25.76,5.43,25.71,6,25.65,6.47Z"/><path d="M29.31,4.59c.06-.07.08-.14.11-.14.67,0,.77-.5.79-1l.09-2.22c0-.24-.05-.53.22-.63a.79.79,0,0,1,.86.2.92.92,0,0,1,.18.59c0,.74-.06,1.48-.1,2.21,0,.51,0,.51.5.61a.51.51,0,0,1,.21.06c.12.08.34.19.34.29s-.23.18-.38.19h-.29c-.3,0-.43.14-.43.44,0,.91,0,1.82,0,2.73,0,.28.05.54.35.64s.47-.21.56-.55.06-.48.13-.7.19-.17.3-.25c.06.11.18.24.17.35,0,.3-.11.61-.17.91A.82.82,0,0,1,32.1,9,3.78,3.78,0,0,1,31,9a.75.75,0,0,1-.68-.56,4.76,4.76,0,0,1-.21-1c0-.69,0-1.38,0-2.08,0-.51,0-.51-.53-.65l-.2-.07S29.36,4.65,29.31,4.59Z"/><path d="M41,5V8.44c0,.26,0,.61-.25.69a.93.93,0,0,1-.71-.19.64.64,0,0,0-.73-.1,1.22,1.22,0,0,1-1.68-1,5.39,5.39,0,0,1,.06-2.9,1.87,1.87,0,0,1,1.32-1.37,2.68,2.68,0,0,0,1-.45c.42-.34,1,0,1,.57s0,.91,0,1.36Zm-1.24,1h.09c0-.6,0-1.2,0-1.8,0-.28-.18-.43-.41-.36a1.31,1.31,0,0,0-.94.71,5.79,5.79,0,0,0-.16,3.47.65.65,0,0,0,.3.35,1,1,0,0,0,1.12-.8C39.82,7.11,39.8,6.58,39.8,6.06Z"/><path d="M19.66,3.87c0,1.53-.06,3.07,0,4.6,0,.83-.31.9-.88.54a.9.9,0,0,0-.85-.09,1.17,1.17,0,0,1-1.54-.79,5,5,0,0,1,.06-3.37,1.82,1.82,0,0,1,1.33-1.19,2.24,2.24,0,0,0,.84-.35.63.63,0,0,1,.77-.15A.64.64,0,0,1,19.66,3.87ZM18.45,6h.05c0-.55,0-1.1,0-1.65,0-.34-.2-.49-.51-.38s-.78.31-.86.77a13.28,13.28,0,0,0-.33,2,5,5,0,0,0,.26,1.46.56.56,0,0,0,.4.32,1,1,0,0,0,1-1C18.46,7,18.45,6.53,18.45,6Z"/><path d="M75.91,6.28c.16-.59.32-1.21.52-1.82a1.4,1.4,0,0,1,1-.91A2.27,2.27,0,0,0,78.61,3c.19-.23.46,0,.66,0s.35.37.35.65c0,1.34-.08,2.68-.11,4,0,.31,0,.63,0,.94,0,.5-.15.58-.63.4a3.52,3.52,0,0,0-1.22-.15,1.08,1.08,0,0,1-1.31-.75A15.61,15.61,0,0,1,75.91,6.28Zm2.45-.38h0c0-.55,0-1.1,0-1.65,0-.32-.16-.45-.45-.36a1.25,1.25,0,0,0-.94.79A6.78,6.78,0,0,0,76.72,7,4.39,4.39,0,0,0,77,8.17a.47.47,0,0,0,.35.26,1,1,0,0,0,1-1C78.37,6.9,78.36,6.4,78.36,5.9Z"/><path d="M45.7,4.39c.22-.28.38-.52.58-.73a.85.85,0,0,1,.91-.27.77.77,0,0,1,.5.8c0,.88,0,1.77,0,2.66,0,.47-.06.94-.11,1.42a1,1,0,0,1-.14.39s-.21,0-.21,0a2.76,2.76,0,0,1-.06-.57c0-1,0-2.09,0-3.14a5,5,0,0,0-.05-.78A.2.2,0,0,0,46.75,4a2.12,2.12,0,0,0-.5.49,4.21,4.21,0,0,0-.63,2.38,12.78,12.78,0,0,1-.06,1.64c0,.34-.19.46-.53.41a.67.67,0,0,1-.63-.73c0-1.66,0-3.31,0-5,0-.49.13-.63.47-.67s.6.08.67.48S45.65,3.88,45.7,4.39Z"/><path d="M22.22,4.44A9,9,0,0,1,23,3.63a.72.72,0,0,1,1.26.48,6.2,6.2,0,0,1,0,1.22c0,1-.09,1.91-.14,2.87a1.43,1.43,0,0,1-.06.35.35.35,0,0,1-.2.15s-.12-.09-.13-.14a2.89,2.89,0,0,1,0-.5c0-1.15,0-2.29,0-3.44,0-.2,0-.51-.17-.57-.29-.14-.48.15-.61.36a3.87,3.87,0,0,0-.72,2.43,13.71,13.71,0,0,1,0,1.57c0,.27-.08.53-.46.52s-.62-.15-.69-.49a2.88,2.88,0,0,1,0-.72c0-1.51.05-3,.08-4.52,0-.46.15-.63.5-.64s.59.22.63.64S22.2,4,22.22,4.44Z"/><path d="M4.42,6.22c.08-.67.13-1.33.25-2A1.35,1.35,0,0,1,6.12,3,1.4,1.4,0,0,1,7.63,4.18a5,5,0,0,1,.15,1.27,19.43,19.43,0,0,1-.16,2.29,1.41,1.41,0,0,1-2.25.92,2,2,0,0,1-.86-1.5c0-.31,0-.62,0-.93Zm2.87-.48h0a4.17,4.17,0,0,0,0-.5A8.14,8.14,0,0,0,7.12,4c-.11-.5-.42-.61-.84-.32a1.15,1.15,0,0,0-.38.41,2.38,2.38,0,0,0-.22.82c0,.84,0,1.68,0,2.51a1.29,1.29,0,0,0,.24.66.6.6,0,0,0,1,0,1.05,1.05,0,0,0,.16-.46C7.18,7,7.23,6.35,7.29,5.74Z"/><path d="M84,3.88l.12,3.66c0,.26,0,.52,0,.79,0,.43-.13.56-.46.6S83,8.82,83,8.39a10.76,10.76,0,0,1-.1-1.49c0-1.2,0-2.39.06-3.59,0-.71,0-1.42-.05-2.14,0-.14,0-.28,0-.43,0-.42.1-.51.49-.53A.5.5,0,0,1,84,.73c0,.62,0,1.24,0,1.86V3.88Z"/><path d="M48.52,6.18c.1-.7.21-1.55.33-2.39a1.76,1.76,0,0,1,.2-.54,1,1,0,0,1,.28-.32A1.46,1.46,0,0,1,51.48,4c0,.55,0,1.09,0,1.64a.62.62,0,0,1-.49.63,5.59,5.59,0,0,1-.91.16c-.24,0-.36.12-.34.35a5.74,5.74,0,0,0,.08.93c0,.24.06.54.41.59A.9.9,0,0,0,51,7.89c0-.08.06-.19.12-.26s.16-.13.22-.11.17.13.16.2a.87.87,0,0,1-.35.74,2.89,2.89,0,0,1-1.43.41,1,1,0,0,1-1-.89C48.62,7.44,48.59,6.89,48.52,6.18Zm1.21-.85a4.76,4.76,0,0,0,0,.55.36.36,0,0,0,.16.22c.29.17,1.09-.16,1.12-.48a5.48,5.48,0,0,0,0-1.85.51.51,0,0,0-.44-.41.53.53,0,0,0-.58.33,2.24,2.24,0,0,0-.11.34C49.82,4.48,49.78,4.93,49.73,5.33Z"/><path d="M93.67,5.89c0,.57,0,1.14-.09,1.71a1.2,1.2,0,0,1-1.24,1.16A1.69,1.69,0,0,1,90.5,7.41a6.76,6.76,0,0,1,.19-3.54A1.48,1.48,0,0,1,93.52,4a18.48,18.48,0,0,1,.2,1.84Zm-.44-.52c0-.46-.08-1-.17-1.5s-.41-.57-.8-.33a1.29,1.29,0,0,0-.58.79,7.68,7.68,0,0,0,0,3.34.62.62,0,0,0,.73.55A.62.62,0,0,0,93,7.59C93.11,6.87,93.16,6.16,93.23,5.37Z"/><path d="M53.76,4.34c.29-.22.53-.44.8-.62a.65.65,0,0,1,1.1.41,3.23,3.23,0,0,1,0,1c0,.08-.17.19-.25.19a.34.34,0,0,1-.21-.24c0-.18,0-.38,0-.57A.41.41,0,0,0,55,4.2a.35.35,0,0,0-.3.11A2.32,2.32,0,0,0,53.83,6c0,.74-.06,1.48-.09,2.22,0,.12,0,.24,0,.36,0,.51-.16.74-.47.75a.73.73,0,0,1-.64-.74c0-.41,0-.82,0-1.22V4.48c0-.41,0-.82,0-1.22s.17-.57.42-.55a.68.68,0,0,1,.66.61,4.35,4.35,0,0,1,0,.51Z"/><path d="M34.85,4.39c.33-.28.58-.5.84-.7a.56.56,0,0,1,.92.22,4.38,4.38,0,0,1,.13,1.2c0,.09-.17.18-.26.28-.09-.09-.24-.18-.25-.28a9.15,9.15,0,0,1-.08-.94A2.19,2.19,0,0,0,34.87,6c0,.94-.07,1.87-.11,2.8,0,.24,0,.5-.33.55a.64.64,0,0,1-.7-.56,1.62,1.62,0,0,1,0-.22c0-1.72,0-3.45,0-5.17,0-.23-.07-.57.25-.59a1.19,1.19,0,0,1,.7.26c.11.07.14.29.16.45S34.85,4.05,34.85,4.39Z"/><path d="M57.83,7.31c-.12-.33-.23-.74-.41-1.13s-.51-1-.76-1.54a1.26,1.26,0,0,1,.41-1.48,1.09,1.09,0,0,1,1.27-.11,1,1,0,0,1,.58,1.17c0,.07-.12.17-.17.16a.29.29,0,0,1-.2-.16,1.41,1.41,0,0,1,0-.35c-.06-.33-.27-.5-.53-.45a.54.54,0,0,0-.37.67c.12.38.31.74.47,1.12.23.54.48,1.08.71,1.63a2.88,2.88,0,0,1,.11.49,1.28,1.28,0,0,1-.51,1.38,1.71,1.71,0,0,1-1.82-.15,1.08,1.08,0,0,1-.19-1.07.27.27,0,0,1,.21-.15c.08,0,.21.06.23.12a1,1,0,0,1,0,.41c0,.26,0,.41.32.45A.38.38,0,0,0,57.69,8Z"/><path d="M13.8,3c.83,0,1.38.46,1.34,1.09,0,.12-.12.23-.18.34a2.18,2.18,0,0,1-.25-.28s0-.1,0-.14c-.07-.37-.29-.58-.54-.54a.64.64,0,0,0-.38.81c.13.33.31.64.47,1A6.36,6.36,0,0,1,15,7.38c.17,1.24-.65,1.9-1.84,1.5a1.09,1.09,0,0,1-.74-1,.27.27,0,0,1,0-.2c.08-.13.18-.34.29-.35s.34.15.34.37-.08.26,0,.35a.79.79,0,0,0,.34.31c.17.09.32,0,.4-.18a1.9,1.9,0,0,0-.05-1.6c-.17-.4-.38-.78-.57-1.16a6.66,6.66,0,0,1-.33-.72,1.4,1.4,0,0,1,.51-1.58A1.12,1.12,0,0,1,13.8,3Z"/><path d="M89.18,4.38c-.15-.27-.23-.44-.34-.6a.46.46,0,0,0-.56-.2.67.67,0,0,0-.35.39,6.26,6.26,0,0,0-.16,1.14c0,.69,0,1.39,0,2.08a6.27,6.27,0,0,0,.14.85c0,.19.1.42.34.38a.78.78,0,0,0,.43-.3,5,5,0,0,0,.31-.56c0-.06.16-.14.21-.12a.3.3,0,0,1,.15.21,1.23,1.23,0,0,1-1.06,1.18,1.32,1.32,0,0,1-1.72-1.22,7.39,7.39,0,0,1,.06-3,1.47,1.47,0,0,1,.66-1.06,2.38,2.38,0,0,1,1.67-.24C89.27,3.4,89.35,3.68,89.18,4.38Z"/><path d="M80.67,5.9c0-.6,0-1.2,0-1.79,0-.41.11-.52.42-.53s.56.12.58.54c0,.87.1,1.75.11,2.63a12.22,12.22,0,0,1-.08,1.35c0,.34-.21.44-.54.36s-.47-.28-.48-.7c0-.62,0-1.24,0-1.86Z"/><path d="M43.24,6.2V8c0,.23,0,.51-.3.56a.75.75,0,0,1-.72-.49,2.69,2.69,0,0,1,0-.57c0-.81,0-1.62,0-2.43,0-.35,0-.71,0-1.06a.39.39,0,0,1,.44-.39c.24,0,.49.08.54.38a7,7,0,0,1,.08.92c0,.43,0,.86,0,1.29Z"/><path d="M81.78,2.41a.42.42,0,0,1-.39.42c-.31,0-.56-.16-.56-.41A.38.38,0,0,1,81.2,2C81.48,2,81.77,2.2,81.78,2.41Z"/><path d="M42.8,2.85c-.22,0-.44,0-.44-.33s0-.45.28-.5a.63.63,0,0,1,.6.39C43.27,2.67,43.09,2.84,42.8,2.85Z"/><path d="M85.7,8.49c0,.25-.12.43-.37.4a.4.4,0,0,1-.3-.21.56.56,0,0,1,.32-.56A.37.37,0,0,1,85.7,8.49Z"/></g></g></svg>