<svg xmlns="http://www.w3.org/2000/svg" viewBox="0 0 204.52 34.59"><defs><style>.cls-1{fill:#fff;}</style></defs><title>Asset 1</title><g id="Layer_2" data-name="Layer 2"><g id="Helen_Marinakis_text_Image" data-name="Helen Marinakis text Image"><path class="cls-1" d="M102.34,12.77a10.14,10.14,0,0,1,1.51-3.34,1.08,1.08,0,0,1,1.58-.23,1.09,1.09,0,0,1,.45,1.43A2.71,2.71,0,0,1,104,12.39c-.25.07-.39.08-.29.4a9.24,9.24,0,0,0,1.06,2.48c.42.6.93.67,1.33.08,1-1.46,2.24-2.82,2.19-4.78a9.78,9.78,0,0,1,.13-1.2c.06-.59.32-.81.93-.71s.52.54.45.92a21.83,21.83,0,0,0-.39,4.42,5.2,5.2,0,0,0,.1.78c0,.3.08.72.42.76s.6-.28.82-.59a23.41,23.41,0,0,0,1.49-2.68,1.1,1.1,0,0,0,.1-.8A1.9,1.9,0,0,1,114.08,9a1.27,1.27,0,0,1,1.27,1.65c0,.12-.07.25-.21.24a.22.22,0,0,1-.19-.26.71.71,0,0,0,0-.14c-.08-.77-.4-1.13-.94-1.07a1.09,1.09,0,0,0-.78,1.33,15.53,15.53,0,0,0,1.14,2.77c.17.35.39.16.57,0A9.9,9.9,0,0,0,117.61,11c.38.41,0,.69-.15.94a7.58,7.58,0,0,1-2.18,1.84.91.91,0,0,0-.49,1.16,4.64,4.64,0,0,1-.41,3.25A1.24,1.24,0,0,1,113,19a1.19,1.19,0,0,1-1-1.26,3.83,3.83,0,0,1,1.23-2.94.69.69,0,0,0,.18-1c-.23-.4-.43-.82-.67-1.29-.67.63-.76,1.52-1.24,2.17a6.3,6.3,0,0,1-1.35,1.56c-.85.61-1.45.41-1.77-.61a13.57,13.57,0,0,1-.33-2.45l-1.42,2.07a3.63,3.63,0,0,1-.34.46c-1,1-1.64.89-2.38-.29a15.58,15.58,0,0,1-1.08-2.29c-.71,1.35-.2,2.67-.15,4-1.15-1.06-1.23-2.57-1.62-4.07-.67,1-1.2,1.94-1.88,2.78A9.83,9.83,0,0,1,98.16,17a1.25,1.25,0,0,1-1.4.3,1.43,1.43,0,0,1-.68-1.19c-.07-.49-.08-1-.12-1.55-.38.23-.47.63-.72.89-.07.06-.12.15-.19.21-.59.56-1.12,1.3-2.06,1s-.85-1.16-1-1.88c0-.09,0-.18-.07-.34-.42.61-.8,1.17-1.19,1.71a1.14,1.14,0,0,1-1.36.54c-.63-.2-.74-.73-.74-1.26a20.08,20.08,0,0,1,.74-4.21A9.49,9.49,0,0,0,89.74,9c0-.21.08-.47-.2-.56s-.41.15-.52.32a9.77,9.77,0,0,0-1.16,2.44c-.5,1.43-1,2.88-1.45,4.32-.12.34-.21.76-.64.76s-.73-.34-.86-.81,0-1-.11-1.66c-.41.6-.76,1.17-1.18,1.69s-.93,1.29-1.78,1.09-.86-1-1-1.67-.1-1.18-.16-1.85a6.25,6.25,0,0,0-1.06,1.39,18.71,18.71,0,0,1-2.06,2.38,1.55,1.55,0,0,1-2,.41,1.82,1.82,0,0,1-.65-2,15,15,0,0,1,1.18-4A5,5,0,0,0,76.78,9a.91.91,0,0,0-.12-.55c-.35-.49-.54-.48-.84,0-1.23,2.17-2.07,4.55-3.53,6.61a10.11,10.11,0,0,1-1.55,1.78,1.38,1.38,0,0,1-1.35.45c-.63-.21-.74-.77-.82-1.32s-.08-1-.14-1.63A8.62,8.62,0,0,1,67,16.21c-1,.85-1.75.7-2.33-.41a1.88,1.88,0,0,0-.21-.31,30.84,30.84,0,0,1-1.6,3.14c-.6.87-1.22.94-1.88.09A5.76,5.76,0,0,1,60,15.19a41.63,41.63,0,0,1,.73-7.8,13.71,13.71,0,0,0,.18-3c0-.27,0-.58-.28-.68s-.48.14-.67.32a21.12,21.12,0,0,0-2.68,3.61c-.92,1.29-.84,2.8-1,4.25-.09.88,0,1.78,0,2.67,0,.21,0,.48-.23.53a.53.53,0,0,1-.57-.34,3.48,3.48,0,0,1-.32-1.38,34.72,34.72,0,0,1,.55-6.27c.3-1.88.5-3.78.73-5.67A1.32,1.32,0,0,0,56.4.66c-.32-.47-.67-.2-.93.11a12.94,12.94,0,0,0-1.92,3.66,103.94,103.94,0,0,0-3.15,10c0,.16-.1.32-.14.48s-.09.23-.22.24a.27.27,0,0,1-.3-.24,4.86,4.86,0,0,1-.16-1c0-2.05-.26-4.11-.14-6.17.08-1.21.19-2.42.26-3.64,0-.34.1-.7.47-.67s.85.15.81.72c-.06.86-.13,1.71-.21,2.57a22.89,22.89,0,0,0-.11,4.61,16.29,16.29,0,0,0,.91-2.71,37.12,37.12,0,0,1,2.73-7c.21-.35.47-.67.69-1a1.33,1.33,0,0,1,2.45.47,5.78,5.78,0,0,1,.1,2.55c-.13,1-.27,1.95-.33,2.95a18.31,18.31,0,0,1,2-2.5c.12-.11.23-.23.36-.34,1.2-1,2.1-.67,2.47.85a13.4,13.4,0,0,1-.07,4c-.09,1.73-.41,3.45-.52,5.19a17.32,17.32,0,0,0,0,4.07c.06.34.08.74.41.85s.54-.28.69-.53a13.48,13.48,0,0,0,2-4.93A6.8,6.8,0,0,1,66,9.75a1.84,1.84,0,0,1,2.82-.41c.14.09.21.28.52.14.57-.27.93.13.84.77a26.28,26.28,0,0,0-.49,5.53c0,.29-.11.67.28.81s.57-.19.77-.39a14.3,14.3,0,0,0,3-4.64c.49-1.14,1.13-2.2,1.7-3.3a.94.94,0,0,0-.06-1.21A1.85,1.85,0,0,1,75,5.93c0-.4.07-.73.5-.84s.66.17.83.52A2.44,2.44,0,0,1,76.45,7a.82.82,0,0,0,.3.86,2.19,2.19,0,0,1,.63,2.82,25.79,25.79,0,0,0-1.31,4.66.59.59,0,0,0,0,.14c0,.43-.06,1,.34,1.18s.88-.06,1.2-.41A24.54,24.54,0,0,0,80.7,12c.45-.78.23-1.73.37-2.59.08-.47.08-.87.72-.79s.72.29.62.9a23.29,23.29,0,0,0-.33,4.86.76.76,0,0,1,0,.15c0,.39,0,.87.4,1s.67-.27.89-.58a7.57,7.57,0,0,0,1.75-4.86,3.47,3.47,0,0,1,0-.72c.07-.36,0-.78.65-.7s.68.32.62.82c-.17,1.47-.31,2.94-.46,4.41,0,.23,0,.47,0,.85a2.62,2.62,0,0,0,.61-1.23,29.26,29.26,0,0,1,1.61-4.27,5,5,0,0,1,.47-.72c.26-.35.54-.71,1-.58s.72.58.88,1a5.17,5.17,0,0,1-.2,2.89c-.26,1.12-.44,2.25-.65,3.37a.89.89,0,0,0,0,.43c0,.16.09.37.2.43s.36-.09.47-.24a10,10,0,0,0,1.77-3.32A8.27,8.27,0,0,1,93.33,10a2,2,0,0,1,3-.7.8.8,0,0,0,.64.15c.57-.14.83.25.74.84a25.2,25.2,0,0,0-.52,5.48c0,.3,0,.69.29.82s.57-.19.79-.39A8.41,8.41,0,0,0,99.7,14.4c.32-.51.66-1,1-1.51a3.14,3.14,0,0,0,.42-1.77,17,17,0,0,1,1.49-7.92,5.84,5.84,0,0,1,.94-1.42c.36-.39.83-.8,1.44-.44a1.25,1.25,0,0,1,.57,1.42,8.26,8.26,0,0,1-2,4.2c-1.37,1.47-1.41,3.14-1.37,4.92A1.37,1.37,0,0,0,102.34,12.77ZM65.67,14.62c0,.63-.06,1.16.37,1.36s.77-.34,1.1-.63a1.12,1.12,0,0,0,.16-.22,8,8,0,0,0,1.61-4.19c.06-.59.08-1.07-.46-1.34s-1,.16-1.28.6A10.17,10.17,0,0,0,65.67,14.62Zm27.5.12c0,.52,0,1.07.4,1.22s.75-.28,1-.61a8.44,8.44,0,0,0,1.9-4.67A1,1,0,0,0,96,9.58a.84.84,0,0,0-1.12.36A9.8,9.8,0,0,0,93.17,14.74Zm9.37-7.29a9.19,9.19,0,0,0,2.52-4.64c0-.32.18-.72-.13-.84s-.63.2-.82.52A13.77,13.77,0,0,0,102.54,7.45ZM113.9,15a3.18,3.18,0,0,0-1.24,3c.14.46.43.5.73.17a2,2,0,0,0,.43-.73A7.78,7.78,0,0,0,113.9,15Zm-9-5.05a.26.26,0,0,0-.19-.32.42.42,0,0,0-.5.13,4.62,4.62,0,0,0-.87,1.69c-.05.13-.18.25,0,.38s.27,0,.39,0A2.48,2.48,0,0,0,104.93,9.94ZM76,6.92a2,2,0,0,0,0-1.06c-.05-.19-.18-.43-.46-.33a.36.36,0,0,0-.19.53A1.67,1.67,0,0,0,76,6.92Z"/><path class="cls-1" d="M37.59,13a23.26,23.26,0,0,1-2.06,2.39,4.65,4.65,0,0,1-2.16,1.21c-1.4.32-2.63-.73-2.81-2.42,0-.19,0-.38,0-.73-.66.7-1.09,1.44-1.68,2a5,5,0,0,1-1.65,1.21,1.36,1.36,0,0,1-1.79-.57,5.32,5.32,0,0,1-.75-2.51,1.16,1.16,0,0,0-.21-.77,12.79,12.79,0,0,1-2.68,3,2.92,2.92,0,0,1-2.87.58,2.06,2.06,0,0,1-1.37-1.76,6.35,6.35,0,0,1,1.82-6,2.11,2.11,0,0,1,2.85,0,2.19,2.19,0,0,1,0,2.88,4.56,4.56,0,0,1-2.94,1.59c-.39.07-.56.22-.57.65a4.63,4.63,0,0,0,.21,1.34,1.34,1.34,0,0,0,2.16.62A11.53,11.53,0,0,0,24.42,12a2.28,2.28,0,0,0,.09-1.13A18.3,18.3,0,0,1,26.77,2a4.42,4.42,0,0,1,1-1.06A.91.91,0,0,1,28.85.76a1,1,0,0,1,.46,1.11A16.73,16.73,0,0,1,27.88,6,31,31,0,0,1,26,9.65a1.3,1.3,0,0,0-.23.59A13.68,13.68,0,0,0,26.2,15c.46,1.41,1,1.55,2.06.54a9.52,9.52,0,0,0,2.62-4.12A5.66,5.66,0,0,1,32.2,9.12c1-1.08,2.39-1.2,3.23-.26a2.39,2.39,0,0,1-.51,3.36,5.07,5.07,0,0,1-2.42,1c-.61.09-.73.4-.63.92a9.21,9.21,0,0,0,.28,1.18,1.13,1.13,0,0,0,1.6.7,6.85,6.85,0,0,0,2.64-2.25c.2-.23.33-.53.55-.74,1.05-1.06.76-2.45.93-3.72.06-.45.2-.58.61-.56s.76.14.69.68c-.17,1.3-.3,2.6-.5,3.9A12.49,12.49,0,0,0,38.61,15a9.19,9.19,0,0,0,1-2.43,16,16,0,0,1,1.55-3.66c.29-.43.57-1,1.19-.87s.93.83,1,1.51a13.68,13.68,0,0,1-.64,4.07,8.55,8.55,0,0,0-.25,2.13c0,.19-.06.44.14.53s.38-.16.5-.31a12.61,12.61,0,0,0,1.72-3c.23-.52.48-1,.71-1.56,0-.13.09-.29.28-.22s.16.24.11.37a22.42,22.42,0,0,1-2.67,4.87,1,1,0,0,1-1.33.34c-.46-.18-.56-.59-.58-1.05a19.43,19.43,0,0,1,.79-4.85c.11-.58.24-1.16.35-1.74a.47.47,0,0,0-.25-.55c-.21-.09-.34.08-.47.23a8.14,8.14,0,0,0-1.26,2.62c-.5,1.31-.88,2.67-1.33,4-.16.45-.25,1.09-1,.92s-.7-.77-.68-1.29S37.61,13.8,37.59,13Zm-2.05-2.89A1.34,1.34,0,0,0,34.81,9c-.47-.2-.8.09-1.07.37a6.72,6.72,0,0,0-1.73,3c-.09.36-.07.66.44.42a2,2,0,0,1,.43,0A3.11,3.11,0,0,0,35.54,10.13Zm-13.2.22c0-1.08-.73-1.71-1.38-1.28a5.26,5.26,0,0,0-2.08,3.28c-.11.42.16.56.56.45a6.31,6.31,0,0,0,1.77-.71A2.44,2.44,0,0,0,22.34,10.35Zm3.58-1.92.19.1.13-.25c.57-1.15,1.2-2.27,1.67-3.45a8.41,8.41,0,0,0,.92-3c0-.18.08-.41-.16-.5s-.34.12-.47.25A1.23,1.23,0,0,0,28,2,28.17,28.17,0,0,0,25.92,8.43Z"/><path class="cls-1" d="M93.58,27.18c-.32.62-.55,1.14-.84,1.63s-.61,1-1.16.93S91,29,91,28.55c-.38,0-.41.37-.55.59a4.31,4.31,0,0,1-.54.75.67.67,0,0,1-.77.2.69.69,0,0,1-.39-.64,6.38,6.38,0,0,1,.35-1.89c.11-.56.26-1.11.35-1.67,0-.16.14-.42-.12-.49s-.36.15-.43.31c-.26.58-.51,1.17-.74,1.77s-.41,1.26-.65,1.88c-.08.23-.16.55-.53.46s-.38-.34-.38-.62,0-.67,0-1.08c-.4.22-.48.62-.69.9-.36.46-.69,1.19-1.32,1s-.54-1-.59-1.56c0-.09,0-.19,0-.37a5.34,5.34,0,0,0-1.08,1.62.71.71,0,0,1-.88.39c-.42-.11-.46-.43-.45-.78a20.27,20.27,0,0,1,.66-3.28c0-.22.17-.53-.06-.64s-.41.21-.52.4A22.16,22.16,0,0,0,80.37,29c-.05.13-.08.27-.12.41s-.22.48-.55.42-.33-.3-.33-.55V28.11c-.52.3-.59.82-.9,1.16s-.62.94-1.16.78-.54-.78-.54-1.3v-.88L75.4,29.72l-.08.12c-.33.35-.68.83-1.18.66s-.53-.73-.54-1.23a1.38,1.38,0,0,0,0-.25c-.35.1-.38.48-.62.66s-.69.59-1.14.44-.48-.66-.51-1.08,0-.65,0-1.12c-.62.77-1.12,1.42-1.66,2-.35.39-.78.82-1.35.49A1.22,1.22,0,0,1,67.88,29c.23-.85.56-1.67.85-2.5a3.32,3.32,0,0,0,.25-.73.55.55,0,0,0-.34-.58c-.22-.07-.24.24-.33.39-.79,1.41-1.65,2.77-2.56,4.1a1.55,1.55,0,0,1-.24.27c-.32.29-.65.62-1.13.48s-.58-.63-.68-1a9.8,9.8,0,0,1,0-3.7c0-.49.15-1,.21-1.48,0-.27,0-.45-.38-.33s-1,.19-1.53.31A1,1,0,0,1,61,23.86a17.91,17.91,0,0,0,2.78-.33c.4,0,.36-.34.42-.56.13-.4.17-.83.29-1.25,0-.12,0-.4.26-.33a.37.37,0,0,1,.24.4,6,6,0,0,1-.08.85c-.12.43,0,.46.38.34a3.12,3.12,0,0,1,2-.09c-.08.23-.24.15-.36.16a3.09,3.09,0,0,1-.43,0c-1.29,0-1.72.31-1.88,1.53a20.53,20.53,0,0,0-.32,4c0,.47,0,1.1.48,1.22s.9-.33,1.16-.79c.71-1.21,1.56-2.33,2.18-3.6.16-.33.27-.58,0-.88a.69.69,0,0,1-.19-.53c0-.32.13-.58.46-.61a.45.45,0,0,1,.48.57,1.18,1.18,0,0,0,.43,1.35c.31.25.26.76.11,1.21a11.91,11.91,0,0,0-.78,2.74c0,.29-.15.69.17.84s.6-.19.83-.43A35.46,35.46,0,0,0,72,26.4,1.7,1.7,0,0,1,74.46,26c.24.2.17.5.1.75a10.12,10.12,0,0,0-.27,2.69c0,.21-.06.5.17.59s.45-.12.59-.31c.83-1.14,1.88-2.18,1.87-3.75,0-.3.13-.52.48-.46s.33.27.28.58a11.8,11.8,0,0,0-.2,2.78c0,.2,0,.41.21.49s.36-.1.47-.25a5.15,5.15,0,0,0,1.37-3.08c0-.28,0-.55.42-.52s.26.33.27.54a14.57,14.57,0,0,0-.1,2.49,3.16,3.16,0,0,0,.53-1.21,8,8,0,0,1,.82-1.81c.19-.26.38-.54.75-.43s.39.35.47.65a5.25,5.25,0,0,1-.26,2.16c0,.14-.08.27-.11.41-.1.44-.31,1.08,0,1.26s.41-.5.63-.78a4.7,4.7,0,0,0,1.17-2.7c0-.25,0-.78.53-.65s.27.48.23.78a13.19,13.19,0,0,0-.21,2.42c0,.29,0,.65.27.76s.46-.25.61-.48A5.75,5.75,0,0,0,86.8,26c0-.23,0-.59.41-.52s.36.39.32.67a7.07,7.07,0,0,0-.17,2.47c.45-1,.74-2,1.23-3,.17-.33.28-.69.76-.58s.59.44.65.84a5.59,5.59,0,0,1-.35,2.1,4.18,4.18,0,0,0-.22,1.4c0,.13-.05.32.14.36s.26-.1.33-.23c.34-.6.67-1.21,1-1.81s.55-1.12.89-1.63a1.37,1.37,0,0,1,2-.47c-1-.11-1.37.44-1.65,1.15a4.63,4.63,0,0,0-.42,1.86c0,.15-.09.36.13.44s.34-.09.47-.25a10.17,10.17,0,0,0,1.15-2.28c.09-.22.05-.63.4-.58s.27.43.3.71c0,.54.12,1.09.19,1.74l2.41-1.72c-.08.53-.51.55-.68.8-.06.09-.19.13-.29.2a2.63,2.63,0,0,0-1.52,2.76,5.69,5.69,0,0,1-.75,3.37,1,1,0,0,1-2-.55,5,5,0,0,1,1-2.48,7.08,7.08,0,0,1,.74-1.05C94,29,93.76,28.16,93.58,27.18Zm.1,2.67c-.82,1-1.73,2-1.8,3.4,0,.28-.06.62.31.73s.58-.14.74-.42A6,6,0,0,0,93.68,29.85ZM72,29c.07.26-.14.61.18.72s.54-.19.73-.43a4.32,4.32,0,0,0,1-2.54c0-.26,0-.55-.31-.63a.6.6,0,0,0-.73.29A5.89,5.89,0,0,0,72,29Z"/><path class="cls-1" d="M110.35,29a9.46,9.46,0,0,0,.84-2.21c.16-.45.33-.89.53-1.32.11-.25.19-.61.58-.5s.47.42.47.79a8.38,8.38,0,0,1-.25,2.54,6.37,6.37,0,0,0,.84-1.59c.15-.27.28-.55.42-.82s.32-.57.63-.48a.79.79,0,0,1,.52.77,6.15,6.15,0,0,1-.24,1.91c-.1.44-.2.88-.31,1.32-.06.28,0,.57.23.68s.43-.13.58-.33a21.6,21.6,0,0,0,1.8-3.31,3.1,3.1,0,0,1,.68-.92,1.18,1.18,0,0,1,1.75,1.57,2.16,2.16,0,0,1-1.56.92c-.44,0-.74.1-.65.58s.18,1,.82,1.1a.78.78,0,0,0,.61-.14,5.07,5.07,0,0,0,2.19-2.87c.2-.7.59-1.1,1.16-1s.72.48.53,1c-.15-.07-.08-.2-.1-.3a.49.49,0,0,0-.62-.44c-.34,0-.38.31-.4.58,0,.66.42,1.15.63,1.72.06.18.21.08.34,0a3.83,3.83,0,0,0,1.53-1.41,1,1,0,0,1-.63,1.07c-.72.46-1.2,1-1,1.91a1.71,1.71,0,0,1-.17,1.11.76.76,0,0,1-1.07.43.87.87,0,0,1-.5-1.11,2.84,2.84,0,0,1,.7-1.07c.21-.2.4-.42.25-.75s-.19-.75-.48-.84-.42.37-.63.59-.65.75-1,1.11a1.78,1.78,0,0,1-1.81.75c-.83-.24-1-1-1.13-1.73-.36.54-.68,1.05-1,1.54s-.6.7-1.08.53-.57-.64-.57-1.13a23.82,23.82,0,0,1,.51-2.65,1.67,1.67,0,0,0,0-.91,10.57,10.57,0,0,0-1.09,2.18,4,4,0,0,1-.43.82c-.19.25-.14.85-.65.65s-.36-.65-.28-1.07a11.43,11.43,0,0,0,.39-3.1,5.92,5.92,0,0,0-.88,2c-.19.51-.29,1.06-.48,1.56-.11.3-.25.7-.68.61s-.39-.43-.42-.74c0-.16,0-.32-.08-.66-.44.6-.77,1.07-1.11,1.54l-.1.11c-.37.42-.7,1.07-1.34.89s-.49-.91-.58-1.56a8.53,8.53,0,0,1-.87.91c-.69.55-1.3.28-1.39-.6a6.22,6.22,0,0,1,.26-2.14,15.11,15.11,0,0,0-2.2,1.7c-.19.18-.1.45-.1.68a10.67,10.67,0,0,1-.58,3.8c-.37,1-1,1.38-1.61,1.1s-.81-1.09-.45-2a6.89,6.89,0,0,1,1.23-2.16,3.2,3.2,0,0,0,.66-2.86c-.35,0-.34.36-.45.57a8,8,0,0,1-.92,1.44.71.71,0,0,1-.75.31.66.66,0,0,1-.44-.59,3.71,3.71,0,0,1,1-3.33c.46-.48,1-.5,1.76-.16a1.47,1.47,0,0,0-1.49.75,4.09,4.09,0,0,0-.53,1.54c0,.39-.42,1,0,1.16s.66-.51.87-.87a14.79,14.79,0,0,0,.78-1.83c.07-.19.11-.39.34-.4s.29.27.31.42c.06.47,0,.95.07,1.43s.22.66.62.3c.84-.77,2-1.19,2.62-2.18a.88.88,0,0,1,1.15-.26,3.06,3.06,0,0,0,.82.29c.49.06.26.55.22.83a14,14,0,0,0-.27,2.49c0,.26-.06.61.19.72s.55-.18.69-.4c.71-1.05,1.67-2,1.74-3.36,0-.23.12-.29.32-.28s.25.11.24.28a7,7,0,0,1,0,.79A8.4,8.4,0,0,0,110.35,29ZM105,28.71c0,.27,0,.37,0,.46s0,.36.14.45.27-.14.39-.23a3.33,3.33,0,0,0,1.35-2.83.56.56,0,0,0-.33-.58c-.27-.11-.43.06-.59.27A5.27,5.27,0,0,0,105,28.71Zm-3.57,1.13-.7,1a6.74,6.74,0,0,0-1,2.16.77.77,0,0,0,.44,1c.37.16.47-.17.65-.43A5.32,5.32,0,0,0,101.42,29.84Zm18-3.6a.54.54,0,0,0-.29-.59.57.57,0,0,0-.66.1,3.4,3.4,0,0,0-1,1.82c0,.14,0,.22.13.26A1.88,1.88,0,0,0,119.4,26.24Zm2.45,3.61c-.07-.21.13-.51-.18-.57s-.3.21-.38.38a1.52,1.52,0,0,0-.26,1.27.34.34,0,0,0,.32.09A1.47,1.47,0,0,0,121.85,29.85Z"/><path class="cls-1" d="M38.13,29.17c-.15.18-.29.37-.43.55s-.46.72-.92.47-.46-.62-.4-1.1c.13-.9.42-1.75.58-2.64A1.43,1.43,0,0,0,37,26.1c0-.2.14-.47-.12-.57s-.43.22-.5.4C36,27,35.57,28.11,35.16,29.2c-.12.31-.11.83-.59.73s-.42-.53-.41-.9,0-.51.06-.87c-.4.52-.72,1-1.07,1.41s-.59.64-1,.53-.47-.62-.53-1a3.1,3.1,0,0,0-.12-1c-.44.29-.57.78-.84,1.14a12.51,12.51,0,0,1-.91,1c-.67.7-1.11.28-1.32-.41a5.57,5.57,0,0,1-.06-.83c-.35.35-.61.64-.9.91a.75.75,0,0,1-.84.27.9.9,0,0,1-.51-.81c0-.39,0-.8,0-1.38-.53.65-1,1.15-1.37,1.69a4.74,4.74,0,0,1-.73.69.69.69,0,0,1-.84.16.84.84,0,0,1-.51-.78,3.18,3.18,0,0,1,.23-1.4c.26-.74.52-1.48.8-2.21a.68.68,0,0,0,.07-.55c-.07-.14-.19-.32-.33-.36s-.2.17-.27.29c-.74,1.21-1.48,2.42-2.23,3.62a4.71,4.71,0,0,1-.71.89c-.76.74-1.45.56-1.7-.47A6.65,6.65,0,0,1,18.38,27c.14-.9.14-1.81.34-2.7.1-.44-.24-.38-.5-.31a5.86,5.86,0,0,1-1.76.26.69.69,0,0,1-.7-.38,5.54,5.54,0,0,0,2.78-.2c.27-.05.31-.23.36-.46a5.38,5.38,0,0,1,.5-1.76c.47.22.39.65.3,1-.18.72.11.73.66.56a1.88,1.88,0,0,1,1.84.17,4.25,4.25,0,0,0-2.12.19.81.81,0,0,0-.66.78A27.81,27.81,0,0,0,19,28.39a4.18,4.18,0,0,0,0,.79c.05.29.08.68.41.77a.81.81,0,0,0,.91-.43c.87-1.38,1.73-2.79,2.62-4.17.31-.48-.08-.75-.24-1.09a.55.55,0,0,1,0-.6c.11-.19.28-.16.44-.15s.31.24.34.46.1.26.06.35c-.19.44.05.71.34,1a1,1,0,0,1,.24,1.13c-.27.86-.57,1.71-.8,2.58-.09.37-.24.93.14,1.13s.69-.32,1-.58a35.81,35.81,0,0,0,2.39-3.19c.59-.76,1-.88,1.74-.44.31.18,1-.09.82.68-.09.42-.09.85-.2,1.26a8.29,8.29,0,0,0-.11,1.79c0,.15-.06.35.14.44a.37.37,0,0,0,.44-.15c.91-1.09,1.94-2.11,2.05-3.65,0-.12,0-.23.06-.35s.11-.49.45-.42.34.34.31.62c-.09.82-.18,1.65-.26,2.48,0,.31,0,.74.24.83s.54-.26.71-.51A6.11,6.11,0,0,0,34.44,26c0-.19-.14-.55.3-.48a.45.45,0,0,1,.39.63,12.77,12.77,0,0,0-.22,1.63,4.84,4.84,0,0,0,0,1.1,24,24,0,0,0,1-2.45,4.18,4.18,0,0,1,.7-1.16c.38-.37.65-.22.85.15a1.91,1.91,0,0,1,.1,1.39c-.18.84-.35,1.68-.5,2.52,0,.14-.09.36.12.43s.29-.13.39-.25.25-.49.6-.38ZM26.78,29c0,.27-.1.6.22.78.15.09.27,0,.37-.14a4.36,4.36,0,0,0,1.31-3c0-.26,0-.5-.33-.56a.58.58,0,0,0-.69.24A6.53,6.53,0,0,0,26.78,29Z"/><path class="cls-1" d="M10.26,10.37A13,13,0,0,1,13.2,8.83a1.94,1.94,0,0,0,1.73-2.25,26.78,26.78,0,0,1,.37-4c0-.45,0-.94.66-1s.85.1.77.74c-.42,3.19-.86,6.39-1,9.61A26.67,26.67,0,0,0,16,16.65a3.36,3.36,0,0,1-1-2.24,20.45,20.45,0,0,1-.25-5c0-.45,0-.65-.59-.48a9.87,9.87,0,0,0-3.47,1.78,1.59,1.59,0,0,0-.6,1.23,33.48,33.48,0,0,0,.25,5c-1.13-1.24-.84-2.77-1.27-4.13a1.8,1.8,0,0,0-.43.92c0,.18-.13.26-.3.23s-.26-.17-.21-.37a3.75,3.75,0,0,1,.6-1.37A2,2,0,0,0,9.13,11a80.45,80.45,0,0,1,.55-8.21c0-.47.18-.84.7-.93s.8.13.73.69c-.28,2.37-.57,4.73-.85,7.1C10.24,9.83,10.26,10,10.26,10.37Z"/><path class="cls-1" d="M2,28.55a7.25,7.25,0,0,0-.59.55.75.75,0,0,1-.86.34.92.92,0,0,1-.58-.9,3,3,0,0,1,.46-1.91A1.18,1.18,0,0,1,1.79,26c.46.13.49-.12.54-.44a9,9,0,0,1,1-3.39c.18-.29.27-.77.73-.62s.45.59.42,1A4.62,4.62,0,0,1,3.52,25a4.17,4.17,0,0,0-.76,2.32c-.06.76,0,1.53,0,2.3a.62.62,0,0,0,.3.61c.25.12.4-.12.54-.27a13.5,13.5,0,0,0,2.2-3.32c.2-.41.3-1,1-.66.12.05.16-.06.22-.12.37-.32.71-.77,1.29-.52s.73.93.8,1.55c.06.45-.27.87-.07,1.37a2.88,2.88,0,0,0,1.56-1.47,2.32,2.32,0,0,1,1.73-1.34c.27,0,.46,0,.57.25A3,3,0,0,0,10.93,29c0,.11,0,.24.18.26s.24-.06.33-.19a9.32,9.32,0,0,0,1.23-2.49,1.69,1.69,0,0,1,.35-.64,3.27,3.27,0,0,1,.39,1.75c0,.26-.1.61.15.73s.49-.2.72-.37a6.3,6.3,0,0,1,1.77-1.15,6.72,6.72,0,0,1-1.64,1.34,1.81,1.81,0,0,0-.89,1.71,8.15,8.15,0,0,1-.6,3.64c-.32.82-.89,1.17-1.51.94a1.28,1.28,0,0,1-.64-1.75,6.62,6.62,0,0,1,1.41-2.46c.83-.87.66-1.83.62-3A13.09,13.09,0,0,0,11.86,29a2.65,2.65,0,0,1-.53.66c-.51.41-.9.25-1.1-.38A5.6,5.6,0,0,1,10.1,28c-.69.42-1.48.57-1.87,1.4a2.05,2.05,0,0,1-1.39.93,1.27,1.27,0,0,1-1.49-.9c-.09-.31-.13-.64-.21-1C4.69,29,4.29,29.5,3.85,30c-.29.35-.6.81-1.11.64s-.6-.75-.69-1.24A6.07,6.07,0,0,1,2,28.55Zm4.68-2.17a7.44,7.44,0,0,0-.93,2.51A.83.83,0,0,0,6.47,30c.62.13,1.64-.77,1.67-1.4A.25.25,0,0,0,8,28.31,2.32,2.32,0,0,1,6.72,26.38Zm6.17,3.53a8.1,8.1,0,0,0-1.85,3c-.16.49-.11,1,.39,1.13s.67-.31.81-.62A7,7,0,0,0,12.89,29.91Zm-12.16-2c0,.35,0,.52,0,.69a.33.33,0,0,0,.19.35.31.31,0,0,0,.38-.13c.45-.58,1-1.1.89-1.95,0-.2,0-.39-.24-.53a.51.51,0,0,0-.64.13A1.91,1.91,0,0,0,.73,27.89Zm7.76-1c0-.26-.08-.5-.12-.73s-.16-.52-.46-.57a.65.65,0,0,0-.59.33,1.25,1.25,0,0,0,.12,1.63c.18.26.44.55.74.48s.15-.45.2-.69ZM3.11,25a3.93,3.93,0,0,0,1.08-2.84c0-.13.07-.31-.12-.36s-.3.13-.36.28A8.84,8.84,0,0,0,3.11,25Z"/><path class="cls-1" d="M38.13,29.17c-.21-.14-.18-.28-.06-.48A6,6,0,0,0,39,26c0-.26,0-.57.43-.49s.32.41.28.7a8.76,8.76,0,0,0-.12,2.89c.1.46.36.46.55.2a6.15,6.15,0,0,0,1.49-3.27c0-.21-.11-.53.29-.53s.45.3.41.6c-.07.61-.14,1.22-.24,1.83a3,3,0,0,0,0,.95,11.19,11.19,0,0,0,.84-2.08,4.75,4.75,0,0,1,.71-1.38c.38-.48.74-.45,1,.11a2.28,2.28,0,0,1,0,1.48c-.14.67-.34,1.33-.48,2,0,.24-.15.61.08.72s.43-.23.55-.44c.37-.66.71-1.34,1.08-2s.73-1.5,1.6-1.84a1.18,1.18,0,0,1,1.15.17c-1.21.12-1.79.76-2,2.22a4.11,4.11,0,0,1-.13.7.51.51,0,0,0,.2.64c.23.1.37-.17.49-.34a9.78,9.78,0,0,0,1.14-2.37c.07-.23.1-.52.4-.51s.14.34.2.52c.23.62,0,1.32.31,2a23,23,0,0,1,2.45-1.74c-.2.51-.6.6-.84.85a5.08,5.08,0,0,1-.59.4A2.18,2.18,0,0,0,49.2,30.1a6.89,6.89,0,0,1-.69,3.61c-.41.83-.92,1-1.59.65a1.2,1.2,0,0,1-.48-1.77,14.83,14.83,0,0,1,1.8-2.91c.63-.67.22-1.5.13-2.29a18.84,18.84,0,0,1-1,1.71c-.23.33-.48.82-1,.7s-.52-.66-.61-1.09c0-.07,0-.15,0-.37-.33.53-.57,1-.86,1.37s-.45.7-.91.47a.88.88,0,0,1-.42-1,19.61,19.61,0,0,1,.56-2.5,3.77,3.77,0,0,0,.06-1.27,2.53,2.53,0,0,0-1,1.54c-.3.85-.59,1.71-.92,2.55-.07.19-.12.52-.45.46a.61.61,0,0,1-.46-.58,2.72,2.72,0,0,1,.11-1.3,7.12,7.12,0,0,0-1,1.35,1.92,1.92,0,0,1-.54.56c-.51.3-.86.17-1-.41a5.55,5.55,0,0,1-.13-.71c0-.21,0-.42,0-.76a2.63,2.63,0,0,0-.65,1.09Zm10.49.72A6.76,6.76,0,0,0,46.71,33c-.11.34-.17.81.31,1s.69-.16.88-.53A8,8,0,0,0,48.62,29.89Z"/><path class="cls-1" d="M57.74,24.41c.21-.4.59-.5.83-.76a1.25,1.25,0,0,0,.26-1.39.88.88,0,0,0-.89-.49c-.58,0-.81.43-1,.89-.42,1.2-.11,1.83,1.42,2.7a2.49,2.49,0,0,0-2.48,1.1,2.1,2.1,0,0,0,.41,3.06,1.18,1.18,0,0,0,1.27.1,2.35,2.35,0,0,0,1-1.42c.07-.28-.18-.19-.32-.25-.35-.13-.83,0-1.06-.6a4.65,4.65,0,0,0,3.64-.4,1.25,1.25,0,0,1-.9.74,1.4,1.4,0,0,0-1,.88c-.75,1.5-1.83,1.94-2.95,1.24a2.41,2.41,0,0,1-.69-3.64,3.17,3.17,0,0,1,1.06-.94c.41-.22.37-.43.15-.77a1.93,1.93,0,0,1,0-2.5,1.51,1.51,0,0,1,1.73-.47,1.22,1.22,0,0,1,1,1,1.53,1.53,0,0,1-.67,1.55A1.24,1.24,0,0,1,57.74,24.41Z"/><path class="cls-1" d="M82.13,5.79c.35.12.77.21.79.72a.48.48,0,0,1-.53.53.79.79,0,0,1-.86-.67C81.47,5.93,81.79,5.87,82.13,5.79Z"/><path class="cls-1" d="M109.57,5.79c.38.07.71.22.73.7s-.25.51-.56.48-.83-.19-.84-.7S109.22,5.81,109.57,5.79Z"/><path class="cls-1" d="M84.87,24.49c-.24,0-.42-.12-.43-.37a.28.28,0,0,1,.31-.3.44.44,0,0,1,.42.4C85.21,24.43,85.05,24.5,84.87,24.49Z"/><path class="cls-1" d="M32.4,24.59c-.14-.06-.37-.14-.38-.39s.17-.28.36-.26a.37.37,0,0,1,.36.43C32.72,24.51,32.67,24.67,32.4,24.59Z"/><path class="cls-1" d="M39.21,24.23c0-.18.14-.3.33-.29a.45.45,0,0,1,.46.36.28.28,0,0,1-.31.31A.58.58,0,0,1,39.21,24.23Z"/><path class="cls-1" d="M77.64,24.5c-.17-.08-.42-.11-.42-.38a.26.26,0,0,1,.32-.28.38.38,0,0,1,.37.42C77.9,24.44,77.81,24.5,77.64,24.5Z"/><path class="cls-1" d="M142.33,19.72a14.37,14.37,0,0,1-.38,3.43,2.62,2.62,0,0,1-2.65,2.13c-1.16,0-1.8-.55-2.19-2.05a13.52,13.52,0,0,1,.25-8.18c.44-1.22,1.37-1.68,2.9-1.55a2.22,2.22,0,0,1,1.78,2A12.9,12.9,0,0,1,142.33,19.72Zm-4-.23a12.2,12.2,0,0,0,.22,3.08c.22.8.45,1.93,1.33,1.91s1.41-1.07,1.62-1.94a15.18,15.18,0,0,0,.13-6.47c-.16-.88-.41-2-1.48-2s-1.31,1.1-1.53,2A14.8,14.8,0,0,0,138.31,19.49Z"/><path class="cls-1" d="M179.09,19.59a15.5,15.5,0,0,1,1.52-.87,1.06,1.06,0,0,1,1.56.77,6.19,6.19,0,0,1-.11,4,2.41,2.41,0,0,1-2.83,1.7A2.48,2.48,0,0,1,177.51,23a12.62,12.62,0,0,1,2.15-8.66,1.21,1.21,0,0,1,.41-.43c.33-.21.7-.53,1.08-.17s0,.63-.17.89A12.57,12.57,0,0,0,179.09,19.59ZM179,22.16c0,.48.06.74.08,1,.05.6,0,1.31.8,1.42a1.44,1.44,0,0,0,1.53-1.05,5.8,5.8,0,0,0,.35-3.44c-.15-.79-.64-1-1.3-.55C179.48,20.22,178.66,21,179,22.16Z"/><path class="cls-1" d="M194.22,16.19a20.31,20.31,0,0,1-1.35,7.62,7.49,7.49,0,0,1-.44.9c-.2.38-.44.7-.94.44s-.35-.61-.21-.95a33.29,33.29,0,0,0,1-3.26c.19-.61.33-1.07-.67-1a1.88,1.88,0,0,1-1.89-1.73,4.88,4.88,0,0,1,1-4,2.07,2.07,0,0,1,1.37-.78,1.6,1.6,0,0,1,2,1.67Zm-1.48.55c0-.84,0-1.41,0-2,0-.75-.39-.81-1-.46a3.51,3.51,0,0,0-1.09,4.36c.21.37.38.82,1,.68s1-.43,1-1.06S192.72,17.07,192.74,16.74Z"/><path class="cls-1" d="M160.21,17.81l-.3,6.51c0,.4.05.89-.51.93s-.73-.4-.8-.85a31.61,31.61,0,0,1,0-3.51c0-1.25-.09-1.3-1.32-1.25-1.41.06-1.56-.08-1.48-1.5a14,14,0,0,0,0-3.1c-.05-.27,0-.58.36-.58s.47.2.48.52c0,1,.06,2.07.07,3.11,0,.58,0,1,.84,1s1.13-.2,1.17-1c.06-1.23.16-2.47.26-3.7,0-.33-.12-.84.43-.85s.82.46.84.94c0,1.1,0,2.2,0,3.3Z"/><path class="cls-1" d="M200.3,17.4c0,2.28-.46,4.53-.39,6.81,0,.41.11,1-.54,1s-.76-.52-.76-1c0-1.14-.05-2.28,0-3.41s-.4-1.26-1.28-1.22c-1.6.07-1.62,0-1.55-1.57a22,22,0,0,0,.08-2.81c0-.29-.17-.78.36-.76s.46.43.46.78c0,1,.05,1.94,0,2.91,0,.55,0,.94.72.89s1.28.19,1.32-.78c.05-1.27.13-2.54.22-3.81,0-.35-.16-.92.49-.89s.78.48.8,1C200.32,15.46,200.3,16.43,200.3,17.4Z"/><path class="cls-1" d="M188.22,18c-.1,2.07-.18,4.14-.3,6.21,0,.38.16,1-.48,1s-.83-.54-.84-1.07a27.26,27.26,0,0,1,0-3.5c.11-1-.44-1.11-1.19-1.08-1.66.07-1.65.07-1.58-1.62,0-.93,0-1.87,0-2.8,0-.28-.13-.71.3-.72s.48.39.5.74c0,1,.07,1.93.08,2.9,0,.48-.12,1,.64.93.59,0,1.3.18,1.32-.85,0-1.26.13-2.53.25-3.8,0-.29-.18-.83.43-.82a.8.8,0,0,1,.82.85c0,1.2,0,2.4,0,3.61Z"/><path class="cls-1" d="M154.14,18.07c-.12,2-.24,4.13-.38,6.3,0,.36.12.9-.5.91s-.57-.48-.68-.93a17.24,17.24,0,0,1-.06-3.59c0-.9-.31-1.16-1.17-1.13-1.63.07-1.63,0-1.59-1.63,0-.94,0-1.87,0-2.81,0-.28-.14-.66.3-.72s.55.36.57.67c0,1,0,2,0,3,0,.53,0,1,.76,1,.62,0,1.19.09,1.22-.85,0-1.26.18-2.53.29-3.79,0-.33-.18-.87.38-.87a.84.84,0,0,1,.82,1Z"/><path class="cls-1" d="M143.65,14.52c1.38-.3,2.63-.63,3.9-.83.85-.12,1.16.46.76,1.32A37,37,0,0,0,146,22.26c-.15.65-.2,1.32-.34,2-.07.36,0,.9-.62.84s-.7-.55-.65-1a21.92,21.92,0,0,1,.69-4,38.31,38.31,0,0,1,1.47-4.59c.28-.66.16-.9-.64-.75S144.44,15.41,143.65,14.52Z"/><path class="cls-1" d="M162.29,23.85a32.24,32.24,0,0,1,2.05-8.13c.12-.31.47-.7.16-1s-.63,0-.95.07a2.9,2.9,0,0,1-1.57.09.47.47,0,0,1-.25-.27c0-.15.12-.21.26-.23l3.22-.69c.37-.08.75-.13,1,.23a1,1,0,0,1,0,1.13,35.28,35.28,0,0,0-2.61,9c-.06.41,0,1.07-.7,1S162.2,24.4,162.29,23.85Z"/><path class="cls-1" d="M172.26,24a33.56,33.56,0,0,1,2-8.25c.13-.33.46-.72.2-1s-.68.06-1,.1c-.58.05-1.51.41-1.62-.11s.86-.37,1.34-.54a9.21,9.21,0,0,1,2.14-.48c.9-.1,1.27.42.9,1.24a34.84,34.84,0,0,0-2.71,9.21c-.05.36,0,1-.64.91S172.19,24.47,172.26,24Z"/><path class="cls-1" d="M202.9,15.77c-.46.21-.62,1.08-1.08.75s.22-.78.43-1.16.55-.92.84-1.37.43-.73.92-.6.52.6.5,1.06q-.19,3.9-.36,7.8c0,.67,0,1.34,0,2,0,.33,0,.77-.42.78a.82.82,0,0,1-.8-.64,5.2,5.2,0,0,1-.11-1.3c.06-2.07.15-4.14.23-6.21A1.67,1.67,0,0,0,202.9,15.77Z"/></g></g></svg>