<?xml version="1.0" encoding="utf-8"?>
<!-- Generator: Adobe Illustrator 22.1.0, SVG Export Plug-In . SVG Version: 6.00 Build 0)  -->
<svg version="1.1" id="Helen_Marinakis_text_xA0_Image_1_"
	 xmlns="http://www.w3.org/2000/svg" xmlns:xlink="http://www.w3.org/1999/xlink" x="0px" y="0px" viewBox="0 0 218.8 36.6"
	 style="enable-background:new 0 0 218.8 36.6;" xml:space="preserve">
<style type="text/css">
	.st0{clip-path:url(#SVGID_2_);}
	.st1{clip-path:url(#SVGID_4_);}
	.st2{clip-path:url(#SVGID_6_);}
	.st3{clip-path:url(#SVGID_8_);}
</style>
<g>
	<g>
		<path d="M107.6,14c0.4-1.2,0.7-2.4,1.5-3.3c0.5-0.5,1-0.6,1.6-0.2c0.5,0.3,0.7,0.9,0.5,1.4c-0.3,0.9-0.9,1.5-1.8,1.8
			c-0.2,0.1-0.4,0.1-0.3,0.4c0.3,0.9,0.5,1.7,1.1,2.5c0.4,0.6,0.9,0.7,1.3,0.1c1-1.5,2.2-2.8,2.2-4.8c0-0.4,0.1-0.8,0.1-1.2
			c0.1-0.6,0.3-0.8,0.9-0.7c0.7,0.1,0.5,0.5,0.4,0.9c-0.3,1.5-0.4,2.9-0.4,4.4c0,0.3,0,0.5,0.1,0.8c0.1,0.3,0.1,0.7,0.4,0.8
			c0.4,0,0.6-0.3,0.8-0.6c0.6-0.8,1-1.8,1.5-2.7c0.1-0.3,0.2-0.5,0.1-0.8c-0.3-1.4,0.5-2.5,1.7-2.5c0.9,0,1.5,0.7,1.3,1.6
			c0,0.1-0.1,0.3-0.2,0.2c-0.1,0-0.2-0.1-0.2-0.3c0,0,0-0.1,0-0.1c-0.1-0.8-0.4-1.1-0.9-1.1c-0.5,0.1-0.9,0.7-0.8,1.3
			c0.3,1,0.7,1.9,1.1,2.8c0.2,0.4,0.4,0.2,0.6,0c1-0.7,2-1.4,2.7-2.5c0.4,0.4,0,0.7-0.1,0.9c-0.6,0.8-1.4,1.4-2.2,1.8
			c-0.5,0.3-0.6,0.6-0.5,1.2c0.3,1.1,0.1,2.2-0.4,3.2c-0.3,0.6-0.8,0.9-1.3,0.8c-0.6-0.1-0.9-0.6-1-1.3c0-1.2,0.4-2.1,1.2-2.9
			c0.3-0.3,0.4-0.6,0.2-1c-0.2-0.4-0.4-0.8-0.7-1.3c-0.7,0.6-0.8,1.5-1.2,2.2c-0.4,0.6-0.8,1.1-1.4,1.6c-0.9,0.6-1.5,0.4-1.8-0.6
			c-0.2-0.8-0.2-1.5-0.3-2.5c-0.5,0.8-1,1.4-1.4,2.1c-0.1,0.2-0.2,0.3-0.3,0.5c-1,1-1.6,0.9-2.4-0.3c-0.4-0.7-0.7-1.5-1.1-2.3
			c-0.7,1.3-0.2,2.7-0.1,4c-1.2-1.1-1.2-2.6-1.6-4.1c-0.7,1-1.2,1.9-1.9,2.8c-0.3,0.4-0.7,0.8-1.1,1.1c-0.4,0.4-0.9,0.5-1.4,0.3
			c-0.5-0.2-0.6-0.7-0.7-1.2c-0.1-0.5-0.1-1-0.1-1.5c-0.4,0.2-0.5,0.6-0.7,0.9c-0.1,0.1-0.1,0.2-0.2,0.2c-0.6,0.6-1.1,1.3-2.1,1
			c-0.9-0.3-0.8-1.2-1-1.9c0-0.1,0-0.2-0.1-0.3c-0.4,0.6-0.8,1.2-1.2,1.7c-0.3,0.5-0.8,0.7-1.4,0.5c-0.6-0.2-0.7-0.7-0.7-1.3
			c0-1.4,0.4-2.8,0.7-4.2c0.2-0.7,0.4-1.5,0.4-2.2c0-0.2,0.1-0.5-0.2-0.6c-0.3-0.1-0.4,0.1-0.5,0.3c-0.5,0.7-0.9,1.6-1.2,2.4
			c-0.5,1.4-1,2.9-1.5,4.3c-0.1,0.3-0.2,0.8-0.6,0.8c-0.5,0-0.7-0.3-0.9-0.8c-0.1-0.5,0-1.1-0.1-1.7c-0.4,0.6-0.8,1.2-1.2,1.7
			c-0.5,0.6-0.9,1.3-1.8,1.1c-0.8-0.2-0.9-1-0.9-1.7C86.1,15.6,86,15,86,14.3c-0.5,0.4-0.7,0.9-1.1,1.4c-0.6,0.8-1.3,1.7-2.1,2.4
			c-0.7,0.6-1.4,0.8-2,0.4c-0.7-0.5-0.7-1.3-0.6-2c0.2-1.4,0.6-2.7,1.2-4c0.3-0.7,0.7-1.4,0.6-2.2c0-0.2,0-0.4-0.1-0.5
			c-0.4-0.5-0.5-0.5-0.8,0c-1.2,2.2-2.1,4.6-3.5,6.6c-0.5,0.6-1,1.3-1.6,1.8c-0.4,0.3-0.8,0.6-1.4,0.5c-0.6-0.2-0.7-0.8-0.8-1.3
			c-0.1-0.5-0.1-1-0.1-1.6c-0.5,0.8-0.9,1.3-1.5,1.8c-1,0.8-1.7,0.7-2.3-0.4c-0.1-0.1-0.1-0.2-0.2-0.3c-0.6,1.1-0.9,2.2-1.6,3.1
			c-0.6,0.9-1.2,0.9-1.9,0.1c-0.8-1-0.9-2.3-0.9-3.5c-0.1-2.6,0.3-5.2,0.7-7.8c0.2-1,0.2-2,0.2-3c0-0.3,0-0.6-0.3-0.7
			c-0.3-0.1-0.5,0.1-0.7,0.3c-1.1,1-1.8,2.4-2.7,3.6c-0.9,1.3-0.8,2.8-1,4.3c-0.1,0.9,0,1.8,0,2.7c0,0.2,0,0.5-0.2,0.5
			c-0.3,0-0.5-0.1-0.6-0.3c-0.2-0.4-0.3-0.9-0.3-1.4c0-2.1,0.2-4.2,0.5-6.3c0.3-1.9,0.5-3.8,0.7-5.7c0-0.3,0.1-0.6-0.1-0.8
			C61.3,1.5,61,1.7,60.7,2c-0.9,1.1-1.4,2.4-1.9,3.7c-1.3,3.3-2.2,6.6-3.2,10c0,0.2-0.1,0.3-0.1,0.5c0,0.1-0.1,0.2-0.2,0.2
			c-0.2,0-0.3-0.1-0.3-0.2c-0.1-0.3-0.2-0.7-0.2-1c0-2.1-0.3-4.1-0.1-6.2c0.1-1.2,0.2-2.4,0.3-3.6C55,5,55,4.7,55.4,4.7
			c0.4,0,0.8,0.1,0.8,0.7C56.2,6.3,56.1,7.1,56,8c-0.1,1.5-0.3,3.1-0.1,4.6c0.5-0.9,0.6-1.8,0.9-2.7c0.8-2.4,1.5-4.8,2.7-7
			c0.2-0.3,0.5-0.7,0.7-1c0.3-0.5,0.8-0.7,1.4-0.6c0.6,0.1,0.9,0.6,1,1.1c0.3,0.8,0.2,1.7,0.1,2.6c-0.1,1-0.3,1.9-0.3,2.9
			c0.7-0.9,1.2-1.8,2-2.5c0.1-0.1,0.2-0.2,0.4-0.3c1.2-1,2.1-0.7,2.5,0.9c0.3,1.3,0,2.7-0.1,4c-0.1,1.7-0.4,3.5-0.5,5.2
			c-0.1,1.4-0.2,2.7,0,4.1c0.1,0.3,0.1,0.7,0.4,0.8c0.4,0.1,0.5-0.3,0.7-0.5c0.9-1.5,1.7-3.1,2-4.9c0.2-1.3,0.6-2.5,1.5-3.5
			c0.9-1,1.7-1.2,2.8-0.4c0.1,0.1,0.2,0.3,0.5,0.1c0.6-0.3,0.9,0.1,0.8,0.8c-0.3,1.8-0.6,3.7-0.5,5.5c0,0.3-0.1,0.7,0.3,0.8
			c0.4,0.1,0.6-0.2,0.8-0.4c1.3-1.3,2.3-2.9,3-4.6c0.5-1.1,1.1-2.2,1.7-3.3C81,9.1,81,8.7,80.7,8.3c-0.3-0.3-0.4-0.7-0.4-1.1
			c0-0.4,0.1-0.7,0.5-0.8c0.4-0.1,0.7,0.2,0.8,0.5c0.2,0.5,0.2,0.9,0.1,1.4c0,0.4,0,0.6,0.3,0.9c1,0.8,1,1.7,0.6,2.8
			c-0.6,1.5-1,3.1-1.3,4.7c0,0,0,0.1,0,0.1c0,0.4-0.1,1,0.3,1.2c0.4,0.2,0.9-0.1,1.2-0.4c1.2-1.3,2.2-2.7,3.1-4.3
			c0.4-0.8,0.2-1.7,0.4-2.6c0.1-0.5,0.1-0.9,0.7-0.8c0.6,0.1,0.7,0.3,0.6,0.9c-0.3,1.6-0.4,3.2-0.3,4.9c0,0,0,0.1,0,0.1
			c0,0.4,0,0.9,0.4,1c0.4,0.2,0.7-0.3,0.9-0.6c1-1.5,1.9-3,1.8-4.9c0-0.2,0-0.5,0-0.7c0.1-0.4,0-0.8,0.6-0.7
			c0.5,0.1,0.7,0.3,0.6,0.8c-0.2,1.5-0.3,2.9-0.5,4.4c0,0.2,0,0.5,0,0.8c0.4-0.4,0.5-0.8,0.6-1.2c0.5-1.5,0.9-2.9,1.6-4.3
			c0.1-0.3,0.3-0.5,0.5-0.7c0.3-0.4,0.5-0.7,1.1-0.6c0.5,0.1,0.7,0.6,0.9,1c0.3,1,0,1.9-0.2,2.9c-0.3,1.1-0.4,2.2-0.7,3.4
			c0,0.1,0,0.3,0,0.4c0,0.2,0.1,0.4,0.2,0.4c0.2,0.1,0.4-0.1,0.5-0.2c0.8-1,1.4-2.1,1.8-3.3c0.3-0.9,0.6-1.8,1.1-2.6
			c0.8-1.2,1.7-1.4,3-0.7c0.2,0.1,0.3,0.2,0.6,0.2c0.6-0.1,0.8,0.2,0.7,0.8c-0.3,1.8-0.6,3.6-0.5,5.5c0,0.3,0,0.7,0.3,0.8
			c0.3,0.1,0.6-0.2,0.8-0.4c0.6-0.5,1-1.1,1.4-1.8c0.3-0.5,0.7-1,1-1.5c0.3-0.5,0.4-1.1,0.4-1.8c-0.1-2.7,0.3-5.4,1.5-7.9
			c0.2-0.5,0.6-1,0.9-1.4c0.4-0.4,0.8-0.8,1.4-0.4c0.5,0.3,0.7,0.8,0.6,1.4c-0.3,1.6-1,3.1-2,4.2c-1.4,1.5-1.4,3.1-1.4,4.9
			C107.4,13.7,107.4,13.7,107.6,14z M70.9,15.9c0,0.6-0.1,1.2,0.4,1.4c0.5,0.2,0.8-0.3,1.1-0.6c0.1-0.1,0.1-0.2,0.2-0.2
			c1-1.2,1.4-2.6,1.6-4.2c0.1-0.6,0.1-1.1-0.5-1.3c-0.6-0.3-1,0.2-1.3,0.6C71.5,12.9,71.1,14.5,70.9,15.9z M98.4,16
			c0,0.5,0,1.1,0.4,1.2c0.4,0.2,0.8-0.3,1-0.6c1.2-1.3,1.7-2.9,1.9-4.7c0.1-0.5-0.1-0.9-0.5-1.1c-0.4-0.2-0.8,0-1.1,0.4
			C99,12.7,98.6,14.3,98.4,16z M107.8,8.7c1.2-1.4,2.2-2.8,2.5-4.6c0-0.3,0.2-0.7-0.1-0.8c-0.4-0.1-0.6,0.2-0.8,0.5
			C108.4,5.3,108.1,7,107.8,8.7z M119.1,16.3c-0.9,0.6-1.5,2.1-1.2,3c0.1,0.5,0.4,0.5,0.7,0.2c0.2-0.2,0.3-0.4,0.4-0.7
			C119.3,17.9,119.2,17.1,119.1,16.3z M110.2,11.2c0-0.2,0-0.3-0.2-0.3c-0.2-0.1-0.4,0-0.5,0.1c-0.5,0.5-0.6,1.1-0.9,1.7
			c0,0.1-0.2,0.3,0,0.4c0.1,0.1,0.3,0,0.4,0C109.7,12.6,110,12,110.2,11.2z M81.2,8.2c0.1-0.4,0.1-0.7,0-1.1c0-0.2-0.2-0.4-0.5-0.3
			c-0.2,0.1-0.3,0.3-0.2,0.5C80.8,7.6,80.9,8,81.2,8.2z"/>
		<path d="M42.8,14.3c-0.7,0.9-1.3,1.7-2.1,2.4c-0.6,0.6-1.3,1-2.2,1.2c-1.4,0.3-2.6-0.7-2.8-2.4c0-0.2,0-0.4,0-0.7
			c-0.7,0.7-1.1,1.4-1.7,2.1c-0.5,0.5-1,0.9-1.7,1.2c-0.7,0.3-1.4,0.1-1.8-0.6c-0.5-0.8-0.7-1.6-0.7-2.5c0-0.3,0-0.5-0.2-0.8
			c-0.8,1.1-1.6,2.2-2.7,3c-0.9,0.6-1.7,1-2.9,0.6c-0.9-0.3-1.2-1-1.4-1.8c-0.4-2.3,0.1-4.3,1.8-5.9c0.8-0.8,2.1-0.7,2.8,0
			c0.7,0.8,0.7,2,0,2.9c-0.8,0.9-1.8,1.4-2.9,1.6c-0.4,0.1-0.6,0.2-0.6,0.6c0,0.5,0.1,0.9,0.2,1.3c0.3,0.9,1.3,1.2,2.2,0.6
			c1.5-1,2.5-2.4,3.3-3.9c0.2-0.3,0.1-0.8,0.1-1.1C29.8,9,30.4,6,32,3.3c0.2-0.4,0.6-0.8,1-1.1c0.3-0.3,0.7-0.4,1.1-0.2
			c0.4,0.3,0.5,0.7,0.5,1.1c-0.2,1.5-0.8,2.8-1.4,4.2c-0.5,1.2-1.2,2.5-1.9,3.6c-0.1,0.2-0.2,0.4-0.2,0.6c0,1.6-0.1,3.2,0.4,4.7
			c0.5,1.4,1,1.5,2.1,0.5c1.2-1.2,2.1-2.5,2.6-4.1c0.3-0.9,0.7-1.6,1.3-2.3c1-1.1,2.4-1.2,3.2-0.3c0.8,0.9,0.6,2.5-0.5,3.4
			c-0.7,0.6-1.5,0.9-2.4,1c-0.6,0.1-0.7,0.4-0.6,0.9c0.1,0.4,0.1,0.8,0.3,1.2c0.3,0.7,0.9,1,1.6,0.7c1.2-0.4,1.9-1.4,2.6-2.3
			c0.2-0.2,0.3-0.5,0.6-0.7c1.1-1.1,0.8-2.5,0.9-3.7c0.1-0.4,0.2-0.6,0.6-0.6c0.4,0,0.8,0.1,0.7,0.7c-0.2,1.3-0.3,2.6-0.5,3.9
			c-0.1,0.5-0.1,0.9-0.1,1.6c0.6-0.8,0.7-1.7,1-2.4c0.5-1.2,0.8-2.5,1.6-3.7c0.3-0.4,0.6-1,1.2-0.9c0.7,0.2,0.9,0.8,1,1.5
			c0.1,1.4-0.3,2.7-0.6,4.1c-0.2,0.7-0.3,1.4-0.2,2.1c0,0.2-0.1,0.4,0.1,0.5c0.3,0.1,0.4-0.2,0.5-0.3c0.8-0.9,1.2-2,1.7-3
			c0.2-0.5,0.5-1,0.7-1.6c0.1-0.1,0.1-0.3,0.3-0.2c0.2,0.1,0.2,0.2,0.1,0.4c-0.8,1.7-1.5,3.4-2.7,4.9c-0.4,0.5-0.8,0.6-1.3,0.3
			c-0.5-0.2-0.6-0.6-0.6-1.1c-0.1-1.7,0.5-3.2,0.8-4.8c0.1-0.6,0.2-1.2,0.4-1.7c0-0.2,0-0.4-0.2-0.5C47.3,9.7,47.1,9.8,47,10
			c-0.7,0.8-0.9,1.7-1.3,2.6c-0.5,1.3-0.9,2.7-1.3,4c-0.2,0.4-0.2,1.1-0.9,0.9c-0.6-0.2-0.7-0.8-0.7-1.3
			C42.8,15.7,42.8,15.1,42.8,14.3z M40.8,11.4c-0.1-0.5-0.2-0.9-0.7-1.2c-0.5-0.2-0.8,0.1-1.1,0.4c-0.8,0.9-1.4,1.8-1.7,3
			c-0.1,0.4-0.1,0.7,0.4,0.4c0.1-0.1,0.3,0,0.4,0C39.5,13.7,40.7,12.6,40.8,11.4z M27.6,11.6c0-1.1-0.7-1.7-1.4-1.3
			c-1.2,0.8-1.7,2-2.1,3.3c-0.1,0.4,0.2,0.6,0.6,0.4c0.6-0.2,1.2-0.4,1.8-0.7C27.1,12.9,27.5,12.3,27.6,11.6z M31.2,9.7
			c0.1,0,0.1,0.1,0.2,0.1c0-0.1,0.1-0.2,0.1-0.3c0.6-1.1,1.2-2.3,1.7-3.4c0.4-1,0.9-1.9,0.9-3c0-0.2,0.1-0.4-0.2-0.5
			c-0.2-0.1-0.3,0.1-0.5,0.3c-0.1,0.1-0.2,0.2-0.2,0.4C32.2,5.3,31.7,7.5,31.2,9.7z"/>
		<path d="M98.8,28.4c-0.3,0.6-0.6,1.1-0.8,1.6c-0.3,0.4-0.6,1-1.2,0.9c-0.6-0.1-0.5-0.7-0.6-1.2c-0.4,0-0.4,0.4-0.6,0.6
			c-0.2,0.3-0.3,0.5-0.5,0.7c-0.2,0.2-0.5,0.3-0.8,0.2C94.1,31.3,94,31,94,30.7c-0.1-0.7,0.2-1.3,0.3-1.9c0.1-0.6,0.3-1.1,0.4-1.7
			c0-0.2,0.1-0.4-0.1-0.5c-0.2-0.1-0.4,0.2-0.4,0.3c-0.3,0.6-0.5,1.2-0.7,1.8c-0.2,0.6-0.4,1.3-0.6,1.9c-0.1,0.2-0.2,0.5-0.5,0.5
			c-0.3-0.1-0.4-0.3-0.4-0.6c0-0.3,0-0.7,0-1.1c-0.4,0.2-0.5,0.6-0.7,0.9c-0.4,0.5-0.7,1.2-1.3,1c-0.7-0.2-0.5-1-0.6-1.6
			c0-0.1,0-0.2,0-0.4c-0.5,0.5-0.8,1.1-1.1,1.6c-0.2,0.4-0.5,0.5-0.9,0.4c-0.4-0.1-0.5-0.4-0.5-0.8c0-1.1,0.5-2.2,0.7-3.3
			c0-0.2,0.2-0.5-0.1-0.6c-0.3-0.1-0.4,0.2-0.5,0.4c-0.6,1-0.8,2.1-1.2,3.2c-0.1,0.1-0.1,0.3-0.1,0.4c-0.1,0.3-0.2,0.5-0.6,0.4
			c-0.3-0.1-0.3-0.3-0.3-0.6c0-0.4,0-0.7,0-1.2c-0.5,0.3-0.6,0.8-0.9,1.2c-0.3,0.4-0.6,0.9-1.2,0.8C82,31.2,82,30.5,82,30
			c0-0.2,0-0.5,0-0.9c-0.5,0.7-1,1.3-1.4,1.8c0,0-0.1,0.1-0.1,0.1c-0.3,0.4-0.7,0.8-1.2,0.7c-0.5-0.2-0.5-0.7-0.5-1.2
			c0-0.1,0-0.1,0-0.3c-0.4,0.1-0.4,0.5-0.6,0.7c-0.3,0.3-0.7,0.6-1.1,0.4c-0.5-0.2-0.5-0.7-0.5-1.1c0-0.3,0-0.6,0-1.1
			c-0.6,0.8-1.1,1.4-1.7,2c-0.3,0.4-0.8,0.8-1.4,0.5c-0.6-0.3-0.5-1-0.4-1.5c0.2-0.8,0.6-1.7,0.8-2.5c0.1-0.2,0.2-0.5,0.2-0.7
			c0-0.2-0.1-0.5-0.3-0.6c-0.2-0.1-0.2,0.2-0.3,0.4c-0.8,1.4-1.7,2.8-2.6,4.1c-0.1,0.1-0.1,0.2-0.2,0.3c-0.3,0.3-0.7,0.6-1.1,0.5
			c-0.5-0.1-0.6-0.6-0.7-1c-0.3-1.2-0.1-2.5,0-3.7c0.1-0.5,0.2-1,0.2-1.5c0-0.3,0-0.5-0.4-0.3c-0.5,0.2-1,0.2-1.5,0.3
			c-0.4,0.1-0.7,0-1.1-0.3c1,0.1,1.9-0.3,2.8-0.3c0.4,0,0.4-0.3,0.4-0.6c0.1-0.4,0.2-0.8,0.3-1.2c0-0.1,0-0.4,0.3-0.3
			c0.2,0,0.3,0.2,0.2,0.4c0,0.3,0,0.6-0.1,0.9c-0.1,0.4,0,0.5,0.4,0.3c0.6-0.2,1.3-0.3,2-0.1c-0.1,0.2-0.2,0.2-0.4,0.2
			c-0.1,0-0.3,0-0.4,0c-1.3,0-1.7,0.3-1.9,1.5c-0.2,1.3-0.4,2.7-0.3,4c0,0.5,0,1.1,0.5,1.2c0.5,0.1,0.9-0.3,1.2-0.8
			c0.7-1.2,1.6-2.3,2.2-3.6c0.2-0.3,0.3-0.6,0-0.9c-0.1-0.1-0.2-0.3-0.2-0.5c0-0.3,0.1-0.6,0.5-0.6c0.4,0,0.5,0.3,0.5,0.6
			c-0.1,0.6-0.1,0.9,0.4,1.3c0.3,0.3,0.3,0.8,0.1,1.2c-0.3,0.9-0.7,1.8-0.8,2.7c0,0.3-0.1,0.7,0.2,0.8c0.4,0.2,0.6-0.2,0.8-0.4
			c0.9-1,1.6-2.2,2.4-3.3c0.6-0.8,1.7-1,2.5-0.4c0.2,0.2,0.2,0.5,0.1,0.7c-0.2,0.9-0.3,1.8-0.3,2.7c0,0.2-0.1,0.5,0.2,0.6
			c0.2,0.1,0.5-0.1,0.6-0.3c0.8-1.1,1.9-2.2,1.9-3.7c0-0.3,0.1-0.5,0.5-0.5c0.4,0.1,0.3,0.3,0.3,0.6c-0.2,0.9-0.3,1.8-0.2,2.8
			c0,0.2,0,0.4,0.2,0.5c0.2,0.1,0.4-0.1,0.5-0.3c0.7-0.9,1.4-1.8,1.4-3.1c0-0.3,0-0.5,0.4-0.5c0.4,0,0.3,0.3,0.3,0.5
			c0,0.8-0.3,1.6-0.1,2.5c0.3-0.4,0.4-0.8,0.5-1.2c0.2-0.6,0.4-1.3,0.8-1.8c0.2-0.3,0.4-0.5,0.7-0.4c0.3,0.1,0.4,0.4,0.5,0.7
			c0.2,0.8-0.2,1.4-0.3,2.2c0,0.1-0.1,0.3-0.1,0.4c-0.1,0.4-0.3,1.1,0,1.3c0.4,0.2,0.4-0.5,0.6-0.8c0.6-0.8,1.1-1.6,1.2-2.7
			c0-0.3,0-0.8,0.5-0.6c0.4,0.1,0.3,0.5,0.2,0.8c-0.1,0.8-0.3,1.6-0.2,2.4c0,0.3,0,0.7,0.3,0.8c0.3,0.1,0.5-0.2,0.6-0.5
			c0.6-0.9,1.2-1.8,1.2-2.9c0-0.2,0-0.6,0.4-0.5c0.4,0.1,0.4,0.4,0.3,0.7c-0.1,0.8-0.3,1.6-0.2,2.5c0.4-1,0.7-2,1.2-3
			c0.2-0.3,0.3-0.7,0.8-0.6c0.4,0.1,0.6,0.4,0.6,0.8c0.1,0.7-0.2,1.4-0.3,2.1c-0.1,0.5-0.3,0.9-0.2,1.4c0,0.1,0,0.3,0.1,0.4
			c0.2,0,0.3-0.1,0.3-0.2c0.3-0.6,0.7-1.2,1-1.8c0.3-0.5,0.5-1.1,0.9-1.6c0.5-0.8,1.3-0.9,2-0.5c-1-0.1-1.4,0.4-1.6,1.2
			c-0.2,0.6-0.4,1.2-0.4,1.9c0,0.2-0.1,0.4,0.1,0.4c0.2,0.1,0.3-0.1,0.5-0.2c0.5-0.7,0.8-1.5,1.2-2.3c0.1-0.2,0-0.6,0.4-0.6
			c0.4,0.1,0.3,0.4,0.3,0.7c0.1,0.5,0.1,1.1,0.2,1.7c0.8-0.6,1.5-1.1,2.4-1.7c-0.1,0.5-0.5,0.6-0.7,0.8c-0.1,0.1-0.2,0.1-0.3,0.2
			c-1,0.6-1.7,1.4-1.5,2.8c0.1,1.2-0.2,2.3-0.7,3.4c-0.3,0.5-0.7,0.7-1.3,0.6c-0.5-0.1-0.7-0.5-0.7-1.1c0-1,0.5-1.7,1-2.5
			c0.2-0.4,0.5-0.7,0.7-1C99.2,30.3,99,29.4,98.8,28.4z M98.9,31.1c-0.8,1-1.7,2-1.8,3.4c0,0.3-0.1,0.6,0.3,0.7
			c0.4,0.1,0.6-0.1,0.7-0.4C98.8,33.7,99.1,32.4,98.9,31.1z M77.2,30.2c0.1,0.3-0.1,0.6,0.2,0.7c0.4,0.1,0.5-0.2,0.7-0.4
			c0.6-0.7,1-1.6,1-2.5c0-0.3,0-0.6-0.3-0.6c-0.3-0.1-0.6,0-0.7,0.3C77.6,28.5,77.3,29.3,77.2,30.2z"/>
		<path d="M115.6,30.3c0.5-0.8,0.6-1.5,0.8-2.2c0.2-0.4,0.3-0.9,0.5-1.3c0.1-0.2,0.2-0.6,0.6-0.5c0.4,0.1,0.5,0.4,0.5,0.8
			c0,0.9,0,1.7-0.2,2.5c0.4-0.5,0.6-1.1,0.8-1.6c0.1-0.3,0.3-0.6,0.4-0.8c0.1-0.3,0.3-0.6,0.6-0.5c0.3,0.1,0.5,0.4,0.5,0.8
			c0,0.7-0.1,1.3-0.2,1.9c-0.1,0.4-0.2,0.9-0.3,1.3c-0.1,0.3,0,0.6,0.2,0.7c0.2,0.1,0.4-0.1,0.6-0.3c0.8-1,1.2-2.2,1.8-3.3
			c0.2-0.3,0.4-0.7,0.7-0.9c0.4-0.4,1.2-0.4,1.6-0.1c0.5,0.4,0.6,1.2,0.2,1.7c-0.4,0.5-0.9,0.9-1.6,0.9c-0.4,0-0.7,0.1-0.7,0.6
			c0.1,0.5,0.2,1,0.8,1.1c0.2,0,0.4,0,0.6-0.1c1.1-0.7,1.8-1.6,2.2-2.9c0.2-0.7,0.6-1.1,1.2-1c0.5,0.1,0.7,0.5,0.5,1
			c-0.1-0.1-0.1-0.2-0.1-0.3c-0.1-0.4-0.3-0.5-0.6-0.4c-0.3,0-0.4,0.3-0.4,0.6c0,0.7,0.4,1.1,0.6,1.7c0.1,0.2,0.2,0.1,0.3,0
			c0.6-0.3,1.1-0.8,1.5-1.4c0,0.5-0.1,0.7-0.6,1.1c-0.7,0.5-1.2,0.9-1,1.9c0.1,0.3,0,0.8-0.2,1.1c-0.2,0.5-0.6,0.7-1.1,0.4
			c-0.4-0.2-0.7-0.6-0.5-1.1c0.1-0.4,0.4-0.8,0.7-1.1c0.2-0.2,0.4-0.4,0.2-0.8c-0.1-0.3-0.2-0.7-0.5-0.8c-0.4-0.1-0.4,0.4-0.6,0.6
			c-0.3,0.4-0.7,0.8-1,1.1c-0.5,0.5-1,1-1.8,0.7c-0.8-0.2-1-1-1.1-1.7c-0.4,0.5-0.7,1.1-1,1.5c-0.3,0.4-0.6,0.7-1.1,0.5
			c-0.5-0.2-0.6-0.6-0.6-1.1c0-0.9,0.4-1.8,0.5-2.7c0-0.3,0.1-0.5,0-0.9c-0.5,0.7-0.8,1.4-1.1,2.2c-0.1,0.3-0.3,0.6-0.4,0.8
			c-0.2,0.2-0.1,0.9-0.6,0.7c-0.4-0.2-0.4-0.7-0.3-1.1c0.2-1,0.5-1.9,0.4-3.1c-0.6,0.7-0.7,1.4-0.9,2c-0.2,0.5-0.3,1.1-0.5,1.6
			c-0.1,0.3-0.3,0.7-0.7,0.6c-0.3-0.1-0.4-0.4-0.4-0.7c0-0.2,0-0.3-0.1-0.7c-0.4,0.6-0.8,1.1-1.1,1.5c0,0-0.1,0.1-0.1,0.1
			c-0.4,0.4-0.7,1.1-1.3,0.9c-0.6-0.2-0.5-0.9-0.6-1.6c-0.3,0.3-0.6,0.7-0.9,0.9c-0.7,0.6-1.3,0.3-1.4-0.6c-0.1-0.7,0.1-1.3,0.3-2.1
			c-0.9,0.6-1.6,1.1-2.2,1.7c-0.2,0.2-0.1,0.4-0.1,0.7c0,1.3-0.1,2.6-0.6,3.8c-0.4,1-1,1.4-1.6,1.1c-0.7-0.3-0.8-1.1-0.5-2
			c0.3-0.8,0.7-1.6,1.2-2.2c0.8-0.9,0.8-1.8,0.7-2.9c-0.3,0-0.3,0.4-0.4,0.6c-0.3,0.5-0.6,1-0.9,1.4c-0.2,0.2-0.4,0.4-0.7,0.3
			c-0.3-0.1-0.4-0.3-0.4-0.6c-0.2-1.3,0.1-2.4,1-3.3c0.5-0.5,1-0.5,1.8-0.2c-0.7,0-1.2,0.2-1.5,0.7c-0.3,0.5-0.5,1-0.5,1.5
			c0,0.4-0.4,1,0.1,1.2c0.5,0.2,0.7-0.5,0.9-0.9c0.3-0.6,0.5-1.2,0.8-1.8c0.1-0.2,0.1-0.4,0.3-0.4c0.3,0,0.3,0.3,0.3,0.4
			c0.1,0.5,0.1,1,0.1,1.4c0,0.5,0.2,0.7,0.6,0.3c0.8-0.8,2-1.2,2.6-2.2c0.3-0.4,0.7-0.5,1.2-0.3c0.3,0.1,0.5,0.3,0.8,0.3
			c0.5,0.1,0.3,0.5,0.2,0.8c-0.1,0.8-0.3,1.6-0.3,2.5c0,0.3-0.1,0.6,0.2,0.7c0.3,0.1,0.5-0.2,0.7-0.4c0.7-1.1,1.7-2,1.7-3.4
			c0-0.2,0.1-0.3,0.3-0.3c0.2,0,0.3,0.1,0.2,0.3c0,0.3,0,0.5-0.1,0.8C115.6,28.9,115.5,29.5,115.6,30.3z M110.2,30
			c0,0.3,0,0.4,0,0.5c0,0.2,0,0.4,0.1,0.5c0.2,0.1,0.3-0.1,0.4-0.2c1-0.7,1.3-1.7,1.4-2.8c0-0.3-0.1-0.5-0.3-0.6
			c-0.3-0.1-0.4,0.1-0.6,0.3C110.6,28.3,110.4,29.2,110.2,30z M106.7,31.1c-0.2,0.3-0.5,0.6-0.7,1c-0.5,0.7-0.8,1.4-1,2.2
			c-0.1,0.4,0.1,0.8,0.4,1c0.4,0.2,0.5-0.2,0.7-0.4C106.8,33.7,106.8,32.4,106.7,31.1z M124.6,27.5c0-0.2,0-0.5-0.3-0.6
			c-0.2-0.1-0.5-0.1-0.7,0.1c-0.5,0.5-0.9,1.1-1,1.8c0,0.1,0,0.2,0.1,0.3C123.5,29.3,124.6,28.3,124.6,27.5z M127.1,31.1
			c-0.1-0.2,0.1-0.5-0.2-0.6c-0.2,0-0.3,0.2-0.4,0.4c-0.2,0.4-0.4,0.8-0.3,1.3c0,0.1,0.3,0.1,0.3,0.1C127,32,127,31.5,127.1,31.1z"
			/>
		<path d="M43.4,30.4c-0.1,0.2-0.3,0.4-0.4,0.6c-0.2,0.3-0.5,0.7-0.9,0.5c-0.4-0.2-0.5-0.6-0.4-1.1c0.1-0.9,0.4-1.8,0.6-2.6
			c0-0.1,0.1-0.2,0.1-0.3c0-0.2,0.1-0.5-0.1-0.6c-0.3-0.1-0.4,0.2-0.5,0.4c-0.4,1.1-0.8,2.2-1.2,3.3c-0.1,0.3-0.1,0.8-0.6,0.7
			c-0.4-0.1-0.4-0.5-0.4-0.9c0-0.3,0-0.5,0.1-0.9c-0.4,0.5-0.7,1-1.1,1.4c-0.3,0.3-0.6,0.6-1,0.5c-0.5-0.1-0.5-0.6-0.5-1
			c0-0.3,0-0.6-0.1-1c-0.4,0.3-0.6,0.8-0.8,1.1c-0.3,0.4-0.6,0.7-0.9,1c-0.7,0.7-1.1,0.3-1.3-0.4c-0.1-0.2,0-0.5-0.1-0.8
			c-0.3,0.4-0.6,0.6-0.9,0.9c-0.2,0.2-0.5,0.4-0.8,0.3c-0.3-0.1-0.5-0.5-0.5-0.8c0-0.4,0-0.8,0-1.4c-0.5,0.7-1,1.2-1.4,1.7
			c-0.2,0.3-0.5,0.5-0.7,0.7c-0.3,0.2-0.5,0.3-0.8,0.2c-0.4-0.2-0.5-0.4-0.5-0.8c-0.1-0.5,0.1-0.9,0.2-1.4c0.3-0.7,0.5-1.5,0.8-2.2
			c0.1-0.2,0.1-0.4,0.1-0.5c-0.1-0.1-0.2-0.3-0.3-0.4c-0.1,0-0.2,0.2-0.3,0.3c-0.7,1.2-1.5,2.4-2.2,3.6c-0.2,0.3-0.4,0.6-0.7,0.9
			c-0.8,0.7-1.5,0.6-1.7-0.5c-0.2-0.9-0.2-1.7-0.1-2.6c0.1-0.9,0.1-1.8,0.3-2.7c0.1-0.4-0.2-0.4-0.5-0.3c-0.6,0.2-1.2,0.3-1.8,0.3
			c-0.3,0-0.5,0-0.7-0.4c1,0.3,1.9,0,2.8-0.2c0.3,0,0.3-0.2,0.4-0.5c0.1-0.6,0.2-1.2,0.5-1.8c0.5,0.2,0.4,0.6,0.3,1
			c-0.2,0.7,0.1,0.7,0.7,0.6c0.5-0.2,1.1-0.3,1.8,0.2c-0.9-0.1-1.5,0-2.1,0.2c-0.4,0.1-0.6,0.3-0.7,0.8c-0.2,1.4-0.4,2.8-0.4,4.3
			c0,0.3,0,0.5,0,0.8c0.1,0.3,0.1,0.7,0.4,0.8c0.4,0.1,0.7-0.1,0.9-0.4c0.9-1.4,1.7-2.8,2.6-4.2c0.3-0.5-0.1-0.8-0.2-1.1
			c-0.1-0.2-0.1-0.4,0-0.6c0.1-0.2,0.3-0.2,0.4-0.2c0.3,0,0.3,0.2,0.3,0.5c0,0.1,0.1,0.3,0.1,0.3c-0.2,0.4,0,0.7,0.3,1
			c0.3,0.3,0.4,0.7,0.2,1.1c-0.3,0.9-0.6,1.7-0.8,2.6c-0.1,0.4-0.2,0.9,0.1,1.1c0.4,0.2,0.7-0.3,0.9-0.6c0.9-1,1.6-2.1,2.4-3.2
			c0.6-0.8,1-0.9,1.7-0.4c0.3,0.2,1-0.1,0.8,0.7c-0.1,0.4-0.1,0.8-0.2,1.3c-0.1,0.6-0.1,1.2-0.1,1.8c0,0.1-0.1,0.4,0.1,0.4
			c0.2,0.1,0.3,0,0.4-0.2c0.9-1.1,1.9-2.1,2-3.6c0-0.1,0-0.2,0.1-0.4c0.1-0.2,0.1-0.5,0.4-0.4c0.4,0.1,0.3,0.3,0.3,0.6
			c-0.1,0.8-0.2,1.7-0.3,2.5c0,0.3,0,0.7,0.2,0.8c0.3,0.1,0.5-0.3,0.7-0.5c0.6-0.9,1.1-1.8,1.2-2.9c0-0.2-0.1-0.5,0.3-0.5
			c0.4,0.1,0.5,0.3,0.4,0.6c-0.2,0.5-0.1,1.1-0.2,1.6c-0.1,0.3,0,0.6,0,1.1c0.5-0.8,0.6-1.7,1-2.5c0.2-0.4,0.4-0.8,0.7-1.2
			c0.4-0.4,0.7-0.2,0.9,0.1c0.2,0.4,0.2,0.9,0.1,1.4c-0.2,0.8-0.3,1.7-0.5,2.5c0,0.1-0.1,0.4,0.1,0.4c0.2,0.1,0.3-0.1,0.4-0.3
			C42.9,30.6,43,30.3,43.4,30.4L43.4,30.4z M32,30.3c0,0.3-0.1,0.6,0.2,0.8c0.1,0.1,0.3,0,0.4-0.1c0.8-0.8,1.3-1.8,1.3-3
			c0-0.3,0-0.5-0.3-0.6c-0.3-0.1-0.5,0-0.7,0.2C32.5,28.5,32.1,29.3,32,30.3z"/>
		<path d="M15.5,11.6c1-0.6,1.9-1.3,2.9-1.5c1.2-0.3,1.8-0.9,1.7-2.2c-0.1-1.3,0.2-2.7,0.4-4c0-0.4,0-0.9,0.7-1
			c0.6-0.1,0.9,0.1,0.8,0.7c-0.4,3.2-0.9,6.4-1,9.6c-0.1,1.5,0,3,0.3,4.7c-0.8-0.7-0.8-1.5-1-2.2c-0.3-1.7-0.4-3.3-0.2-5
			c0-0.4,0-0.6-0.6-0.5c-1.3,0.4-2.4,0.9-3.5,1.8c-0.4,0.3-0.6,0.7-0.6,1.2c0,1.6,0,3.2,0.2,5c-1.1-1.2-0.8-2.8-1.3-4.1
			c-0.3,0.3-0.4,0.6-0.4,0.9c0,0.2-0.1,0.3-0.3,0.2c-0.2,0-0.3-0.2-0.2-0.4c0.1-0.5,0.3-1,0.6-1.4c0.3-0.4,0.4-0.8,0.4-1.3
			c0-2.8,0.3-5.5,0.6-8.2c0-0.5,0.2-0.8,0.7-0.9c0.6-0.1,0.8,0.1,0.7,0.7c-0.3,2.4-0.6,4.7-0.9,7.1C15.5,11.1,15.5,11.3,15.5,11.6z"
			/>
		<path d="M7.3,29.8c-0.3,0.3-0.5,0.4-0.6,0.5c-0.2,0.3-0.5,0.5-0.9,0.3c-0.4-0.1-0.6-0.5-0.6-0.9c0-0.7,0.1-1.3,0.5-1.9
			C6,27.4,6.4,27.1,7,27.2c0.5,0.1,0.5-0.1,0.5-0.4c0.2-1.2,0.4-2.3,1-3.4c0.2-0.3,0.3-0.8,0.7-0.6c0.4,0.1,0.4,0.6,0.4,1
			c-0.1,0.9-0.4,1.8-1,2.5C8.2,27,8.1,27.8,8,28.6c-0.1,0.8,0,1.5,0,2.3c0,0.3,0.1,0.5,0.3,0.6c0.2,0.1,0.4-0.1,0.5-0.3
			c0.9-1,1.6-2.1,2.2-3.3c0.2-0.4,0.3-1,1-0.7c0.1,0.1,0.2-0.1,0.2-0.1c0.4-0.3,0.7-0.8,1.3-0.5c0.7,0.3,0.7,0.9,0.8,1.5
			c0.1,0.5-0.3,0.9-0.1,1.4c0.8-0.2,1.2-0.8,1.6-1.5c0.4-0.7,0.9-1.2,1.7-1.3c0.3,0,0.5,0,0.6,0.2c-1.3,0.3-2.3,2-1.9,3.3
			c0,0.1,0,0.2,0.2,0.3c0.2,0,0.2-0.1,0.3-0.2c0.6-0.8,0.9-1.6,1.2-2.5c0.1-0.2,0.1-0.4,0.3-0.6c0.3,0.6,0.4,1.2,0.4,1.8
			c0,0.3-0.1,0.6,0.1,0.7c0.3,0.1,0.5-0.2,0.7-0.4c0.5-0.4,1-0.9,1.8-1.2c-0.5,0.7-1.1,0.9-1.6,1.3c-0.6,0.5-1,0.9-0.9,1.7
			c0.1,1.2-0.1,2.5-0.6,3.6c-0.3,0.8-0.9,1.2-1.5,0.9C16,35.5,15.7,34.9,16,34c0.3-0.9,0.8-1.8,1.4-2.5c0.8-0.9,0.7-1.8,0.6-3
			c-0.5,0.6-0.6,1.2-0.9,1.6c-0.2,0.2-0.3,0.5-0.5,0.7c-0.5,0.4-0.9,0.2-1.1-0.4c-0.1-0.4-0.1-0.8-0.1-1.3c-0.7,0.4-1.5,0.6-1.9,1.4
			c-0.3,0.5-0.8,0.8-1.4,0.9c-0.6,0.2-1.3-0.3-1.5-0.9c-0.1-0.3-0.1-0.6-0.2-1c-0.5,0.6-0.9,1.1-1.3,1.6c-0.3,0.3-0.6,0.8-1.1,0.6
			c-0.5-0.2-0.6-0.8-0.7-1.2C7.2,30.4,7.3,30.2,7.3,29.8z M12,27.6c-0.5,0.8-0.8,1.6-0.9,2.5c-0.1,0.5,0.1,1,0.7,1.1
			c0.6,0.1,1.6-0.8,1.7-1.4c0-0.2-0.1-0.2-0.2-0.3C12.4,29.2,12.1,28.5,12,27.6z M18.1,31.2c-0.8,0.9-1.5,1.9-1.9,3
			c-0.2,0.5-0.1,0.9,0.4,1.1c0.5,0.2,0.7-0.3,0.8-0.6C18,33.6,18.3,32.4,18.1,31.2z M6,29.2c0,0.3,0,0.5,0,0.7C6,30,6,30.1,6.2,30.2
			c0.2,0.1,0.3,0,0.4-0.1c0.4-0.6,1-1.1,0.9-1.9c0-0.2,0-0.4-0.2-0.5c-0.3-0.1-0.5,0-0.6,0.1C6,28.1,6,28.7,6,29.2z M13.7,28.1
			c0-0.3-0.1-0.5-0.1-0.7c-0.1-0.3-0.2-0.5-0.5-0.6c-0.3,0-0.4,0.1-0.6,0.3c-0.5,0.6-0.2,1.1,0.1,1.6c0.2,0.3,0.4,0.5,0.7,0.5
			c0.3-0.1,0.1-0.5,0.2-0.7C13.7,28.4,13.7,28.3,13.7,28.1z M8.3,26.3c0.7-0.8,1.2-1.7,1.1-2.8c0-0.1,0.1-0.3-0.1-0.4
			c-0.2,0-0.3,0.1-0.4,0.3C8.6,24.3,8.4,25.3,8.3,26.3z"/>
		<path d="M43.4,30.4c-0.2-0.1-0.2-0.3-0.1-0.5c0.5-0.8,0.9-1.7,0.9-2.7c0-0.3,0-0.6,0.4-0.5c0.4,0.1,0.3,0.4,0.3,0.7
			c-0.1,1-0.3,1.9-0.1,2.9c0.1,0.5,0.4,0.5,0.6,0.2c0.7-1,1.4-2,1.5-3.3c0-0.2-0.1-0.5,0.3-0.5c0.4,0,0.4,0.3,0.4,0.6
			c-0.1,0.6-0.1,1.2-0.2,1.8c0,0.3-0.1,0.6,0,1c0.4-0.7,0.6-1.4,0.8-2.1c0.2-0.5,0.4-1,0.7-1.4c0.4-0.5,0.7-0.4,1,0.1
			c0.2,0.5,0.2,1,0.1,1.5c-0.1,0.7-0.3,1.3-0.5,2c0,0.2-0.2,0.6,0.1,0.7c0.3,0.1,0.4-0.2,0.5-0.4c0.4-0.7,0.7-1.3,1.1-2
			c0.4-0.7,0.7-1.5,1.6-1.8c0.4-0.2,0.8-0.1,1.1,0.2c-1.2,0.1-1.8,0.8-2,2.2c0,0.2-0.1,0.5-0.1,0.7c-0.1,0.2,0,0.5,0.2,0.6
			c0.2,0.1,0.4-0.2,0.5-0.3c0.5-0.7,0.9-1.5,1.1-2.4c0.1-0.2,0.1-0.5,0.4-0.5c0.3,0,0.1,0.3,0.2,0.5c0.2,0.6,0,1.3,0.3,2
			c0.8-0.6,1.5-1.2,2.5-1.7c-0.2,0.5-0.6,0.6-0.8,0.9c-0.2,0.2-0.4,0.2-0.6,0.4c-0.7,0.5-1.2,1-1.1,2.1c0.1,1.2-0.1,2.5-0.7,3.6
			c-0.4,0.8-0.9,1-1.6,0.6c-0.7-0.4-0.9-1.1-0.5-1.8c0.6-1,1-2.1,1.8-2.9c0.6-0.7,0.2-1.5,0.1-2.3c-0.3,0.6-0.6,1.2-1,1.7
			c-0.2,0.3-0.5,0.8-1,0.7c-0.5-0.1-0.5-0.7-0.6-1.1c0-0.1,0-0.1,0-0.4c-0.3,0.5-0.6,1-0.9,1.4c-0.2,0.3-0.5,0.7-0.9,0.5
			c-0.4-0.2-0.5-0.6-0.4-1c0.1-0.9,0.3-1.7,0.6-2.5c0.1-0.4,0.1-0.8,0.1-1.3c-0.6,0.4-0.8,1-1,1.5c-0.3,0.9-0.6,1.7-0.9,2.5
			c-0.1,0.2-0.1,0.5-0.5,0.5c-0.3-0.1-0.4-0.3-0.5-0.6c0-0.4-0.1-0.8,0.1-1.3c-0.5,0.4-0.7,0.9-1,1.3c-0.2,0.2-0.3,0.4-0.5,0.6
			c-0.5,0.3-0.9,0.2-1-0.4c-0.1-0.2-0.1-0.5-0.1-0.7c0-0.2,0-0.4,0-0.8C43.7,29.7,43.5,30.1,43.4,30.4
			C43.4,30.4,43.4,30.4,43.4,30.4z M53.9,31.2c-0.9,0.9-1.6,1.9-1.9,3.1c-0.1,0.3-0.2,0.8,0.3,1c0.4,0.1,0.7-0.2,0.9-0.5
			C53.7,33.6,53.8,32.4,53.9,31.2z"/>
		<path d="M63,25.7c0.2-0.4,0.6-0.5,0.8-0.8c0.4-0.4,0.5-0.9,0.3-1.4c-0.1-0.4-0.5-0.5-0.9-0.5c-0.6,0-0.8,0.4-1,0.9
			c-0.4,1.2-0.1,1.8,1.4,2.7c-1.2-0.2-1.9,0.4-2.5,1.1c-0.7,0.8-0.7,2.4,0.4,3.1c0.4,0.3,0.9,0.3,1.3,0.1c0.5-0.3,0.9-0.8,1-1.4
			c0.1-0.3-0.2-0.2-0.3-0.2c-0.3-0.1-0.8,0-1.1-0.6c1.2,0.3,2.4,0.3,3.6-0.4c-0.3,0.5-0.6,0.7-0.9,0.7c-0.5,0.1-0.8,0.4-1,0.9
			c-0.8,1.5-1.8,1.9-3,1.2c-1.3-0.8-1.6-2.4-0.7-3.6c0.3-0.4,0.6-0.7,1.1-0.9c0.4-0.2,0.4-0.4,0.1-0.8c-0.6-1-0.6-1.8,0-2.5
			c0.5-0.6,1.1-0.6,1.7-0.5c0.5,0.1,0.9,0.5,1,1c0.1,0.7-0.2,1.2-0.7,1.6C63.6,25.5,63.4,25.7,63,25.7z"/>
		<path d="M87.4,7.1c0.4,0.1,0.8,0.2,0.8,0.7c0,0.3-0.2,0.6-0.5,0.5c-0.4,0-0.8-0.2-0.9-0.7C86.7,7.2,87,7.1,87.4,7.1z"/>
		<path d="M114.8,7.1c0.4,0.1,0.7,0.2,0.7,0.7c0,0.4-0.2,0.5-0.6,0.5c-0.4,0-0.8-0.2-0.8-0.7C114.1,7.1,114.5,7.1,114.8,7.1z"/>
		<path d="M90.1,25.8c-0.2,0-0.4-0.1-0.4-0.4c0-0.2,0.1-0.3,0.3-0.3c0.2,0,0.4,0.2,0.4,0.4C90.5,25.7,90.3,25.8,90.1,25.8z"/>
		<path d="M37.6,25.9c-0.1-0.1-0.4-0.1-0.4-0.4c0-0.2,0.2-0.3,0.4-0.3c0.3,0,0.4,0.2,0.4,0.4C38,25.8,37.9,25.9,37.6,25.9z"/>
		<path d="M44.5,25.5c0-0.2,0.1-0.3,0.3-0.3c0.2,0,0.4,0.1,0.5,0.4c0,0.2-0.1,0.3-0.3,0.3C44.7,25.9,44.5,25.7,44.5,25.5z"/>
		<path d="M82.9,25.8c-0.2-0.1-0.4-0.1-0.4-0.4c0-0.2,0.1-0.3,0.3-0.3c0.2,0,0.4,0.1,0.4,0.4C83.1,25.7,83.1,25.8,82.9,25.8z"/>
	</g>
</g>
<g>
	<g>
		<defs>
			<rect id="SVGID_1_" x="136.3" y="10.1" width="78.4" height="16.3"/>
		</defs>
		<clipPath id="SVGID_2_">
			<use xlink:href="#SVGID_1_"  style="overflow:visible;"/>
		</clipPath>
		<g class="st0">
			<defs>
				<rect id="SVGID_3_" x="136.3" y="10.1" width="78.4" height="16.3"/>
			</defs>
			<clipPath id="SVGID_4_">
				<use xlink:href="#SVGID_3_"  style="overflow:visible;"/>
			</clipPath>
			<g class="st1">
				<defs>
					<rect id="SVGID_5_" x="137.9" y="12.4" width="72.4" height="12.7"/>
				</defs>
				<clipPath id="SVGID_6_">
					<use xlink:href="#SVGID_5_"  style="overflow:visible;"/>
				</clipPath>
				<g class="st2">
					<defs>
						<rect id="SVGID_7_" x="137.9" y="12.4" width="72.4" height="12.7"/>
					</defs>
					<clipPath id="SVGID_8_">
						<use xlink:href="#SVGID_7_"  style="overflow:visible;"/>
					</clipPath>
					<path class="st3" d="M144,19.2c0,1.3-0.1,2.5-0.4,3.6c-0.4,1.5-1.4,2.3-2.8,2.3c-1.2,0-1.9-0.6-2.3-2.2
						c-0.8-2.9-0.8-5.8,0.3-8.7c0.5-1.3,1.5-1.8,3.1-1.7c0.9,0.1,1.7,0.9,1.9,2.1C144,16.2,144.3,17.7,144,19.2 M139.7,18.9
						c0,1.1,0,2.2,0.2,3.3c0.2,0.8,0.5,2,1.4,2c1,0,1.5-1.1,1.7-2.1c0.6-2.3,0.6-4.6,0.1-6.9c-0.2-0.9-0.4-2.1-1.6-2.1
						c-1.1,0-1.4,1.2-1.6,2.1C139.8,16.5,139.7,17.7,139.7,18.9"/>
					<path class="st3" d="M183.2,19c0.6-0.4,1.1-0.7,1.6-0.9c0.8-0.4,1.5,0,1.7,0.8c0.3,1.4,0.5,2.9-0.1,4.3c-0.6,1.5-1.5,2-3,1.8
						c-0.8-0.1-1.7-1.1-1.8-2.4c-0.4-3.4,0.5-6.4,2.3-9.2c0.1-0.2,0.3-0.3,0.4-0.5c0.4-0.2,0.7-0.6,1.2-0.2c0.4,0.3,0,0.7-0.2,0.9
						C184.2,15.3,183.5,17,183.2,19 M183.1,21.8c0,0.5,0.1,0.8,0.1,1.1c0,0.6,0,1.4,0.8,1.5c0.8,0.1,1.3-0.4,1.6-1.1
						c0.5-1.2,0.6-2.4,0.4-3.7c-0.2-0.8-0.7-1.1-1.4-0.6C183.6,19.7,182.7,20.5,183.1,21.8"/>
					<path class="st3" d="M199.3,15.4c0,2.7-0.4,5.5-1.4,8.1c-0.1,0.3-0.3,0.6-0.5,1c-0.2,0.4-0.5,0.7-1,0.5c-0.5-0.2-0.4-0.7-0.2-1
						c0.5-1.1,0.7-2.3,1.1-3.5c0.2-0.6,0.4-1.1-0.7-1.1c-1,0.1-1.8-0.7-2-1.8c-0.3-1.5,0.1-3,1.1-4.2c0.4-0.5,0.9-0.7,1.5-0.8
						c1.3-0.2,2.1,0.4,2.2,1.8C199.3,14.6,199.3,14.9,199.3,15.4 M197.7,16c0-0.9,0-1.5,0-2.1c0-0.8-0.4-0.9-1.1-0.5
						c-1.4,0.8-2,3.2-1.2,4.7c0.2,0.4,0.4,0.9,1,0.7c0.6-0.1,1-0.5,1.1-1.1C197.7,17,197.7,16.3,197.7,16"/>
					<path class="st3" d="M163.1,17.1c-0.1,2.3-0.2,4.6-0.3,6.9c0,0.4,0.1,0.9-0.5,1c-0.6,0-0.8-0.4-0.9-0.9c-0.2-1.2,0-2.5,0-3.7
						c0-1.3-0.1-1.4-1.4-1.3c-1.5,0.1-1.7-0.1-1.6-1.6c0.1-1.1,0.2-2.2,0-3.3c0-0.3,0-0.6,0.4-0.6c0.3,0,0.5,0.2,0.5,0.6
						c0,1.1,0.1,2.2,0.1,3.3c0,0.6,0,1.1,0.9,1.1c0.8,0,1.2-0.2,1.2-1c0.1-1.3,0.2-2.6,0.3-3.9c0-0.4-0.1-0.9,0.5-0.9
						c0.6,0,0.9,0.5,0.9,1C163.2,14.8,163.2,15.9,163.1,17.1L163.1,17.1z"/>
					<path class="st3" d="M205.8,16.7c0,2.4-0.5,4.8-0.4,7.3c0,0.4,0.1,1.1-0.6,1c-0.6,0-0.8-0.6-0.8-1.1c0-1.2-0.1-2.4,0-3.6
						c0.1-1.1-0.4-1.3-1.4-1.3c-1.7,0.1-1.7,0-1.6-1.7c0-1,0.2-2,0.1-3c0-0.3-0.2-0.8,0.4-0.8c0.4,0,0.5,0.5,0.5,0.8
						c0,1,0,2.1,0,3.1c0,0.6,0.1,1,0.8,0.9c0.6,0,1.4,0.2,1.4-0.8c0.1-1.4,0.1-2.7,0.2-4.1c0-0.4-0.2-1,0.5-1c0.6,0,0.8,0.5,0.9,1
						C205.8,14.6,205.8,15.6,205.8,16.7"/>
					<path class="st3" d="M192.9,17.3c-0.1,2.2-0.2,4.4-0.3,6.6c0,0.4,0.2,1.1-0.5,1.1c-0.6,0-0.9-0.6-0.9-1.1c0-1.2-0.1-2.5,0-3.7
						c0.1-1.1-0.5-1.2-1.3-1.2c-1.8,0.1-1.8,0.1-1.7-1.7c0-1,0-2,0.1-3c0-0.3-0.1-0.8,0.3-0.8c0.4,0,0.5,0.4,0.5,0.8
						c0,1,0.1,2.1,0.1,3.1c0,0.5-0.1,1.1,0.7,1c0.6,0,1.4,0.2,1.4-0.9c0-1.4,0.1-2.7,0.3-4c0-0.3-0.2-0.9,0.5-0.9
						c0.6,0,0.9,0.4,0.9,0.9C193,14.7,193,16,192.9,17.3C193,17.3,192.9,17.3,192.9,17.3"/>
					<path class="st3" d="M156.6,17.4c-0.1,2.1-0.3,4.4-0.4,6.7c0,0.4,0.1,1-0.5,1c-0.6,0-0.6-0.5-0.7-1c-0.3-1.3,0-2.6-0.1-3.8
						c0-1-0.3-1.2-1.2-1.2c-1.7,0.1-1.7,0-1.7-1.7c0-1,0-2,0-3c0-0.3-0.2-0.7,0.3-0.8c0.5-0.1,0.6,0.4,0.6,0.7c0,1.1,0,2.1,0,3.2
						c0,0.6,0,1.1,0.8,1c0.7,0,1.3,0.1,1.3-0.9c0-1.4,0.2-2.7,0.3-4c0-0.3-0.2-0.9,0.4-0.9c0.5,0,0.9,0.4,0.9,1
						C156.6,14.8,156.6,16,156.6,17.4"/>
					<path class="st3" d="M145.4,13.6c1.5-0.3,2.8-0.7,4.2-0.9c0.9-0.1,1.2,0.5,0.8,1.4c-1.1,2.5-1.9,5.1-2.5,7.7
						c-0.2,0.7-0.2,1.4-0.4,2.1c-0.1,0.4,0,1-0.7,0.9c-0.7-0.1-0.7-0.6-0.7-1.1c0.1-1.4,0.3-2.8,0.7-4.2c0.5-1.6,0.9-3.3,1.6-4.9
						c0.3-0.7,0.2-1-0.7-0.8C147.1,14,146.3,14.6,145.4,13.6"/>
					<path class="st3" d="M165.3,23.6c0.3-3,1.1-5.9,2.2-8.7c0.1-0.3,0.5-0.7,0.2-1.1c-0.3-0.3-0.7,0-1,0.1
						c-0.6,0.1-1.1,0.3-1.7,0.1c-0.1,0-0.2-0.2-0.3-0.3c0-0.2,0.1-0.2,0.3-0.2c1.1-0.2,2.3-0.5,3.4-0.7c0.4-0.1,0.8-0.1,1.1,0.2
						c0.3,0.4,0.2,0.8,0,1.2c-1.4,3.1-2.3,6.3-2.8,9.6c-0.1,0.4,0,1.1-0.7,1C165.3,24.7,165.2,24.1,165.3,23.6"/>
					<path class="st3" d="M175.9,23.7c0.3-3,1.1-5.9,2.2-8.8c0.1-0.4,0.5-0.8,0.2-1.1c-0.3-0.3-0.7,0.1-1.1,0.1
						c-0.6,0.1-1.6,0.4-1.7-0.1c-0.1-0.6,0.9-0.4,1.4-0.6c0.7-0.3,1.5-0.4,2.3-0.5c1-0.1,1.3,0.4,1,1.3c-1.4,3.1-2.4,6.4-2.9,9.8
						c-0.1,0.4,0,1.1-0.7,1C176,24.7,175.9,24.2,175.9,23.7"/>
					<path class="st3" d="M208.6,14.9c-0.5,0.2-0.7,1.1-1.1,0.8c-0.4-0.3,0.2-0.8,0.5-1.2c0.3-0.5,0.6-1,0.9-1.5
						c0.2-0.4,0.5-0.8,1-0.6c0.6,0.2,0.6,0.6,0.5,1.1c-0.1,2.8-0.3,5.5-0.4,8.3c0,0.7,0,1.4,0,2.1c0,0.4,0,0.8-0.4,0.8
						c-0.4,0-0.8-0.2-0.9-0.7c-0.1-0.4-0.1-0.9-0.1-1.4c0.1-2.2,0.2-4.4,0.2-6.6C208.7,15.8,208.9,15.4,208.6,14.9"/>
				</g>
			</g>
		</g>
	</g>
</g>
</svg>
