<svg xmlns="http://www.w3.org/2000/svg" viewBox="0 0 124.01 49.92"><defs><style>.cls-1{fill:#fff;}</style></defs><title>Asset 2</title><g id="Layer_2" data-name="Layer 2"><g id="Helen_Marinakis_text_Image" data-name="Helen Marinakis text Image"><path d="M84.83,13.84c-.37.56-.72,1.12-1.13,1.64a5.4,5.4,0,0,1-1,.94,1,1,0,0,1-1.6-.46,4.94,4.94,0,0,1-.31-1.38c-.06-.48,0-1-.06-1.58-.37.53-.67,1-1,1.41a17.37,17.37,0,0,1-2.09,2.44,2.54,2.54,0,0,1-1,.58,1.3,1.3,0,0,1-1.66-.91,3.66,3.66,0,0,1,0-1.83,27.91,27.91,0,0,1,.88-3c.23-.63.52-1.23.73-1.85a4.54,4.54,0,0,0,.13-1c0-.34-.28-.49-.49-.67,0,0-.14,0-.19,0a.91.91,0,0,0-.15.23c-.59,1.28-1.31,2.49-1.89,3.77A13.61,13.61,0,0,1,70.74,17a2.41,2.41,0,0,1-.79.46.87.87,0,0,1-1.12-.5,3.31,3.31,0,0,1-.26-.88c-.07-.46-.1-.93-.15-1.39-.46.53-.9,1.06-1.38,1.54a1.64,1.64,0,0,1-1.18.58,1,1,0,0,1-1-.6c-.12-.21-.22-.42-.33-.66-.24.5-.49,1-.69,1.48a11.32,11.32,0,0,1-1,1.74,1,1,0,0,1-1.67.27,1.88,1.88,0,0,1-.48-.61,6.46,6.46,0,0,1-.63-2.33c0-.46-.07-.92-.11-1.39a.66.66,0,0,1,0-.14c.07-.92.15-1.85.23-2.77,0-.57.1-1.14.18-1.71.12-.89.28-1.77.41-2.66a17.35,17.35,0,0,0,.16-3.14.76.76,0,0,0,0-.15c-.07-.37-.37-.5-.66-.24a6.08,6.08,0,0,0-1,1C58.47,6.05,57.72,7.21,57,8.36a2.1,2.1,0,0,0-.3.8c-.1.56-.11,1.14-.19,1.7a27.31,27.31,0,0,0-.14,3.73,1.35,1.35,0,0,1,0,.35.32.32,0,0,1-.51.19,1.34,1.34,0,0,1-.43-.55,4.12,4.12,0,0,1-.21-1.11,20.62,20.62,0,0,1,0-2.08c0-.69.16-1.37.25-2.05,0-.1,0-.19,0-.28a6.19,6.19,0,0,1,.25-1.91,9.37,9.37,0,0,0,.18-1.41c.13-.91.29-1.82.4-2.74.08-.66.12-1.32.17-2,0-.2,0-.42-.24-.46a.65.65,0,0,0-.51.13,4.07,4.07,0,0,0-.77.94A25.88,25.88,0,0,0,53.79,4c-.29.67-.48,1.39-.75,2.07-1,2.54-1.65,5.18-2.42,7.79-.11.36-.21.72-.3,1.09,0,.16-.11.3-.28.25s-.28-.14-.3-.25a4.11,4.11,0,0,1-.17-1c-.06-2-.19-4-.11-6a16.2,16.2,0,0,1,.22-3.26,2.36,2.36,0,0,0,0-.65.63.63,0,0,1,.39-.63.39.39,0,0,1,.4,0c.69.31.56.87.52,1.41,0,.31-.09.61-.12.91-.09,1.09-.21,2.18-.27,3.27a11.87,11.87,0,0,0,.11,2.37c.09-.26.19-.52.26-.78a52.79,52.79,0,0,1,2.72-7.85A13.72,13.72,0,0,1,55.06.58,1.38,1.38,0,0,1,56.57.06a1.41,1.41,0,0,1,.86.89,3.39,3.39,0,0,1,.22,1,10.67,10.67,0,0,1-.25,3,5.74,5.74,0,0,0-.11,1.67A6.86,6.86,0,0,0,57.75,6a9,9,0,0,1,1.93-2.29,2.23,2.23,0,0,1,.48-.32,1.16,1.16,0,0,1,1.8.75A5.23,5.23,0,0,1,62.17,7a1.57,1.57,0,0,0,0,.43,20.33,20.33,0,0,1-.28,2.91c-.1.63-.1,1.28-.17,1.91-.08.9-.21,1.8-.26,2.7a13.8,13.8,0,0,0,.13,3.21,1.36,1.36,0,0,0,.17.39c.13.23.27.27.46.08a3,3,0,0,0,.62-.77,16.3,16.3,0,0,0,1.65-4A12.68,12.68,0,0,1,65,11.6a14.8,14.8,0,0,1,1-1.75,2.46,2.46,0,0,1,1.4-.95,1,1,0,0,1,.48,0,4.3,4.3,0,0,1,.91.39.94.94,0,0,0,.82.15c.52-.13.82.28.73.82-.14.89-.26,1.78-.38,2.67-.09.73-.19,1.46-.23,2.19a5.42,5.42,0,0,0,.11,1.2.37.37,0,0,0,.61.23,6.43,6.43,0,0,0,1.12-1.09,18.23,18.23,0,0,0,2.14-3.54,36.61,36.61,0,0,1,1.9-3.75.74.74,0,0,0-.05-1A2.31,2.31,0,0,1,75,6a.82.82,0,0,1,.48-.86.7.7,0,0,1,.85.36,1.82,1.82,0,0,1,.22,1.16c0,.3-.16.64-.06.9s.39.47.62.67a1.78,1.78,0,0,1,.5,2c-.21.75-.46,1.49-.72,2.23a19.48,19.48,0,0,0-.76,3.1,2.59,2.59,0,0,0,.16,1.05c0,.09.21.18.33.2a.85.85,0,0,0,.78-.27c.23-.2.4-.47.61-.69a31.67,31.67,0,0,0,2.58-3.51,2.48,2.48,0,0,0,.36-1.22c.06-.64.1-1.28.16-1.92,0-.41.21-.53.66-.5.65.06.79.26.7.89s-.11,1.33-.22,2a17.82,17.82,0,0,0-.09,3,2.84,2.84,0,0,0,.22.88.26.26,0,0,0,.46.12,9.58,9.58,0,0,0,1-1.14,16.7,16.7,0,0,0,.85-1.56,6.38,6.38,0,0,0,.47-2.55c0-.43.1-.85.13-1.28,0-.25.17-.31.39-.29a2,2,0,0,1,.43,0,.54.54,0,0,1,.45.68c-.12,1.11-.19,2.23-.38,3.33A16.07,16.07,0,0,0,86,14.8a4.85,4.85,0,0,0,.57-1.25c.44-1.3.89-2.6,1.41-3.87a5.55,5.55,0,0,1,.85-1.31c.46-.63,1-.59,1.5,0a2.82,2.82,0,0,1,.39,2.2c-.14.93-.38,1.85-.57,2.78-.14.67-.27,1.35-.38,2a.72.72,0,0,0,.29.79,3,3,0,0,0,.44-.43,10,10,0,0,0,1.73-3.42,8.06,8.06,0,0,1,.9-2.09A3.13,3.13,0,0,1,94.47,9a1.47,1.47,0,0,1,1.38,0c.26.13.5.29.75.42a.28.28,0,0,0,.23,0c.38-.23.63,0,.88.24a.59.59,0,0,1,.1.45c-.17,1.15-.41,2.29-.53,3.44a22.23,22.23,0,0,0,0,2.45.92.92,0,0,0,0,.28c.1.31.25.36.53.2A4.63,4.63,0,0,0,99.32,15,16.15,16.15,0,0,0,101,12.24a.92.92,0,0,0,.13-.46,10.65,10.65,0,0,1,.06-3.24,16.06,16.06,0,0,1,1.09-4.61,8.33,8.33,0,0,1,1.23-2.08,2.68,2.68,0,0,1,1-.61.84.84,0,0,1,.92.4,1.63,1.63,0,0,1,.25,1.16,11.57,11.57,0,0,1-2.18,4.45c-.24.32-.54.61-.76.94a1.86,1.86,0,0,0-.34.78c-.08.83-.11,1.66-.15,2.5a5.53,5.53,0,0,0,0,.91,1.9,1.9,0,0,0,.15.42c.28-.76.53-1.52.85-2.26a6.85,6.85,0,0,1,.71-1.15A1.13,1.13,0,0,1,105.1,9a1.22,1.22,0,0,1,.93,1,1.66,1.66,0,0,1-.44,1.25,2.46,2.46,0,0,1-1.85,1.19c.1.32.16.64.27.93a6.44,6.44,0,0,0,1,2c.27.31.39.33.79.15a2.08,2.08,0,0,0,.85-.94c.53-.82,1-1.69,1.44-2.55a2,2,0,0,0,.2-.68c.07-.66.1-1.33.16-2,0-.18.1-.36.13-.55s.17-.32.4-.26l.21,0c.71.05.81.18.72.89s-.16,1.51-.3,2.25a12.27,12.27,0,0,0-.11,2.42,2.22,2.22,0,0,0,.14.76,3.56,3.56,0,0,0,.37.58,2.29,2.29,0,0,0,.64-.42,16.76,16.76,0,0,0,.94-1.52c.15-.24.25-.51.39-.76a2.28,2.28,0,0,0,.37-1.66,1.71,1.71,0,0,1,.39-1.61,1.75,1.75,0,0,1,1.79-.6,1.09,1.09,0,0,1,.86,1.16c0,.27.14.73-.2.75s-.23-.43-.26-.68a.87.87,0,0,0-.7-.79.66.66,0,0,0-.73.33,1.4,1.4,0,0,0-.16,1.22,21.25,21.25,0,0,0,1.17,2.69,2.33,2.33,0,0,0,1-.58c.23-.21.49-.37.73-.58a5,5,0,0,0,1.25-1.35c0-.07.14-.1.22-.14s.17.21.14.28a1.56,1.56,0,0,1-.29.64,16.2,16.2,0,0,1-1.33,1.29,8.71,8.71,0,0,1-1,.67c-.45.29-.51.41-.38.93a4.35,4.35,0,0,1,0,1.9,4.21,4.21,0,0,1-.46,1.56,1.21,1.21,0,0,1-2.34-.52,3.82,3.82,0,0,1,.38-1.79,3.57,3.57,0,0,1,1-1.32.46.46,0,0,0,.16-.66l-.76-1.53c-.12.47-.43.66-.58,1A5.85,5.85,0,0,1,110,16.46a.91.91,0,0,1-1.43-.37,5.83,5.83,0,0,1-.42-2,2.62,2.62,0,0,0-.13-.74c-.25.4-.47.82-.75,1.2a16.94,16.94,0,0,1-1.25,1.55c-.54.57-1,.52-1.54,0a5.58,5.58,0,0,1-1.26-2c-.11-.26-.2-.53-.32-.83a3.53,3.53,0,0,0-.29,2.25c.07.45.15.89.23,1.33a.55.55,0,0,1,0,.22c0,.06,0,.18-.08.18a.34.34,0,0,1-.25-.08,2.35,2.35,0,0,1-.37-.52,10.09,10.09,0,0,1-.91-3c0-.11,0-.23-.11-.47l-.65,1.06a13.23,13.23,0,0,1-2.12,2.7,2.15,2.15,0,0,1-1.06.54.7.7,0,0,1-.76-.26,3.45,3.45,0,0,1-.47-1,12.29,12.29,0,0,1-.17-1.5c-.38.45-.72.91-1.11,1.32a4.1,4.1,0,0,1-.84.65,1.16,1.16,0,0,1-1.71-.6c-.14-.48-.26-1-.39-1.42l-1.11,1.62a1.22,1.22,0,0,1-.8.55A1,1,0,0,1,88.68,16a3.62,3.62,0,0,1-.06-1.35c.28-1.42.63-2.81.93-4.23a10.07,10.07,0,0,0,.17-1.55.51.51,0,0,0-.19-.34s-.24,0-.3.13a6.27,6.27,0,0,0-.74,1.13A33.45,33.45,0,0,0,87,14a15,15,0,0,1-.62,1.74c-.11.27-.24.54-.58.58a.93.93,0,0,1-.8-.61,6.19,6.19,0,0,1-.16-1.05A8,8,0,0,1,84.83,13.84Zm-19.1,1c0,.15,0,.29,0,.44a2.19,2.19,0,0,0,.12.33c.15.46.42.55.78.24a3.37,3.37,0,0,0,.63-.68c.35-.52.65-1.06,1-1.58a2.34,2.34,0,0,0,.35-.92c.09-.7.26-1.4.39-2.09a.9.9,0,0,0-.4-.86.64.64,0,0,0-.85,0,1.4,1.4,0,0,0-.41.39,15.39,15.39,0,0,0-.75,1.38A10.31,10.31,0,0,0,65.73,14.87Zm27.48.25c0,.16.09.39.16.61s.28.37.6.2a2.76,2.76,0,0,0,.85-.85,7.12,7.12,0,0,0,1.53-3.6c0-.28.11-.56.14-.84a1,1,0,0,0-.51-1,.75.75,0,0,0-.94.3c-.09.14-.24.24-.33.37A10.38,10.38,0,0,0,93.21,15.12Zm9.32-7.78.2,0c.35-.47.72-.93,1-1.43a8.3,8.3,0,0,0,1.35-3.38,1.19,1.19,0,0,0-.08-.41c-.05-.15-.13-.23-.32-.14a1.52,1.52,0,0,0-.6.58,13.91,13.91,0,0,0-1.24,3.23C102.73,6.33,102.65,6.84,102.53,7.34ZM113.91,15a3.64,3.64,0,0,0-.91,1.24,2.76,2.76,0,0,0-.34,1.71.57.57,0,0,0,.24.39.35.35,0,0,0,.49-.14,3,3,0,0,0,.43-.79A11.09,11.09,0,0,0,113.91,15Zm-10.47-3.09.23-.05A2.5,2.5,0,0,0,104.94,10a.23.23,0,0,0-.08-.17c-.16-.09-.31-.24-.5-.05a5.41,5.41,0,0,0-1,2S103.41,11.83,103.44,11.88ZM75.92,7l.16-.07a7.2,7.2,0,0,0-.12-1c0-.11-.23-.22-.37-.24s-.28.27-.19.45S75.74,6.65,75.92,7Z"/><path d="M30.43,13.67l-.36.41c-.46.58-.88,1.19-1.38,1.74A4.2,4.2,0,0,1,27,16.9a1.4,1.4,0,0,1-1.62-.62,5.54,5.54,0,0,1-.77-2.5c0-.28-.07-.55-.11-.86-.55.72-1,1.4-1.57,2a5.09,5.09,0,0,1-2.35,1.69c-1.81.54-2.87-.48-3.15-2A6.67,6.67,0,0,1,17.87,11a5.53,5.53,0,0,1,1.51-2.19,2.48,2.48,0,0,1,2.17-.49,1.73,1.73,0,0,1,.71.54,2.22,2.22,0,0,1,0,2.93,4.68,4.68,0,0,1-2.94,1.57c-.44.08-.51.16-.51.6a2.57,2.57,0,0,0,.63,2,.85.85,0,0,0,.71.27,2.24,2.24,0,0,0,1.18-.46A12,12,0,0,0,23.81,13a3.55,3.55,0,0,0,.71-2.32,17.08,17.08,0,0,1,.78-5.16A11.53,11.53,0,0,1,26.79,2,7.08,7.08,0,0,1,27.8.9.84.84,0,0,1,28.92.8a1.13,1.13,0,0,1,.46,1.11,18.3,18.3,0,0,1-1.47,4.23,29.77,29.77,0,0,1-1.85,3.54,1.63,1.63,0,0,0-.25.88c0,.77,0,1.54,0,2.3a7.6,7.6,0,0,0,.43,2.3c.48,1.15.9,1.34,1.93.43a12.29,12.29,0,0,0,2.43-3.34A5.32,5.32,0,0,0,31,11.16a4.8,4.8,0,0,1,1.79-2.54,2,2,0,0,1,3.15,1.07,2.59,2.59,0,0,1-1.23,2.8,6.32,6.32,0,0,1-2.1.85,3.47,3.47,0,0,0-.55.16.25.25,0,0,0-.13.21,12.54,12.54,0,0,0,.27,1.51,1.15,1.15,0,0,0,1.76.81,5.09,5.09,0,0,0,1.63-1.27,13.74,13.74,0,0,0,1.94-2.55,1.62,1.62,0,0,0,.23-.87c0-.76.1-1.51.18-2.27a.29.29,0,0,1,.21-.22,2.86,2.86,0,0,1,.83,0c.12,0,.24.24.26.38a2.42,2.42,0,0,1,0,.71c-.08.66-.17,1.32-.26,2s-.19,1.07-.24,1.61,0,.85,0,1.34a13,13,0,0,0,.94-2.37c.39-1,.76-2,1.19-3a5,5,0,0,1,.77-1.12.85.85,0,0,1,1.51.16,2,2,0,0,1,.29.87,14,14,0,0,1-.09,1.71c-.1,1.19-.53,2.31-.73,3.47a4.84,4.84,0,0,0,.12,1.73,2.6,2.6,0,0,0,1-1.1c.61-1.18,1.17-2.38,1.75-3.58a1.91,1.91,0,0,1,.15-.32,1,1,0,0,1,.29-.21c.05.12.17.27.14.36a7.12,7.12,0,0,1-.41,1c-.51,1-1,2.05-1.56,3a5.8,5.8,0,0,1-1,1.2,1.05,1.05,0,0,1-1.63-.6,5.27,5.27,0,0,1,0-1.9c.27-1.37.62-2.72.93-4.08A8.56,8.56,0,0,0,42.48,9a.54.54,0,0,0-.18-.35c-.16-.13-.31,0-.44.1A4.22,4.22,0,0,0,41,10.15c-.24.56-.45,1.14-.65,1.72-.39,1.17-.77,2.34-1.16,3.51a3.14,3.14,0,0,1-.18.46c-.13.29-.26.56-.67.53a.82.82,0,0,1-.71-.53,2.23,2.23,0,0,1-.17-1.12,5,5,0,0,0,0-1.5c-.22.27-.45.54-.66.83a8.4,8.4,0,0,1-2.19,2.14,2.7,2.7,0,0,1-2.37.48,2.16,2.16,0,0,1-1.45-1.37C30.67,14.79,30.58,14.25,30.43,13.67Zm-8.06-3.48a3.81,3.81,0,0,0-.28-.75.75.75,0,0,0-1.15-.28,2.91,2.91,0,0,0-.72.68,7.77,7.77,0,0,0-.81,1.24,3.31,3.31,0,0,0-.49,1.39c0,.32.16.45.46.37a6,6,0,0,0,2-.84A2.56,2.56,0,0,0,22.37,10.19Zm13.1-.14a1.85,1.85,0,0,0-.1-.45.84.84,0,0,0-1.14-.53,2.51,2.51,0,0,0-.71.58,7.31,7.31,0,0,0-.84,1.24,13.14,13.14,0,0,0-.62,1.5c-.1.28-.07.28.32.26.21,0,.45.12.62,0a7.49,7.49,0,0,0,1.58-.78A2.08,2.08,0,0,0,35.47,10.05ZM26,8.46l.13.07c.28-.52.57-1,.85-1.54A37.52,37.52,0,0,0,28.6,3.06a6.6,6.6,0,0,0,.22-1.33c0-.1-.07-.21-.11-.31a.84.84,0,0,0-.3.15,3.71,3.71,0,0,0-.43.55,21.81,21.81,0,0,0-1.43,4C26.36,6.9,26.16,7.68,26,8.46Z"/><path d="M80.08,28.9c.12-.28.22-.51.31-.75.29-.73.56-1.46.86-2.19a3.17,3.17,0,0,1,.39-.59c.4-.53,1-.17,1.08.27a3.37,3.37,0,0,1-.08,1.67,7.61,7.61,0,0,0-.38,2.17c0,.11,0,.23,0,.42a3.93,3.93,0,0,0,.57-.62c.41-.8.8-1.62,1.18-2.44a2.53,2.53,0,0,0,.06-.49,2.67,2.67,0,0,1,.16-.69.48.48,0,0,1,.39-.21.48.48,0,0,1,.32.3,1.06,1.06,0,0,1,0,.5c-.08.66-.2,1.31-.25,2a4.06,4.06,0,0,0,.13,1c0,.24.22.22.38.12a.46.46,0,0,0,.16-.15A9,9,0,0,0,86.64,27a2.52,2.52,0,0,0,.07-.49c0-.23.11-.46.13-.7a.3.3,0,0,1,.33-.3.87.87,0,0,1,.41.31c0,.05,0,.19,0,.28,0,.45-.12.89-.17,1.34a6.15,6.15,0,0,0-.06,1.36l.9-2.32c.16-.4.32-.79.49-1.18.1-.23.65-.27.89-.06a1.07,1.07,0,0,1,.41.8,4.77,4.77,0,0,1-.22,1.55,5.86,5.86,0,0,0-.36,2,1.88,1.88,0,0,0,.12.3c.09-.07.22-.12.27-.21.35-.61.69-1.24,1-1.86s.55-1.12.89-1.64a1.72,1.72,0,0,1,1.82-.7.19.19,0,0,1,.12.07.27.27,0,0,1,.06.19.16.16,0,0,1-.13.09c-.64-.17-1,.2-1.25.7a4.81,4.81,0,0,0-.61,2.32,1.48,1.48,0,0,0,.15.35c.12-.07.28-.1.35-.19a6.94,6.94,0,0,0,1-2,4.11,4.11,0,0,1,.29-.73c0-.09.17-.22.23-.2a.69.69,0,0,1,.32.22.46.46,0,0,1,0,.21l.15,1.78a1.64,1.64,0,0,0,.08.24l.7-.51c.45-.34.9-.68,1.36-1,0,0,.16,0,.25,0s0,.23-.09.29-.42.31-.63.47c-.41.31-.8.67-1.23.95a1,1,0,0,0-.45,1c0,.43,0,.86,0,1.29a8.49,8.49,0,0,1-.6,2.77,2.13,2.13,0,0,1-.28.41,1,1,0,0,1-1.18.43,1,1,0,0,1-.72-1,4.09,4.09,0,0,1,.82-2.46,13.1,13.1,0,0,1,1.11-1.57.94.94,0,0,0,.23-.72c-.05-.47-.1-.93-.16-1.46-.24.46-.48.85-.66,1.27a3,3,0,0,1-.79,1A.63.63,0,0,1,91,29.24c0-.2,0-.41-.07-.67-.32.16-.36.44-.5.64a4.89,4.89,0,0,1-.66.84.63.63,0,0,1-1.06-.42,5.6,5.6,0,0,1,.16-1.41c.14-.7.35-1.38.51-2.07a4.67,4.67,0,0,0,0-.75,1,1,0,0,0-.66.68c-.38,1.05-.77,2.1-1.15,3.14l-.15.4a.47.47,0,0,1-.89-.2V28.06a12.34,12.34,0,0,1-.69,1.08,4.75,4.75,0,0,1-.77.84c-.45.35-.8.23-1-.31A4,4,0,0,1,84,28.9a5.31,5.31,0,0,1,0-.7c-.32.15-.38.43-.53.65-.24.38-.48.77-.75,1.12a.59.59,0,0,1-.76.21.63.63,0,0,1-.42-.59,8.17,8.17,0,0,1,.4-2.31c.1-.46.23-.91.32-1.38,0-.14,0-.39-.11-.43s-.34.07-.42.27c-.24.56-.5,1.12-.71,1.7s-.44,1.35-.68,2a.79.79,0,0,1-.28.39.43.43,0,0,1-.66-.37c0-.41,0-.82,0-1.29a1.1,1.1,0,0,0-.43.46,7,7,0,0,1-.89,1.2c-.54.54-1,.4-1.2-.32a2.25,2.25,0,0,1-.08-.64c0-.26,0-.52,0-.92L76,29.13a4,4,0,0,1-1.25,1.35c-.41.23-.71.2-.89-.22a7.15,7.15,0,0,1-.29-1.17c-.08.1-.17.24-.27.35a2.24,2.24,0,0,1-.57.54c-.87.45-1.23.29-1.37-.66a9.52,9.52,0,0,1,0-1.32c-.41.54-.75,1-1.12,1.46a7.08,7.08,0,0,1-.84.89.9.9,0,0,1-1,.22,1,1,0,0,1-.51-.89,3.69,3.69,0,0,1,.29-1.53c.25-.66.49-1.33.73-2,.16-.48.15-.48-.22-1a3.26,3.26,0,0,0-.22.34,14.83,14.83,0,0,1-1,1.69c-.43.56-.71,1.23-1.09,1.83a5.39,5.39,0,0,1-.75,1,2,2,0,0,1-.63.45.6.6,0,0,1-.85-.23,2.61,2.61,0,0,1-.48-1.69,14.73,14.73,0,0,1,.22-3c.1-.51.12-1,.18-1.61l-1.81.37c-.49.1-.71,0-1.25-.4l.37,0a3.3,3.3,0,0,0,.7.05c.42-.06.83-.18,1.25-.26.87-.17.87-.17,1-1a7.06,7.06,0,0,1,.26-1c.1-.28.27-.29.45-.05a.48.48,0,0,1,.09.25c0,.22,0,.43,0,.64s-.07.37-.12.61a7.89,7.89,0,0,1,1.31-.24c.39,0,.86-.2,1.28.31-.31,0-.52,0-.72,0a3.68,3.68,0,0,0-1.67.31.52.52,0,0,0-.38.53c0,.54-.18,1.07-.21,1.61a11.49,11.49,0,0,0-.09,3.7c.18.73.56.84,1.08.28a7.7,7.7,0,0,0,.78-1.09c.37-.57.73-1.15,1.08-1.73s.66-1.16,1-1.74c0-.06,0-.16,0-.23-.12-.23-.27-.45-.38-.69a.42.42,0,0,1,0-.33c.09-.14.25-.33.36-.32a.87.87,0,0,1,.43.32.81.81,0,0,1,0,.42c0,.39-.11.85.46,1a1.56,1.56,0,0,1,.2,1.36c-.17.51-.34,1-.52,1.54a4.21,4.21,0,0,0-.28,1.75c0,.34.25.48.51.28a4.67,4.67,0,0,0,.86-.86c.52-.69,1-1.41,1.49-2.1A11.69,11.69,0,0,1,72.35,26a1,1,0,0,1,1.29-.24,4.1,4.1,0,0,0,.59.2c.37.09.45.14.41.54s-.14.89-.21,1.33a7.31,7.31,0,0,0-.07,2c0,.3.18.36.43.18a2,2,0,0,0,.46-.45c.43-.6.85-1.21,1.23-1.84a2.88,2.88,0,0,0,.44-1.63c0-.42.16-.56.49-.54a.38.38,0,0,1,.38.49,10.55,10.55,0,0,0-.27,2.69,2.08,2.08,0,0,0,0,.43c0,.1.12.24.2.25s.33,0,.38-.11c.6-1,1.44-1.93,1.39-3.22a.38.38,0,0,1,0-.15.39.39,0,0,1,.5-.37c.31,0,.3.26.28.47-.09.92-.2,1.84-.3,2.76C80,28.79,80,28.81,80.08,28.9Zm-6.2-2.13c0-.43,0-.56-.37-.66a.46.46,0,0,0-.58.29,5.36,5.36,0,0,0-.87,3c0,.12.09.34.15.34a.54.54,0,0,0,.44-.12A4.36,4.36,0,0,0,73.88,26.77Zm19.87,3.15a3.11,3.11,0,0,0-1,1.22,4.76,4.76,0,0,0-.88,2.14.67.67,0,0,0,.33.71c.27.1.44-.09.62-.25s.06-.14.1-.19a3.05,3.05,0,0,0,.55-1.37A6.11,6.11,0,0,0,93.75,29.92ZM68.2,23.75c-.06.28-.07.51.21.61a.13.13,0,0,0,.11-.05c.11-.25-.07-.38-.22-.53Z"/><path d="M121.58,29.3a2.29,2.29,0,0,0-.59-1.76c-.25.3-.48.59-.72.87s-.71.84-1.1,1.22a1.55,1.55,0,0,1-1.56.49,1.67,1.67,0,0,1-1.08-1.39,2.17,2.17,0,0,1,0-.38l-1,1.56a2.72,2.72,0,0,1-.29.3.73.73,0,0,1-.91.2.89.89,0,0,1-.49-.82,7.09,7.09,0,0,1,.26-1.83,6.19,6.19,0,0,0,.3-2.13c-.18.32-.3.5-.4.69-.38.8-.75,1.6-1.13,2.39a2.76,2.76,0,0,1-.18.39c-.1.14-.12.39-.38.37a.6.6,0,0,1-.47-.56,12.16,12.16,0,0,1,.19-1.33,7.63,7.63,0,0,0,.21-2.28,3.94,3.94,0,0,0-.23.36c-.06.13-.11.26-.16.4-.28.85-.55,1.71-.85,2.56a2.49,2.49,0,0,1-.37.68.37.37,0,0,1-.65-.06,2,2,0,0,1-.17-.54c0-.17-.06-.35-.1-.59-.43.6-.79,1.15-1.2,1.67a3.88,3.88,0,0,1-.74.66c-.44.31-.75.22-1-.26a2.67,2.67,0,0,1-.16-.69c0-.13,0-.27,0-.49l-.38.44a3.81,3.81,0,0,1-.37.43,1,1,0,0,1-1,.28,1,1,0,0,1-.48-1c0-.61.1-1.22.15-1.86l-.43.23-.46.34c-.38.32-.89.58-1.11,1a3.66,3.66,0,0,0-.14,1.39,13.79,13.79,0,0,1-.47,2.79,4.14,4.14,0,0,1-.43.9,1,1,0,0,1-1.28.53,1.23,1.23,0,0,1-.72-1.15,5.48,5.48,0,0,1,.21-.89,8.06,8.06,0,0,1,1.2-2.19,2.76,2.76,0,0,0,.73-2.56,2.07,2.07,0,0,0-.08-.37c-.18.32-.3.55-.43.76-.26.43-.5.87-.79,1.27a1.12,1.12,0,0,1-.5.38.54.54,0,0,1-.74-.36,2.29,2.29,0,0,1-.12-1.25,5,5,0,0,1,.74-2,1.69,1.69,0,0,1,1.74-.74,1.39,1.39,0,0,1,.39.23c-.14,0-.21.09-.27.08-.63-.09-.94.31-1.23.78a7.89,7.89,0,0,0-.66,2.17c0,.08,0,.18.09.27s.22.27.35.09a8.4,8.4,0,0,0,.78-1.19c.24-.49.4-1,.6-1.52a.57.57,0,0,1,.14-.24.53.53,0,0,1,.32-.08c.06,0,.13.13.14.21.06.5.1,1,.16,1.49,0,.23.08.46.13.71.76-.54,1.49-1,2.19-1.56a3.18,3.18,0,0,0,.65-.67c.55-.7.94-.79,1.69-.34a1.15,1.15,0,0,0,.25.12c.57.1.59.1.55.58s-.15,1-.2,1.55-.07,1-.08,1.57a2,2,0,0,0,.21.54c.38-.42.73-.78,1-1.17s.42-.69.66-1a3.06,3.06,0,0,0,.63-1.71c0-.24.09-.35.34-.34s.3.2.28.4c0,.42-.08.84-.09,1.26a7.18,7.18,0,0,0,0,1.22,7.76,7.76,0,0,0,.46-1.12,10.66,10.66,0,0,1,.85-2.33c.13-.24.23-.5.58-.42a.64.64,0,0,1,.47.64,7,7,0,0,1-.14,2.14.41.41,0,0,0,.08.31c.21-.47.42-.94.65-1.41.14-.28.29-.54.44-.81s.36-.54.67-.41a.86.86,0,0,1,.47.75,7.22,7.22,0,0,1-.21,1.91c-.11.46-.23.91-.34,1.38a.67.67,0,0,0,0,.28c0,.36.34.49.59.22a4.63,4.63,0,0,0,.71-1c.46-.85.87-1.74,1.33-2.6a3.79,3.79,0,0,1,.64-.85,1.21,1.21,0,1,1,1.73,1.69,2.71,2.71,0,0,1-1.65.9c-.47.09-.61.25-.48.67a2,2,0,0,0,.45.8.63.63,0,0,0,.8,0,6.36,6.36,0,0,0,1.1-.9,6.8,6.8,0,0,0,.94-1.31,2.45,2.45,0,0,0,.28-.71c.13-.69.53-1.13,1.22-1,.33,0,.47.3.59.56a.38.38,0,0,1-.17.58c0-.17,0-.32-.09-.46a.47.47,0,0,0-.53-.37c-.29,0-.36.22-.4.42a1.06,1.06,0,0,0,0,.56c.19.48.41.94.63,1.42A4.6,4.6,0,0,0,124,26.76c0,.26.05.42,0,.5a5.81,5.81,0,0,1-.66.74,6.1,6.1,0,0,1-.59.4.89.89,0,0,0-.42.91,2.15,2.15,0,0,1,0,1c-.09.24-.15.49-.24.74a.65.65,0,0,1-.75.4c-.32,0-.48-.16-.58-.53a1.75,1.75,0,0,1,.3-1.42c.06-.08.26-.07.39-.1-.14.39-.29.78-.41,1.19,0,.13,0,.34.19.39a.29.29,0,0,0,.38-.22,2.47,2.47,0,0,0,.23-1.31C121.81,29.42,121.66,29.37,121.58,29.3Zm-20,.6c-.07,0-.16.05-.19.09-.45.7-.94,1.37-1.34,2.1a2.68,2.68,0,0,0-.37,1.43c0,.31.26.41.47.46a.6.6,0,0,0,.48-.19,2.46,2.46,0,0,0,.39-.71,8,8,0,0,0,.47-1.7C101.56,30.9,101.84,30.42,101.6,29.9Zm3.41-1a4.67,4.67,0,0,0,.08.63.33.33,0,0,0,.27.1,4.3,4.3,0,0,0,1.3-1.72,6.37,6.37,0,0,0,.21-1.33.52.52,0,0,0-.35-.56c-.24-.1-.37.08-.51.26A5.47,5.47,0,0,0,105,28.93Zm12.46-1.08a2.52,2.52,0,0,0,1.13-.33c.47-.31.93-.69.8-1.38-.06-.31-.16-.42-.46-.44a.69.69,0,0,0-.61.3A2.92,2.92,0,0,0,117.47,27.85Z"/><path d="M42.4,29.21a3.35,3.35,0,0,1-.16.54c-.17.33-.45.37-.67.08a1.35,1.35,0,0,1-.21-.59c0-.28,0-.57,0-1-.33.49-.57.87-.84,1.23a2.4,2.4,0,0,1-.61.58c-.51.31-.87.13-1-.44a6.11,6.11,0,0,1-.13-.7c0-.21,0-.43,0-.74-.36.59-.67,1.1-1,1.6a1.69,1.69,0,0,1-.37.43.58.58,0,0,1-.87-.12,1.27,1.27,0,0,1-.18-.75c.11-.72.31-1.43.45-2.15.09-.43.17-.88.23-1.32,0-.09-.09-.19-.14-.28s-.22.1-.26.19a10,10,0,0,0-.55,1.14c-.32.85-.6,1.71-.89,2.56l-.06.13c-.11.21-.17.48-.49.44a.52.52,0,0,1-.43-.51,10.11,10.11,0,0,1,0-1.24,1.45,1.45,0,0,0-.28.27c-.24.36-.45.74-.71,1.08s-.62.69-1.08.53-.49-.66-.54-1.08a3.69,3.69,0,0,0-.15-.95c-.07.12-.16.23-.22.36a6.86,6.86,0,0,1-1.48,1.9c-.52.54-1.1.38-1.25-.33-.06-.28-.09-.56-.14-.86-.28.27-.55.53-.82.81a.8.8,0,0,1-.9.28.94.94,0,0,1-.53-.87c0-.4,0-.8,0-1.35-.24.33-.39.54-.55.74A7.87,7.87,0,0,1,24,30.5a.73.73,0,0,1-.84.16.89.89,0,0,1-.54-.77,3.21,3.21,0,0,1,.24-1.47c.27-.76.54-1.52.83-2.27a.6.6,0,0,0-.3-.84c-.19.3-.35.58-.53.86-.31.47-.64.93-.93,1.41s-.52,1-.8,1.43a4.74,4.74,0,0,1-1.22,1.38c-.58.4-1,.31-1.24-.35a3.87,3.87,0,0,1-.35-1.29,4.78,4.78,0,0,1,.1-1.92.57.57,0,0,0,0-.29,6.93,6.93,0,0,1,.26-2.12c.1-.36-.05-.51-.41-.4a5.42,5.42,0,0,1-1.83.27.71.71,0,0,1-.74-.45c.23.05.42.1.61.13a8.23,8.23,0,0,0,2.31-.34c.09,0,.19-.2.22-.33.12-.45.2-.92.31-1.38a3.17,3.17,0,0,1,.2-.51c.46.2.43.57.4.94,0,.14-.08.27-.09.41a.3.3,0,0,0,.37.32,4.09,4.09,0,0,0,.69-.17,1.24,1.24,0,0,1,.91,0,1.28,1.28,0,0,1,.38.21c-.1.27-.29.08-.45.07a3.69,3.69,0,0,0-1.9.43c-.1,0-.17.22-.19.35-.11.82-.15,1.66-.31,2.47a12.29,12.29,0,0,0-.11,2.5,1.94,1.94,0,0,0,.16.75c.15.37.31.42.67.23a1.48,1.48,0,0,0,.54-.45c.41-.63.79-1.29,1.19-1.94a2.13,2.13,0,0,1,.31-.47A7.32,7.32,0,0,0,23,25.29a.58.58,0,0,0-.08-.67,1.69,1.69,0,0,1-.28-.57.43.43,0,0,1,.36-.52.42.42,0,0,1,.52.36.2.2,0,0,1,0,.07,2,2,0,0,0,.6,1.64c.16.17.12.6.06.89a9.61,9.61,0,0,1-.43,1.35,4.48,4.48,0,0,0-.38,2c0,.44.27.58.59.28a10.74,10.74,0,0,0,1.15-1.36c.62-.83,1.2-1.71,1.83-2.53A1.08,1.08,0,0,1,28.63,26a.54.54,0,0,0,.31.09c.44,0,.51,0,.49.44s-.14,1-.18,1.55-.09,1.24-.1,1.86c0,.24.2.34.39.18a4.54,4.54,0,0,0,.75-.77c.4-.56.75-1.15,1.11-1.74a1.87,1.87,0,0,0,.31-1.15,2.3,2.3,0,0,1,.1-.63c0-.2.19-.26.38-.25s.41.11.39.33a9,9,0,0,1-.29,2,2.28,2.28,0,0,0,.19,1.57c0,.05.22.09.29.06a.78.78,0,0,0,.31-.29,6.71,6.71,0,0,0,1.35-3.31c0-.16,0-.36.23-.37a.56.56,0,0,1,.53.38,1.31,1.31,0,0,1,0,.28c-.12.91-.24,1.82-.39,2.9a3.9,3.9,0,0,0,.49-1c.21-.55.38-1.11.6-1.66a2.8,2.8,0,0,1,.79-1.18.36.36,0,0,1,.45,0,.76.76,0,0,1,.48.67c0,.34.23.76-.18,1.05a.15.15,0,0,0,0,.12c.2.66-.18,1.24-.26,1.86,0,.3,0,.61-.07,1.08a3.21,3.21,0,0,0,.51-.46,9.84,9.84,0,0,0,1.25-2.38A9.43,9.43,0,0,0,39,26c.08-.37.18-.47.42-.42s.38.21.35.53c-.07.66-.2,1.32-.24,2a7.27,7.27,0,0,0,.13,1.31.15.15,0,0,0,.26.12,1.88,1.88,0,0,0,.26-.22A7.11,7.11,0,0,0,41.48,27a5.21,5.21,0,0,0,.15-1c0-.21,0-.38.31-.37s.43.09.45.36a3.63,3.63,0,0,1,0,.57c-.08.78-.18,1.55-.26,2.33,0,.05,0,.12.08.18Zm-15.55-.16a2.08,2.08,0,0,0,0,.5.41.41,0,0,0,.18.27.43.43,0,0,0,.3-.12,4.43,4.43,0,0,0,1.14-1.78,5.17,5.17,0,0,0,.19-1.25.44.44,0,0,0-.31-.5.56.56,0,0,0-.63.22A6.3,6.3,0,0,0,26.85,29.05Zm-3.74-5.2-.1,0a1.67,1.67,0,0,0,0,.39c0,.07.1.13.16.19l.06,0a.92.92,0,0,0,0-.33C23.25,24,23.16,23.94,23.11,23.85Z"/><path d="M10.28,10.36l1.76-1a8.63,8.63,0,0,1,2.09-.9c.57-.13.67-.31.72-.89.09-1.06.19-2.11.28-3.17.06-.67.1-1.33.16-2a.86.86,0,0,1,1.3-.8.41.41,0,0,1,.28.5c-.15,1-.27,1.92-.4,2.89s-.28,1.92-.4,2.89c-.08.7-.12,1.42-.17,2.13A15.48,15.48,0,0,0,15.77,12a18.91,18.91,0,0,0,.1,2.81A11,11,0,0,1,16,16.41c0,.06,0,.18-.07.18a.39.39,0,0,1-.25-.07,6.4,6.4,0,0,1-.41-.83,11,11,0,0,1-.44-2.29,26.5,26.5,0,0,1-.13-4.08,3.71,3.71,0,0,0-.05-.44,10.93,10.93,0,0,0-3,1.22c-.33.22-.66.47-1,.71A1.35,1.35,0,0,0,10.15,12a19.31,19.31,0,0,0,.1,3c.09.56.11,1.13.16,1.7a.24.24,0,0,1-.09.17.2.2,0,0,1-.19-.06,6.38,6.38,0,0,1-.58-1.28c-.17-.71-.22-1.45-.32-2.18a3.25,3.25,0,0,0-.18-.52c-.14.4-.27.69-.35,1s-.21.24-.38.21-.25-.19-.2-.38a4.3,4.3,0,0,1,.74-1.61,1,1,0,0,0,.24-.72c0-.22,0-.44,0-.65.05-1.17.05-2.34.15-3.5S9.49,5,9.54,3.92a8.85,8.85,0,0,1,.15-1.35A.93.93,0,0,1,11.17,2a.4.4,0,0,1,.09.32c-.17,1.15-.39,2.29-.53,3.44s-.21,2.27-.32,3.4C10.38,9.52,10.33,9.89,10.28,10.36Z"/><path d="M10.17,28.06c-.41.19-.8.35-1.17.56a1.36,1.36,0,0,0-.42.44A2.44,2.44,0,0,1,7,30.33a1.33,1.33,0,0,1-1.76-1.09,7.13,7.13,0,0,1-.09-.77,1.79,1.79,0,0,0-.33.37A7.18,7.18,0,0,1,3.72,30.3c-.53.63-1.26.76-1.58-.4a3.19,3.19,0,0,1-.1-.63c0-.18,0-.38,0-.67l-.58.65a.76.76,0,0,1-.83.24A.71.71,0,0,1,0,28.85a3,3,0,0,1,.51-2.31c.47-.6.77-.68,1.62-.44.14-.7.29-1.39.44-2.08a5.94,5.94,0,0,1,.7-1.85,2.4,2.4,0,0,1,.39-.5c.28-.26.49-.2.68.14a1.47,1.47,0,0,1,.1,1.05,6.92,6.92,0,0,1-1.21,2.71,1.63,1.63,0,0,0-.34,1c0,.77-.12,1.55-.17,2.33a3.43,3.43,0,0,0,.05.9.75.75,0,0,0,.3.44c.07,0,.3-.08.4-.19a10.62,10.62,0,0,0,1.61-2.17c.27-.47.5-1,.75-1.46l0-.06c.3-.55.43-.58,1-.27a1.14,1.14,0,0,1,1.2-.69A.91.91,0,0,1,9,26a2.46,2.46,0,0,1,0,1.67,1.69,1.69,0,0,0,0,.56,2.16,2.16,0,0,0,1.25-1c.27-.36.5-.75.77-1.11a1.63,1.63,0,0,1,1.84-.58.21.21,0,0,1,.1.17s-.13.11-.16.1c-.63-.28-.89.24-1.14.59A3.71,3.71,0,0,0,11,29a.39.39,0,0,0,.17.25s.19-.05.23-.11c.29-.51.6-1,.86-1.56.18-.38.29-.8.45-1.19A2.25,2.25,0,0,1,13,26c.59.76.3,1.66.51,2.52.92-.37,1.46-1.26,2.52-1.57a1.66,1.66,0,0,1-.64.67c-.54.4-1,.82-1.57,1.23a.73.73,0,0,0-.28.69,9.91,9.91,0,0,1-.29,3.12,3.39,3.39,0,0,1-.69,1.62.93.93,0,0,1-1.26.27,1,1,0,0,1-.64-1.22,7.61,7.61,0,0,1,.57-1.53,9.22,9.22,0,0,1,1.41-2.14.79.79,0,0,0,.16-.45,9,9,0,0,0-.09-1.7c-.1.16-.21.32-.3.48-.27.48-.53,1-.8,1.42a1.34,1.34,0,0,1-.34.37.64.64,0,0,1-1.06-.33A2.46,2.46,0,0,1,10.17,28.06Zm-3.42-1.6a7.78,7.78,0,0,0-.9,2.47c-.15.75.3,1.24,1,1.06a1.24,1.24,0,0,0,.6-.36,2.21,2.21,0,0,0,.68-1.15A2.28,2.28,0,0,1,6.75,26.46Zm6.11,3.45c-.28.4-.59.79-.85,1.21a7.2,7.2,0,0,0-1,2,1.3,1.3,0,0,0,.17.95.28.28,0,0,0,.43.09,1.89,1.89,0,0,0,.58-.62A7,7,0,0,0,12.86,29.91ZM.73,28.23H.78a3.09,3.09,0,0,0,0,.43c0,.33.23.39.49.19a2.24,2.24,0,0,0,.91-2.13.42.42,0,0,0-.6-.34,1,1,0,0,0-.61.66C.86,27.43.81,27.83.73,28.23Zm6.39-1.54A1.79,1.79,0,0,0,8,28c.23.11.33.06.37-.19a4,4,0,0,0,.1-.84,5.07,5.07,0,0,0-.23-1.08.39.39,0,0,0-.51-.25A1.25,1.25,0,0,0,7.12,26.69ZM3.07,25.06a4.12,4.12,0,0,0,1.11-2.12,4.13,4.13,0,0,0,0-.93c0-.05-.06-.14-.11-.14a.21.21,0,0,0-.18.08,1.65,1.65,0,0,0-.22.44c-.16.6-.31,1.19-.45,1.79C3.16,24.47,3.12,24.77,3.07,25.06Z"/><path d="M42.4,29.21,42.18,29c.3-.83.6-1.65.89-2.47a3.05,3.05,0,0,1,.75-1.2c.28-.27.49-.28.72,0a1.66,1.66,0,0,1,.29.7,4.05,4.05,0,0,1-.18,1.62c-.12.48-.26,1-.36,1.45a4.28,4.28,0,0,0,0,.72.54.54,0,0,0,.52-.37c.36-.64.68-1.3,1-1.94a10.63,10.63,0,0,1,1-1.55,1.35,1.35,0,0,1,1.72-.42.52.52,0,0,1,.12.16c-.07,0-.17.14-.21.13-.6-.26-.93.14-1.16.54A9.5,9.5,0,0,0,46.72,28a2.7,2.7,0,0,0-.12.69.83.83,0,0,0,.07.41c.09.23.21.27.36.07a6,6,0,0,0,.65-1c.26-.53.47-1.09.7-1.64,0-.11,0-.26.11-.33a.56.56,0,0,1,.37-.15s.14.17.15.27c.07.51.1,1,.17,1.55a4.48,4.48,0,0,0,.16.63l2-1.47a.47.47,0,0,1,.18-.12.22.22,0,0,1,.18.06.21.21,0,0,1,0,.19c-.24.2-.48.39-.73.57l-1.43,1.07a.67.67,0,0,0-.25.67,11.19,11.19,0,0,1-.45,3.81,3,3,0,0,1-.49.87,1,1,0,0,1-1.62.15,1.19,1.19,0,0,1-.27-1.19,9.21,9.21,0,0,1,1.1-2.38,5.67,5.67,0,0,1,.76-1,1,1,0,0,0,.25-.78,8.2,8.2,0,0,0-.08-1.52c-.29.53-.5,1-.76,1.38a6.27,6.27,0,0,1-.75,1,.55.55,0,0,1-1-.19,6,6,0,0,1-.23-1c-.23.35-.47.72-.7,1.09-.05.08-.09.17-.14.24q-.47.63-.9.42a1,1,0,0,1-.47-1c.19-.85.34-1.71.58-2.56a4.86,4.86,0,0,0,.09-1.3c-.18.14-.32.19-.37.29-.22.44-.42.9-.6,1.36C43,27.75,42.68,28.48,42.4,29.21Zm6.23.75a7.39,7.39,0,0,0-1.88,3.14.82.82,0,0,0,0,.49A.77.77,0,0,0,47,34a.49.49,0,0,0,.59-.13,3.62,3.62,0,0,0,.27-.41A8.48,8.48,0,0,0,48.63,30Z"/><path d="M57.7,24.54a1.24,1.24,0,0,1,.56-.59,1.34,1.34,0,0,0,.66-1.34.89.89,0,0,0-.67-.76.88.88,0,0,0-.94.34,2,2,0,0,0-.11,2.3,5.32,5.32,0,0,0,.83.63l.4.23c-.25,0-.38.11-.49.08a1.09,1.09,0,0,0-1,.21,2.91,2.91,0,0,0-1.39,1.65A2.21,2.21,0,0,0,56,29.35a1.28,1.28,0,0,0,1.89.09,3.26,3.26,0,0,0,.78-1.35c-.37-.08-.71-.15-1-.24,0,0-.08-.11-.08-.17s.05-.09.09-.09a.89.89,0,0,1,.28,0,4.74,4.74,0,0,0,2.84-.4.77.77,0,0,1-.63.58,1.57,1.57,0,0,0-1.17,1,3,3,0,0,1-.64.85,1.69,1.69,0,0,1-2.34.22,2.41,2.41,0,0,1-.77-3.48,3.09,3.09,0,0,1,1.63-1.27c-.21-.41-.45-.82-.62-1.25a1.83,1.83,0,0,1,.66-2.21,1.67,1.67,0,0,1,1-.16,1.38,1.38,0,0,1,1.27.64A1.45,1.45,0,0,1,59,23.72,2.11,2.11,0,0,1,57.7,24.54Z"/><path d="M110.36,6.5a.56.56,0,0,1-.76.55c-.54-.17-.73-.37-.71-.75A.46.46,0,0,1,109,6a.91.91,0,0,1,.86-.2A.68.68,0,0,1,110.36,6.5Z"/><path d="M82.05,5.8a1.14,1.14,0,0,1,.86.47.48.48,0,0,1,0,.59.56.56,0,0,1-.62.27,2.11,2.11,0,0,1-.55-.3.53.53,0,0,1-.17-.7C81.65,6,81.92,5.88,82.05,5.8Z"/><path d="M85,24.57c-.39,0-.63-.19-.56-.41a.54.54,0,0,1,.31-.32c.2-.07.58.29.52.47S85,24.52,85,24.57Z"/><path d="M40.08,24.34a.39.39,0,0,1-.37.36c-.18,0-.54-.28-.49-.43a.54.54,0,0,1,.32-.29A.51.51,0,0,1,40.08,24.34Z"/><path d="M32.84,24.4c-.07.08-.16.24-.28.29s-.61-.27-.54-.45a.59.59,0,0,1,.36-.27C32.58,23.92,32.81,24.13,32.84,24.4Z"/><path d="M77.57,23.83a.43.43,0,0,1,.38.5.37.37,0,0,1-.21.23.5.5,0,0,1-.53-.37A.37.37,0,0,1,77.57,23.83Z"/><path class="cls-1" d="M113.91,15a11.09,11.09,0,0,1-.09,2.41,3,3,0,0,1-.43.79.35.35,0,0,1-.49.14.57.57,0,0,1-.24-.39,2.76,2.76,0,0,1,.34-1.71A3.64,3.64,0,0,1,113.91,15Z"/><path d="M32.52,44.6a13.69,13.69,0,0,1-.36,3.28,2.5,2.5,0,0,1-2.53,2c-1.12,0-1.72-.52-2.09-2a12.86,12.86,0,0,1,.23-7.81c.42-1.17,1.31-1.61,2.77-1.49a2.14,2.14,0,0,1,1.71,1.91A12,12,0,0,1,32.52,44.6Zm-3.84-.22a11.64,11.64,0,0,0,.21,2.95c.21.76.44,1.84,1.28,1.82s1.34-1,1.54-1.86a14.43,14.43,0,0,0,.13-6.17c-.16-.85-.39-1.93-1.42-1.89S29.17,40.28,29,41.14A14.06,14.06,0,0,0,28.68,44.38Z"/><path d="M67.67,44.48a15.27,15.27,0,0,1,1.45-.84,1,1,0,0,1,1.49.74,5.85,5.85,0,0,1-.11,3.85,2.3,2.3,0,0,1-2.7,1.63,2.39,2.39,0,0,1-1.64-2.14,12.1,12.1,0,0,1,2-8.28A1.28,1.28,0,0,1,68.6,39c.32-.2.67-.51,1-.16s0,.6-.17.85A11.83,11.83,0,0,0,67.67,44.48Zm-.11,2.45c0,.46.06.72.08,1,0,.58,0,1.26.76,1.36a1.39,1.39,0,0,0,1.47-1A5.55,5.55,0,0,0,70.2,45c-.14-.76-.61-1-1.24-.54C68,45.08,67.26,45.84,67.56,46.93Z"/><path d="M82.13,41.23a19.31,19.31,0,0,1-1.29,7.28,6.84,6.84,0,0,1-.42.86c-.19.36-.42.67-.9.42s-.34-.58-.2-.91a30.28,30.28,0,0,0,1-3.11c.19-.58.32-1-.63-1a1.79,1.79,0,0,1-1.81-1.65,4.67,4.67,0,0,1,1-3.79,1.9,1.9,0,0,1,1.3-.74,1.52,1.52,0,0,1,2,1.59Zm-1.41.52c0-.8,0-1.34,0-1.89,0-.72-.37-.78-.94-.44a3.35,3.35,0,0,0-1,4.17c.2.35.36.78.92.65a1.08,1.08,0,0,0,1-1C80.67,42.65,80.7,42.07,80.72,41.75Z"/><path d="M49.61,42.78c-.09,2.07-.19,4.15-.28,6.22,0,.38.05.85-.49.89s-.7-.38-.76-.82a28.79,28.79,0,0,1,0-3.35c0-1.19-.09-1.24-1.26-1.19-1.35,0-1.5-.08-1.42-1.44a13.32,13.32,0,0,0,0-3c0-.26,0-.55.35-.56s.45.2.45.5c0,1,.06,2,.07,3,0,.56,0,1,.8,1s1.08-.19,1.12-.94c.06-1.18.15-2.36.25-3.53,0-.32-.11-.81.41-.82s.78.44.8.9c0,1.05,0,2.11,0,3.16Z"/><path d="M87.94,42.38c0,2.18-.44,4.34-.37,6.52,0,.38.1,1-.52.93s-.72-.5-.72-1a32.2,32.2,0,0,1,0-3.26c.08-1-.39-1.2-1.23-1.16-1.53.07-1.55,0-1.48-1.5a20.15,20.15,0,0,0,.08-2.69c0-.28-.16-.75.34-.72s.44.41.44.74c0,.93,0,1.86,0,2.78,0,.53,0,.9.69.85s1.22.19,1.26-.74c.05-1.21.12-2.43.21-3.64,0-.34-.15-.88.47-.86s.75.47.77.94C88,40.53,87.94,41.46,87.94,42.38Z"/><path d="M76.4,42.93c-.1,2-.18,4-.29,5.93,0,.37.15,1-.46,1s-.79-.52-.8-1a26.73,26.73,0,0,1,0-3.35c.11-1-.42-1.06-1.13-1-1.59.06-1.58.07-1.52-1.55,0-.89,0-1.79,0-2.68,0-.26-.12-.67.29-.69s.46.38.48.71c0,.92.07,1.85.07,2.77,0,.46-.11,1,.62.89.56,0,1.24.17,1.26-.81,0-1.21.13-2.42.24-3.63,0-.28-.17-.79.41-.79a.76.76,0,0,1,.78.81c0,1.15,0,2.3,0,3.45Z"/><path d="M43.81,43c-.11,1.88-.23,3.95-.36,6,0,.35.12.87-.47.87s-.56-.46-.66-.88a15.75,15.75,0,0,1,0-3.43c0-.86-.3-1.12-1.12-1.08-1.56.07-1.56,0-1.52-1.57,0-.89,0-1.78,0-2.68,0-.27-.14-.63.28-.69s.53.34.54.64c0,1,0,1.92,0,2.87,0,.51,0,1,.72.93s1.14.08,1.17-.81c0-1.21.17-2.42.28-3.63,0-.31-.17-.83.36-.83s.78.37.78.91Z"/><path d="M33.78,39.63c1.33-.29,2.52-.61,3.73-.79.81-.12,1.11.43.73,1.26A34.37,34.37,0,0,0,36,47c-.15.62-.2,1.26-.33,1.88-.07.35,0,.86-.6.81s-.66-.53-.62-1a22,22,0,0,1,.66-3.78,37.84,37.84,0,0,1,1.41-4.38c.26-.64.15-.87-.62-.72S34.54,40.49,33.78,39.63Z"/><path d="M51.61,48.55a30.67,30.67,0,0,1,2-7.77c.11-.3.44-.67.15-1s-.6,0-.91.07a2.73,2.73,0,0,1-1.5.08.42.42,0,0,1-.24-.25c0-.14.12-.2.25-.23l3.08-.65c.35-.08.72-.13,1,.21a1,1,0,0,1,0,1.09,33.49,33.49,0,0,0-2.5,8.61c-.06.4,0,1-.67.93S51.52,49.07,51.61,48.55Z"/><path d="M61.14,48.64a32,32,0,0,1,2-7.88c.12-.32.44-.69.19-1s-.65.06-1,.09c-.55.06-1.44.4-1.55-.1s.83-.35,1.28-.52a9,9,0,0,1,2.06-.45c.85-.1,1.2.4.85,1.19a33.25,33.25,0,0,0-2.59,8.8c-.05.34,0,1-.61.87S61.07,49.14,61.14,48.64Z"/><path d="M90.43,40.82c-.44.21-.6,1-1,.72s.21-.75.41-1.11.52-.88.8-1.31.42-.7.88-.57.5.58.48,1c-.12,2.49-.24,5-.35,7.46,0,.64,0,1.28,0,1.92,0,.32,0,.73-.4.74a.76.76,0,0,1-.77-.61,5.63,5.63,0,0,1-.11-1.23c.06-2,.15-4,.22-5.94A1.54,1.54,0,0,0,90.43,40.82Z"/></g></g></svg>