<?xml version="1.0" encoding="utf-8"?>
<!-- Generator: Adobe Illustrator 22.1.0, SVG Export Plug-In . SVG Version: 6.00 Build 0)  -->
<svg version="1.1" id="Helen_Marinakis_text_xA0_Image_1_"
	 xmlns="http://www.w3.org/2000/svg" xmlns:xlink="http://www.w3.org/1999/xlink" x="0px" y="0px" viewBox="0 0 132.3 36.6"
	 style="enable-background:new 0 0 132.3 36.6;" xml:space="preserve">
<style type="text/css">
	.st0{fill:#FFFFFF;}
</style>
<g>
	<g>
		<path d="M90.1,15.1c-0.4,0.6-0.7,1.1-1.1,1.6c-0.3,0.4-0.6,0.7-1,0.9c-0.7,0.5-1.3,0.3-1.6-0.5c-0.2-0.4-0.3-0.9-0.3-1.4
			c-0.1-0.5,0-1-0.1-1.6c-0.4,0.5-0.7,1-1,1.4c-0.6,0.9-1.3,1.7-2.1,2.4c-0.3,0.3-0.6,0.5-1,0.6c-0.7,0.2-1.5-0.2-1.7-0.9
			c-0.2-0.6-0.2-1.2,0-1.8c0.2-1,0.5-2,0.9-3c0.2-0.6,0.5-1.2,0.7-1.9c0.1-0.3,0.1-0.6,0.1-1c0-0.3-0.3-0.5-0.5-0.7c0,0-0.1,0-0.2,0
			c-0.1,0.1-0.1,0.1-0.2,0.2c-0.6,1.3-1.3,2.5-1.9,3.8c-0.8,1.8-1.8,3.5-3.3,4.8c-0.2,0.2-0.5,0.4-0.8,0.5c-0.5,0.2-0.9,0-1.1-0.5
			c-0.1-0.3-0.2-0.6-0.3-0.9c-0.1-0.5-0.1-0.9-0.1-1.4c-0.5,0.5-0.9,1.1-1.4,1.5c-0.3,0.3-0.7,0.6-1.2,0.6c-0.5,0-0.8-0.2-1-0.6
			c-0.1-0.2-0.2-0.4-0.3-0.7c-0.2,0.5-0.5,1-0.7,1.5c-0.2,0.6-0.6,1.2-1,1.7c-0.4,0.7-1.1,0.8-1.7,0.3c-0.2-0.2-0.4-0.4-0.5-0.6
			c-0.3-0.7-0.6-1.5-0.6-2.3c0-0.5-0.1-0.9-0.1-1.4c0,0,0-0.1,0-0.1c0.1-0.9,0.2-1.8,0.2-2.8c0.1-0.6,0.1-1.1,0.2-1.7
			c0.1-0.9,0.3-1.8,0.4-2.7c0.2-1,0.2-2.1,0.2-3.1c0,0,0-0.1,0-0.1c-0.1-0.4-0.4-0.5-0.7-0.2c-0.4,0.3-0.7,0.6-1,1
			c-0.8,1.1-1.5,2.3-2.3,3.4c-0.2,0.2-0.3,0.5-0.3,0.8c-0.1,0.6-0.1,1.1-0.2,1.7c-0.2,1.2-0.1,2.5-0.1,3.7c0,0.1,0,0.2,0,0.4
			c-0.1,0.2-0.3,0.3-0.5,0.2c-0.2-0.1-0.4-0.3-0.4-0.5c-0.1-0.4-0.2-0.7-0.2-1.1c0-0.7,0-1.4,0-2.1c0-0.7,0.2-1.4,0.2-2
			c0-0.1,0-0.2,0-0.3c0-0.6,0.1-1.3,0.3-1.9C61.1,7.9,61,7.4,61.1,7c0.1-0.9,0.3-1.8,0.4-2.7c0.1-0.7,0.1-1.3,0.2-2
			c0-0.2,0-0.4-0.2-0.5c-0.2,0-0.4,0-0.5,0.1c-0.3,0.3-0.6,0.6-0.8,0.9c-0.4,0.8-0.8,1.6-1.2,2.4c-0.3,0.7-0.5,1.4-0.7,2.1
			c-1,2.5-1.7,5.2-2.4,7.8c-0.1,0.4-0.2,0.7-0.3,1.1c0,0.2-0.1,0.3-0.3,0.3c-0.1,0-0.3-0.1-0.3-0.3c-0.1-0.3-0.2-0.7-0.2-1
			c-0.1-2-0.2-4-0.1-6c0-1.1,0-2.2,0.2-3.3c0.1-0.2,0-0.4,0-0.6c0-0.3,0.1-0.5,0.4-0.6c0.1-0.1,0.2-0.1,0.4,0
			c0.7,0.3,0.6,0.9,0.5,1.4c0,0.3-0.1,0.6-0.1,0.9c-0.1,1.1-0.2,2.2-0.3,3.3c0,0.8,0,1.6,0.1,2.4c0.1-0.3,0.2-0.5,0.3-0.8
			c0.7-2.7,1.6-5.3,2.7-7.9c0.3-0.8,0.9-1.5,1.3-2.2c0.4-0.5,1-0.7,1.5-0.5c0.4,0.1,0.7,0.5,0.9,0.9c0.1,0.3,0.2,0.7,0.2,1
			c0,1,0,2-0.2,3c-0.1,0.5-0.1,1.1-0.1,1.7c0.2-0.2,0.3-0.4,0.5-0.6c0.5-0.9,1.2-1.6,1.9-2.3c0.1-0.1,0.3-0.2,0.5-0.3
			c0.8-0.4,1.5-0.1,1.8,0.7c0.3,0.9,0.5,1.9,0.2,2.9c0,0.1,0,0.3,0,0.4c0,1-0.1,1.9-0.3,2.9c-0.1,0.6-0.1,1.3-0.2,1.9
			c-0.1,0.9-0.2,1.8-0.3,2.7c-0.1,1.1-0.1,2.2,0.1,3.2c0,0.1,0.1,0.3,0.2,0.4c0.1,0.2,0.3,0.3,0.5,0.1c0.2-0.2,0.5-0.5,0.6-0.8
			c0.7-1.3,1.3-2.6,1.6-4c0.2-0.8,0.2-1.6,0.5-2.3c0.3-0.6,0.6-1.2,0.9-1.7c0.3-0.5,0.8-0.8,1.4-0.9c0.1,0,0.3,0,0.5,0
			c0.3,0.1,0.6,0.2,0.9,0.4c0.3,0.2,0.5,0.2,0.8,0.2c0.5-0.1,0.8,0.3,0.7,0.8c-0.1,0.9-0.3,1.8-0.4,2.7c-0.1,0.7-0.2,1.5-0.2,2.2
			c0,0.4,0.1,0.8,0.1,1.2c0,0.3,0.4,0.4,0.6,0.2c0.4-0.3,0.8-0.7,1.1-1.1c0.8-1.1,1.6-2.2,2.1-3.5c0.5-1.3,1.3-2.5,1.9-3.8
			c0.2-0.4,0.2-0.6,0-1c-0.3-0.4-0.4-0.8-0.5-1.2c0-0.4,0.2-0.8,0.5-0.9c0.3-0.1,0.6,0,0.9,0.4c0.2,0.4,0.3,0.8,0.2,1.2
			c0,0.3-0.2,0.6-0.1,0.9c0.1,0.3,0.4,0.5,0.6,0.7c0.6,0.5,0.7,1.2,0.5,2c-0.2,0.8-0.5,1.5-0.7,2.2c-0.4,1-0.6,2-0.8,3.1
			c-0.1,0.3,0.1,0.7,0.2,1c0,0.1,0.2,0.2,0.3,0.2c0.3,0.1,0.6-0.1,0.8-0.3c0.2-0.2,0.4-0.5,0.6-0.7c1-1.1,1.8-2.3,2.6-3.5
			c0.2-0.4,0.3-0.8,0.4-1.2c0.1-0.6,0.1-1.3,0.2-1.9c0-0.4,0.2-0.5,0.7-0.5c0.6,0.1,0.8,0.3,0.7,0.9c-0.1,0.7-0.1,1.3-0.2,2
			c-0.2,1-0.1,2-0.1,3c0,0.3,0.1,0.6,0.2,0.9c0.1,0.2,0.3,0.3,0.5,0.1c0.3-0.4,0.7-0.7,1-1.1c0.3-0.5,0.6-1,0.9-1.6
			c0.4-0.8,0.4-1.7,0.5-2.6c0-0.4,0.1-0.8,0.1-1.3c0-0.3,0.2-0.3,0.4-0.3c0.1,0,0.3,0,0.4,0c0.4,0.1,0.5,0.3,0.4,0.7
			c-0.1,1.1-0.2,2.2-0.4,3.3c-0.1,0.6-0.1,1.3-0.1,2.1c0.3-0.5,0.4-0.8,0.6-1.2c0.4-1.3,0.9-2.6,1.4-3.9c0.2-0.5,0.5-0.9,0.9-1.3
			c0.5-0.6,1-0.6,1.5,0c0.5,0.7,0.5,1.4,0.4,2.2c-0.1,0.9-0.4,1.9-0.6,2.8c-0.1,0.7-0.3,1.3-0.4,2c0,0.3,0,0.6,0.3,0.8
			c0.1-0.1,0.3-0.3,0.4-0.4c0.7-1.1,1.4-2.1,1.7-3.4c0.2-0.7,0.5-1.4,0.9-2.1c0.3-0.6,0.8-1,1.3-1.3c0.5-0.2,0.9-0.2,1.4,0
			c0.3,0.1,0.5,0.3,0.7,0.4c0.1,0,0.2,0.1,0.2,0c0.4-0.2,0.6,0.1,0.9,0.2c0.1,0.1,0.1,0.3,0.1,0.5c-0.2,1.1-0.4,2.3-0.5,3.4
			c-0.1,0.8,0,1.6,0,2.4c0,0.1,0,0.2,0,0.3c0.1,0.3,0.3,0.4,0.5,0.2c0.7-0.4,1.1-1,1.5-1.5c0.6-0.9,1.2-1.8,1.6-2.7
			c0.1-0.1,0.2-0.3,0.1-0.5c-0.2-1.1,0-2.2,0.1-3.2c0.2-1.6,0.5-3.1,1.1-4.6c0.3-0.8,0.7-1.5,1.2-2.1c0.2-0.3,0.6-0.5,0.9-0.6
			c0.3-0.1,0.7,0.1,0.9,0.4c0.2,0.4,0.3,0.7,0.2,1.2c-0.3,1.7-1.2,3.1-2.2,4.4c-0.2,0.3-0.5,0.6-0.8,0.9c-0.2,0.2-0.3,0.5-0.3,0.8
			c-0.1,0.8-0.1,1.7-0.2,2.5c0,0.3,0,0.6,0,0.9c0,0.2,0.1,0.3,0.2,0.4c0.3-0.8,0.5-1.5,0.8-2.3c0.2-0.4,0.5-0.8,0.7-1.1
			c0.3-0.4,0.8-0.5,1.2-0.4c0.5,0.2,0.9,0.5,0.9,1c0.1,0.5-0.2,0.9-0.4,1.2c-0.4,0.6-1,1.1-1.8,1.2c0.1,0.3,0.2,0.6,0.3,0.9
			c0.3,0.7,0.5,1.4,1,2c0.3,0.3,0.4,0.3,0.8,0.2c0.4-0.2,0.6-0.6,0.9-0.9c0.5-0.8,1-1.7,1.4-2.5c0.1-0.2,0.2-0.4,0.2-0.7
			c0.1-0.7,0.1-1.3,0.2-2c0-0.2,0.1-0.4,0.1-0.5c0-0.3,0.2-0.3,0.4-0.3c0.1,0,0.1,0,0.2,0c0.7,0.1,0.8,0.2,0.7,0.9
			c-0.1,0.7-0.2,1.5-0.3,2.2c-0.2,0.8-0.1,1.6-0.1,2.4c0,0.3,0.1,0.5,0.1,0.8c0.1,0.2,0.2,0.4,0.4,0.6c0.2-0.1,0.5-0.2,0.6-0.4
			c0.3-0.5,0.6-1,0.9-1.5c0.1-0.2,0.2-0.5,0.4-0.8c0.3-0.5,0.5-1,0.4-1.7c-0.1-0.5-0.1-1.1,0.4-1.6c0.5-0.5,1.1-0.8,1.8-0.6
			c0.5,0.1,0.9,0.6,0.9,1.2c0,0.3,0.1,0.7-0.2,0.7c-0.4,0-0.2-0.4-0.3-0.7c0-0.4-0.3-0.7-0.7-0.8c-0.3-0.1-0.6,0.1-0.7,0.3
			c-0.2,0.4-0.3,0.7-0.2,1.2c0.3,0.9,0.7,1.8,1.2,2.7c0.4-0.1,0.7-0.3,1-0.6c0.2-0.2,0.5-0.4,0.7-0.6c0.5-0.4,1-0.8,1.3-1.4
			c0-0.1,0.1-0.1,0.2-0.1c0.1,0.1,0.2,0.2,0.1,0.3c-0.1,0.2-0.1,0.5-0.3,0.6c-0.4,0.5-0.9,0.9-1.3,1.3c-0.3,0.3-0.7,0.5-1,0.7
			c-0.4,0.3-0.5,0.4-0.4,0.9c0.2,0.6,0.1,1.3,0,1.9c-0.1,0.5-0.2,1.1-0.5,1.6c-0.3,0.5-0.9,0.9-1.4,0.8c-0.5-0.1-0.9-0.7-1-1.3
			c-0.1-0.6,0.2-1.2,0.4-1.8c0.2-0.5,0.5-1,0.9-1.3c0.3-0.2,0.3-0.4,0.2-0.7c-0.2-0.5-0.5-0.9-0.8-1.5c-0.1,0.5-0.4,0.7-0.6,1
			c-0.5,1.1-1.1,2.2-2.2,2.9c-0.6,0.4-1.1,0.2-1.4-0.4c-0.3-0.6-0.3-1.3-0.4-2c0-0.2,0-0.5-0.1-0.7c-0.2,0.4-0.5,0.8-0.7,1.2
			c-0.4,0.5-0.8,1.1-1.3,1.6c-0.5,0.6-0.9,0.5-1.5,0c-0.6-0.6-0.9-1.3-1.3-2.1c-0.1-0.3-0.2-0.5-0.3-0.8c-0.4,0.7-0.4,1.5-0.3,2.3
			c0.1,0.4,0.2,0.9,0.2,1.3c0,0.1,0,0.1,0,0.2c0,0.1-0.1,0.2-0.1,0.2c-0.1,0-0.2,0-0.2-0.1c-0.1-0.2-0.3-0.3-0.4-0.5
			c-0.5-0.9-0.7-1.9-0.9-3c0-0.1-0.1-0.2-0.1-0.5c-0.3,0.4-0.5,0.7-0.7,1.1c-0.6,1-1.3,1.9-2.1,2.7c-0.3,0.3-0.6,0.5-1.1,0.5
			c-0.3,0.1-0.6,0-0.8-0.3c-0.2-0.3-0.4-0.7-0.5-1c-0.1-0.5-0.1-1-0.2-1.5c-0.4,0.5-0.7,0.9-1.1,1.3c-0.2,0.3-0.5,0.5-0.8,0.7
			c-0.6,0.4-1.5,0.1-1.7-0.6c-0.1-0.5-0.3-1-0.4-1.4c-0.4,0.5-0.7,1.1-1.1,1.6c-0.2,0.3-0.5,0.5-0.8,0.6c-0.7,0.1-1.1-0.1-1.3-0.8
			c-0.1-0.4-0.1-0.9-0.1-1.3c0.3-1.4,0.6-2.8,0.9-4.2c0.1-0.5,0.1-1,0.2-1.6c0-0.1-0.1-0.3-0.2-0.3c0,0-0.2,0-0.3,0.1
			c-0.3,0.4-0.6,0.7-0.7,1.1c-0.6,1.4-1.1,2.8-1.5,4.3c-0.2,0.6-0.4,1.2-0.6,1.7c-0.1,0.3-0.2,0.5-0.6,0.6c-0.3,0-0.7-0.3-0.8-0.6
			c-0.1-0.3-0.1-0.7-0.2-1C90,15.6,90.1,15.3,90.1,15.1z M70.9,16.1c0,0.1,0,0.3,0,0.4c0,0.1,0.1,0.2,0.1,0.3
			c0.2,0.5,0.4,0.5,0.8,0.2c0.2-0.2,0.5-0.4,0.6-0.7c0.3-0.5,0.6-1.1,1-1.6c0.2-0.3,0.3-0.6,0.4-0.9c0.1-0.7,0.3-1.4,0.4-2.1
			c0.1-0.4-0.2-0.6-0.4-0.9c-0.2-0.2-0.5-0.2-0.9,0c-0.2,0.1-0.3,0.2-0.4,0.4c-0.3,0.4-0.5,0.9-0.7,1.4C71.3,13.8,71,14.9,70.9,16.1
			z M98.4,16.3c0,0.2,0.1,0.4,0.2,0.6c0.1,0.3,0.3,0.4,0.6,0.2c0.4-0.2,0.6-0.5,0.8-0.8c0.8-1.1,1.4-2.2,1.5-3.6
			c0-0.3,0.1-0.6,0.1-0.8c0-0.4-0.2-0.9-0.5-1c-0.4-0.1-0.7-0.1-0.9,0.3c-0.1,0.1-0.2,0.2-0.3,0.4C99,13,98.6,14.6,98.4,16.3z
			 M107.8,8.6c0.1,0,0.1,0,0.2,0.1c0.4-0.5,0.7-0.9,1-1.4c0.7-1,1.2-2.2,1.3-3.4c0-0.1,0-0.3-0.1-0.4c0-0.2-0.1-0.2-0.3-0.1
			c-0.3,0.1-0.4,0.3-0.6,0.6c-0.6,1-0.9,2.1-1.2,3.2C108,7.6,107.9,8.1,107.8,8.6z M119.1,16.2c-0.5,0.4-0.7,0.8-0.9,1.2
			c-0.3,0.5-0.4,1.1-0.3,1.7c0,0.1,0.1,0.3,0.2,0.4c0.2,0.1,0.4,0.1,0.5-0.1c0.2-0.3,0.4-0.5,0.4-0.8
			C119.2,17.8,119.1,17.1,119.1,16.2z M108.7,13.1c0.1,0,0.2,0,0.2-0.1c0.6-0.2,1.3-1.2,1.3-1.9c0-0.1,0-0.2-0.1-0.2
			c-0.2-0.1-0.3-0.2-0.5,0c-0.6,0.5-0.7,1.3-1,2C108.5,13,108.6,13.1,108.7,13.1z M81.1,8.2c0.1,0,0.1-0.1,0.2-0.1
			c0-0.3,0-0.7-0.1-1c0-0.1-0.2-0.2-0.4-0.2c-0.1,0-0.3,0.3-0.2,0.5C80.8,7.6,81,7.9,81.1,8.2z"/>
		<path d="M35.7,14.9c-0.1,0.1-0.2,0.3-0.4,0.4c-0.5,0.6-0.9,1.2-1.4,1.7c-0.5,0.5-1,0.8-1.7,1.1c-0.6,0.2-1.3-0.1-1.6-0.6
			c-0.5-0.8-0.7-1.6-0.8-2.5c0-0.3-0.1-0.6-0.1-0.9c-0.6,0.7-1,1.4-1.6,2c-0.7,0.7-1.4,1.4-2.3,1.7c-1.8,0.5-2.9-0.5-3.1-2
			c-0.2-1.2,0-2.4,0.4-3.6c0.3-0.9,0.8-1.6,1.5-2.2c0.6-0.5,1.4-0.6,2.2-0.5c0.3,0.1,0.5,0.3,0.7,0.5c0.8,0.8,0.7,2.1,0,2.9
			c-0.8,0.9-1.8,1.4-2.9,1.6c-0.4,0.1-0.5,0.2-0.5,0.6c0,0.7,0.1,1.4,0.6,2c0.2,0.2,0.4,0.3,0.7,0.3c0.4,0,0.8-0.2,1.2-0.5
			c1-0.7,1.8-1.7,2.5-2.7c0.5-0.7,0.7-1.4,0.7-2.3c0-1.7,0.2-3.5,0.8-5.2c0.4-1.2,0.7-2.5,1.5-3.5c0.3-0.4,0.6-0.8,1-1.1
			c0.4-0.3,0.7-0.3,1.1-0.1c0.3,0.2,0.5,0.7,0.5,1.1c-0.2,1.5-0.9,2.9-1.5,4.2c-0.5,1.2-1.2,2.4-1.8,3.5c-0.2,0.3-0.3,0.6-0.3,0.9
			c0,0.8,0,1.5,0,2.3c0.1,0.8,0.1,1.6,0.4,2.3c0.5,1.2,0.9,1.3,1.9,0.4c1.1-0.9,1.7-2.1,2.4-3.3c0.2-0.3,0.2-0.7,0.3-1.1
			c0.3-1,0.9-1.9,1.8-2.5c1-0.7,2.7-0.5,3.2,1.1c0.3,1-0.3,2.2-1.2,2.8c-0.7,0.4-1.3,0.7-2.1,0.9c-0.2,0-0.4,0.1-0.5,0.2
			c-0.1,0-0.1,0.1-0.1,0.2c0.1,0.5,0.1,1,0.3,1.5c0.3,0.9,0.9,1.2,1.8,0.8c0.7-0.3,1.2-0.8,1.6-1.3c0.7-0.8,1.4-1.6,1.9-2.6
			c0.2-0.3,0.2-0.5,0.2-0.9c0-0.8,0.1-1.5,0.2-2.3c0-0.1,0.1-0.2,0.2-0.2c0.3,0,0.6,0,0.8,0c0.1,0,0.2,0.2,0.3,0.4
			c0,0.2,0,0.5,0,0.7c-0.1,0.7-0.2,1.3-0.3,2c-0.1,0.5-0.2,1.1-0.2,1.6c0,0.4,0,0.8,0,1.3c0.5-0.8,0.6-1.6,0.9-2.4
			c0.4-1,0.8-2,1.2-3c0.2-0.4,0.5-0.8,0.8-1.1c0.5-0.6,1.1-0.5,1.5,0.2c0.1,0.3,0.3,0.6,0.3,0.9c0,0.6,0,1.1-0.1,1.7
			c-0.1,1.2-0.5,2.3-0.7,3.5c-0.1,0.4,0,1.3,0.1,1.7c0.5-0.3,0.7-0.7,1-1.1c0.6-1.2,1.2-2.4,1.8-3.6c0.1-0.1,0.1-0.2,0.1-0.3
			c0.1-0.1,0.2-0.1,0.3-0.2c0,0.1,0.2,0.3,0.1,0.4c-0.1,0.3-0.3,0.7-0.4,1c-0.5,1-1,2-1.6,3c-0.3,0.4-0.6,0.8-1,1.2
			c-0.5,0.5-1.5,0.1-1.6-0.6c-0.1-0.6-0.1-1.3,0-1.9c0.3-1.4,0.6-2.7,0.9-4.1c0.1-0.4,0.1-0.7,0.2-1.1c0-0.1-0.1-0.3-0.2-0.4
			c-0.2-0.1-0.3,0-0.4,0.1c-0.4,0.4-0.6,0.9-0.8,1.4c-0.2,0.6-0.5,1.1-0.6,1.7c-0.4,1.2-0.8,2.3-1.2,3.5c-0.1,0.2-0.1,0.3-0.2,0.5
			c-0.1,0.3-0.3,0.6-0.7,0.5c-0.4,0-0.6-0.3-0.7-0.5c-0.1-0.3-0.2-0.7-0.2-1.1c0.1-0.5,0.1-1,0-1.5c-0.2,0.3-0.5,0.5-0.7,0.8
			c-0.6,0.8-1.3,1.6-2.2,2.1c-0.7,0.4-1.5,0.8-2.4,0.5c-0.7-0.2-1.2-0.7-1.4-1.4C35.9,16,35.8,15.5,35.7,14.9z M27.6,11.4
			c-0.1-0.2-0.1-0.5-0.3-0.8c-0.3-0.5-0.7-0.6-1.2-0.3c-0.3,0.2-0.5,0.4-0.7,0.7c-0.3,0.4-0.6,0.8-0.8,1.2c-0.2,0.4-0.5,0.9-0.5,1.4
			c0,0.3,0.2,0.4,0.5,0.4c0.7-0.2,1.4-0.4,2-0.8C27.2,12.8,27.5,12.2,27.6,11.4z M40.7,11.3c0,0,0-0.3-0.1-0.5
			c-0.2-0.5-0.7-0.8-1.1-0.5c-0.3,0.1-0.5,0.3-0.7,0.6c-0.3,0.4-0.6,0.8-0.8,1.2c-0.3,0.5-0.4,1-0.6,1.5c-0.1,0.3-0.1,0.3,0.3,0.3
			c0.2,0,0.5,0.1,0.6,0c0.5-0.2,1.1-0.4,1.6-0.8C40.4,12.8,40.7,12.2,40.7,11.3z M31.2,9.7c0,0,0.1,0,0.1,0.1c0.3-0.5,0.6-1,0.8-1.5
			c0.7-1.3,1.1-2.6,1.6-3.9C34,3.9,34,3.4,34,2.9c0-0.1-0.1-0.2-0.1-0.3c-0.1,0-0.2,0.1-0.3,0.2c-0.2,0.2-0.3,0.4-0.4,0.6
			c-0.5,0.8-1.3,3.2-1.4,4C31.6,8.1,31.4,8.9,31.2,9.7z"/>
		<path d="M85.3,30.1c0.1-0.3,0.2-0.5,0.3-0.8c0.3-0.7,0.6-1.5,0.9-2.2c0.1-0.2,0.2-0.4,0.4-0.6c0.4-0.5,0.9-0.2,1.1,0.3
			c0.2,0.6,0,1.1-0.1,1.7c-0.1,0.7-0.5,1.4-0.4,2.2c0,0.1,0,0.2,0,0.4c0.2-0.2,0.5-0.4,0.6-0.6c0.4-0.8,0.8-1.6,1.2-2.4
			c0.1-0.1,0-0.3,0.1-0.5c0-0.2,0.1-0.5,0.2-0.7c0.1-0.1,0.3-0.2,0.4-0.2c0.1,0,0.3,0.2,0.3,0.3c0.1,0.1,0,0.3,0,0.5
			c-0.1,0.7-0.2,1.3-0.2,2c0,0.3,0.1,0.7,0.1,1c0,0.2,0.2,0.2,0.4,0.1c0.1,0,0.1-0.1,0.2-0.1c0.5-0.7,1-1.4,1.2-2.2
			c0.1-0.2,0-0.3,0.1-0.5c0-0.2,0.1-0.5,0.1-0.7c0-0.2,0.2-0.3,0.3-0.3c0.2,0,0.3,0.2,0.4,0.3c0,0.1,0,0.2,0,0.3
			c-0.1,0.4-0.1,0.9-0.2,1.3c-0.1,0.4-0.1,0.9-0.1,1.4c0.3-0.8,0.6-1.5,0.9-2.3c0.2-0.4,0.3-0.8,0.5-1.2c0.1-0.2,0.6-0.3,0.9-0.1
			c0.2,0.2,0.4,0.5,0.4,0.8c0,0.5-0.1,1-0.2,1.5c-0.2,0.6-0.4,1.3-0.4,1.9c0,0.1,0.1,0.2,0.1,0.3c0.1-0.1,0.2-0.1,0.3-0.2
			c0.4-0.6,0.7-1.2,1-1.9c0.3-0.5,0.5-1.1,0.9-1.6c0.4-0.6,1.1-0.8,1.8-0.7c0,0,0.1,0,0.1,0.1c0,0.1,0.1,0.1,0.1,0.2
			c0,0-0.1,0.1-0.1,0.1c-0.6-0.2-1,0.2-1.2,0.7C97.3,28.4,97,29.2,97,30c0,0.1,0.1,0.2,0.1,0.4c0.1-0.1,0.3-0.1,0.4-0.2
			c0.4-0.6,0.8-1.3,1-2c0.1-0.2,0.2-0.5,0.3-0.7c0-0.1,0.2-0.2,0.2-0.2c0.1,0,0.2,0.1,0.3,0.2c0,0,0,0.1,0,0.2
			c0.1,0.6,0.1,1.2,0.2,1.8c0,0.1,0,0.1,0.1,0.2c0.2-0.2,0.5-0.3,0.7-0.5c0.5-0.3,0.9-0.7,1.4-1c0.1,0,0.2,0,0.2,0
			c0,0.1,0,0.2-0.1,0.3c-0.2,0.2-0.4,0.3-0.6,0.5c-0.4,0.3-0.8,0.7-1.2,1c-0.4,0.2-0.5,0.6-0.4,1c0,0.4,0,0.9,0,1.3
			c0,1-0.3,1.9-0.6,2.8c-0.1,0.2-0.2,0.3-0.3,0.4c-0.3,0.4-0.7,0.6-1.2,0.4c-0.4-0.1-0.7-0.5-0.7-1c-0.1-0.9,0.4-1.7,0.8-2.5
			c0.3-0.6,0.7-1.1,1.1-1.6c0.2-0.2,0.3-0.5,0.2-0.7c0-0.5-0.1-0.9-0.2-1.5c-0.2,0.5-0.5,0.8-0.7,1.3c-0.2,0.4-0.5,0.7-0.8,1
			c-0.4,0.4-1,0.2-1.1-0.4c0-0.2,0-0.4-0.1-0.7c-0.3,0.2-0.4,0.4-0.5,0.6c-0.2,0.3-0.4,0.6-0.7,0.8c-0.4,0.4-1,0.1-1.1-0.4
			c0-0.5,0.1-0.9,0.2-1.4c0.1-0.7,0.4-1.4,0.5-2.1c0-0.2,0-0.5,0-0.7c-0.4,0.1-0.6,0.4-0.7,0.7c-0.4,1-0.8,2.1-1.1,3.1
			c0,0.1-0.1,0.3-0.2,0.4c-0.1,0.2-0.3,0.3-0.5,0.3c-0.3-0.1-0.4-0.2-0.4-0.5c0-0.4,0-0.8,0-1.4c-0.3,0.5-0.5,0.8-0.7,1.1
			c-0.2,0.3-0.5,0.6-0.8,0.8c-0.4,0.4-0.8,0.2-1-0.3c-0.1-0.2-0.1-0.5-0.1-0.8c0-0.2,0-0.4,0-0.7c-0.3,0.1-0.4,0.4-0.5,0.7
			c-0.2,0.4-0.5,0.8-0.8,1.1c-0.2,0.2-0.5,0.3-0.8,0.2c-0.3-0.1-0.4-0.3-0.4-0.6c-0.1-0.8,0.2-1.5,0.4-2.3c0.1-0.5,0.2-0.9,0.3-1.4
			c0-0.1,0-0.4-0.1-0.4c-0.2-0.1-0.3,0.1-0.4,0.3c-0.2,0.6-0.5,1.1-0.7,1.7c-0.2,0.7-0.4,1.3-0.7,2c-0.1,0.1-0.2,0.3-0.3,0.4
			c-0.3,0.2-0.6,0-0.7-0.4c0-0.4,0-0.8,0-1.3c-0.2,0.1-0.3,0.3-0.4,0.5c-0.3,0.4-0.5,0.8-0.9,1.2c-0.5,0.5-1,0.4-1.2-0.3
			C82,30.6,82,30.3,82,30.1c0-0.3,0-0.5,0-0.9c-0.3,0.5-0.6,0.8-0.8,1.2c-0.4,0.5-0.7,1-1.2,1.4c-0.4,0.2-0.7,0.2-0.9-0.2
			c-0.2-0.4-0.2-0.8-0.3-1.2c-0.1,0.1-0.2,0.2-0.3,0.3c-0.2,0.2-0.3,0.4-0.6,0.5c-0.9,0.4-1.2,0.3-1.4-0.7c-0.1-0.4,0-0.8,0-1.3
			c-0.4,0.5-0.8,1-1.1,1.5c-0.3,0.3-0.5,0.6-0.8,0.9c-0.3,0.2-0.6,0.4-1,0.2c-0.3-0.2-0.5-0.5-0.5-0.9c0-0.5,0.1-1,0.3-1.5
			c0.3-0.7,0.5-1.3,0.7-2c0.2-0.5,0.2-0.5-0.2-1c-0.1,0.1-0.2,0.2-0.2,0.3c-0.3,0.6-0.6,1.2-1.1,1.7c-0.4,0.6-0.7,1.2-1.1,1.8
			c-0.2,0.3-0.5,0.7-0.7,1c-0.2,0.2-0.4,0.3-0.6,0.5c-0.3,0.2-0.6,0.1-0.9-0.2c-0.4-0.5-0.5-1.1-0.5-1.7c0-1,0-2,0.2-3
			c0.1-0.5,0.1-1,0.2-1.6c-0.6,0.1-1.2,0.2-1.8,0.4c-0.5,0.1-0.7,0-1.2-0.4c0.2,0,0.3,0,0.4,0c0.2,0,0.5,0.1,0.7,0.1
			c0.4-0.1,0.8-0.2,1.3-0.3c0.9-0.2,0.9-0.2,1-1c0.1-0.3,0.2-0.7,0.3-1c0.1-0.3,0.3-0.3,0.4,0c0,0.1,0.1,0.2,0.1,0.2
			c0,0.2,0,0.4-0.1,0.6c0,0.2-0.1,0.4-0.1,0.6c0.5-0.1,0.9-0.2,1.3-0.2c0.4,0,0.9-0.2,1.3,0.3c-0.3,0-0.5,0-0.7,0
			c-0.6-0.1-1.1,0.1-1.7,0.3c-0.3,0.1-0.4,0.2-0.4,0.5c0,0.5-0.2,1.1-0.2,1.6c-0.1,1.2-0.4,2.5-0.1,3.7c0.2,0.7,0.6,0.8,1.1,0.3
			c0.3-0.3,0.5-0.7,0.8-1.1c0.4-0.6,0.7-1.1,1.1-1.7c0.3-0.6,0.7-1.2,1-1.7c0-0.1,0-0.2,0-0.2c-0.1-0.2-0.3-0.4-0.4-0.7
			c0-0.1,0-0.3,0-0.3c0.1-0.1,0.2-0.3,0.4-0.3c0.2,0,0.3,0.2,0.4,0.3c0.1,0.1,0.1,0.3,0.1,0.4c0,0.4-0.1,0.8,0.5,1
			c0.3,0.4,0.4,0.9,0.2,1.4c-0.2,0.5-0.3,1-0.5,1.5c-0.2,0.6-0.3,1.1-0.3,1.7c0,0.3,0.3,0.5,0.5,0.3c0.3-0.3,0.6-0.5,0.9-0.9
			c0.5-0.7,1-1.4,1.5-2.1c0.3-0.4,0.6-0.8,0.9-1.1c0.4-0.4,0.8-0.5,1.3-0.2c0.2,0.1,0.4,0.1,0.6,0.2c0.4,0.1,0.4,0.1,0.4,0.5
			c0,0.4-0.1,0.9-0.2,1.3c-0.1,0.7-0.1,1.3-0.1,2c0,0.3,0.2,0.4,0.4,0.2c0.2-0.1,0.3-0.3,0.5-0.4c0.4-0.6,0.8-1.2,1.2-1.8
			c0.3-0.5,0.5-1,0.4-1.6c0-0.4,0.2-0.6,0.5-0.5c0.3,0,0.4,0.2,0.4,0.5c-0.2,0.9-0.3,1.8-0.3,2.7c0,0.1,0,0.3,0,0.4
			c0,0.1,0.1,0.2,0.2,0.3c0.1,0,0.3,0,0.4-0.1c0.6-1,1.4-1.9,1.4-3.2c0,0,0-0.1,0-0.1c0-0.3,0.2-0.4,0.5-0.4c0.3,0,0.3,0.3,0.3,0.5
			c-0.1,0.9-0.2,1.8-0.3,2.8C85.2,30,85.2,30,85.3,30.1z M79.1,28c0-0.4,0-0.6-0.4-0.7c-0.3-0.1-0.5,0.1-0.6,0.3
			c-0.5,0.9-0.9,1.9-0.9,3c0,0.1,0.1,0.3,0.1,0.3c0.1,0,0.4,0,0.4-0.1C78.6,30,79.1,29.1,79.1,28z M99,31.1c-0.5,0.3-0.7,0.8-1,1.2
			c-0.4,0.7-0.8,1.3-0.9,2.1c0,0.3,0.1,0.6,0.3,0.7c0.3,0.1,0.4-0.1,0.6-0.3c0,0,0.1-0.1,0.1-0.2c0.4-0.4,0.4-0.9,0.5-1.4
			C98.9,32.7,99,31.9,99,31.1z M73.4,25c-0.1,0.3-0.1,0.5,0.2,0.6c0,0,0.1,0,0.1-0.1c0.1-0.2-0.1-0.4-0.2-0.5
			C73.5,25,73.5,25,73.4,25z"/>
		<path d="M126.8,30.5c0-0.9-0.1-1-0.6-1.8c-0.2,0.3-0.5,0.6-0.7,0.9c-0.4,0.4-0.7,0.8-1.1,1.2c-0.4,0.4-0.9,0.7-1.6,0.5
			c-0.7-0.2-0.9-0.8-1.1-1.4c0-0.1,0-0.2,0-0.4c-0.4,0.5-0.7,1.1-1,1.6c-0.1,0.1-0.2,0.2-0.3,0.3c-0.3,0.3-0.6,0.4-0.9,0.2
			c-0.3-0.2-0.5-0.4-0.5-0.8c0-0.6,0.1-1.2,0.3-1.8c0.2-0.6,0.4-1.3,0.3-2.1c-0.2,0.3-0.3,0.5-0.4,0.7c-0.4,0.8-0.8,1.6-1.1,2.4
			c-0.1,0.1-0.1,0.3-0.2,0.4c-0.1,0.1-0.1,0.4-0.4,0.4c-0.2,0-0.5-0.3-0.5-0.6c0-0.4,0.1-0.9,0.2-1.3c0.1-0.7,0.3-1.4,0.2-2.3
			c-0.1,0.2-0.2,0.3-0.2,0.4c-0.1,0.1-0.1,0.3-0.2,0.4c-0.3,0.9-0.6,1.7-0.9,2.6c-0.1,0.2-0.2,0.5-0.4,0.7c-0.2,0.2-0.5,0.2-0.6-0.1
			c-0.1-0.2-0.1-0.4-0.2-0.5c0-0.2-0.1-0.3-0.1-0.6c-0.4,0.6-0.8,1.1-1.2,1.7c-0.2,0.3-0.5,0.5-0.7,0.7c-0.4,0.3-0.8,0.2-1-0.3
			c-0.1-0.2-0.1-0.5-0.2-0.7c0-0.1,0-0.3,0-0.5c-0.2,0.2-0.3,0.3-0.4,0.4c-0.1,0.1-0.2,0.3-0.4,0.4c-0.3,0.3-0.7,0.5-1.1,0.3
			c-0.4-0.2-0.5-0.6-0.5-1c0-0.6,0.1-1.2,0.2-1.9c-0.1,0.1-0.3,0.1-0.4,0.2c-0.2,0.1-0.3,0.2-0.5,0.3c-0.4,0.3-0.9,0.6-1.1,1
			c-0.2,0.4-0.1,0.9-0.1,1.4c-0.1,0.9-0.2,1.9-0.5,2.8c-0.1,0.3-0.3,0.6-0.4,0.9c-0.3,0.5-0.8,0.7-1.3,0.5c-0.4-0.1-0.8-0.7-0.7-1.1
			c0-0.3,0.1-0.6,0.2-0.9c0.2-0.8,0.7-1.5,1.2-2.2c0.8-1.2,0.8-1.2,0.7-2.6c0-0.1,0-0.2-0.1-0.4c-0.2,0.3-0.3,0.5-0.4,0.8
			c-0.3,0.4-0.5,0.9-0.8,1.3c-0.1,0.2-0.3,0.3-0.5,0.4c-0.3,0.1-0.6,0-0.7-0.4c-0.1-0.4-0.2-0.8-0.1-1.3c0.2-0.7,0.3-1.4,0.7-2
			c0.4-0.6,1-0.9,1.7-0.7c0.1,0,0.2,0.1,0.4,0.2c-0.1,0-0.2,0.1-0.3,0.1c-0.6-0.1-0.9,0.3-1.2,0.8c-0.4,0.7-0.5,1.4-0.7,2.2
			c0,0.1,0,0.2,0.1,0.3c0.1,0.2,0.2,0.3,0.4,0.1c0.3-0.4,0.6-0.8,0.8-1.2c0.2-0.5,0.4-1,0.6-1.5c0-0.1,0.1-0.2,0.1-0.2
			c0.1-0.1,0.2-0.1,0.3-0.1c0.1,0,0.1,0.1,0.1,0.2c0.1,0.5,0.1,1,0.2,1.5c0,0.2,0.1,0.5,0.1,0.7c0.8-0.5,1.5-1,2.2-1.6
			c0.2-0.2,0.5-0.4,0.6-0.7c0.6-0.7,0.9-0.8,1.7-0.3c0.1,0,0.2,0.1,0.2,0.1c0.6,0.1,0.6,0.1,0.6,0.6c0,0.5-0.1,1-0.2,1.5
			c0,0.5-0.1,1-0.1,1.6c0,0.1,0.1,0.3,0.2,0.5c0.4-0.4,0.7-0.8,1-1.2c0.2-0.3,0.4-0.7,0.7-1c0.4-0.5,0.6-1.1,0.6-1.7
			c0-0.2,0.1-0.3,0.3-0.3c0.3,0,0.3,0.2,0.3,0.4c0,0.4-0.1,0.8-0.1,1.3c0,0.4,0,0.8,0,1.2c0.2-0.4,0.4-0.7,0.5-1.1
			c0.2-0.8,0.5-1.6,0.9-2.3c0.1-0.2,0.2-0.5,0.6-0.4c0.3,0.1,0.5,0.3,0.5,0.6c0,0.7,0.1,1.4-0.1,2.1c0,0.1,0,0.2,0.1,0.3
			c0.2-0.5,0.4-0.9,0.7-1.4c0.1-0.3,0.3-0.5,0.4-0.8c0.1-0.3,0.4-0.5,0.7-0.4c0.3,0.1,0.5,0.4,0.5,0.7c0,0.6-0.1,1.3-0.2,1.9
			c-0.1,0.5-0.2,0.9-0.3,1.4c0,0.1,0,0.2,0,0.3c0.1,0.4,0.3,0.5,0.6,0.2c0.3-0.3,0.5-0.6,0.7-1c0.5-0.9,0.9-1.7,1.3-2.6
			c0.2-0.3,0.4-0.6,0.6-0.8c0.4-0.4,1.3-0.5,1.7-0.1c0.5,0.4,0.5,1.2,0.1,1.8c-0.4,0.5-1,0.8-1.7,0.9c-0.5,0.1-0.6,0.2-0.5,0.7
			c0.1,0.3,0.2,0.6,0.4,0.8c0.2,0.2,0.6,0.2,0.8,0c0.4-0.3,0.8-0.6,1.1-0.9c0.4-0.4,0.7-0.8,0.9-1.3c0.1-0.2,0.2-0.4,0.3-0.7
			c0.1-0.7,0.5-1.1,1.2-1c0.3,0.1,0.5,0.3,0.6,0.6c0.1,0.2,0.1,0.4-0.2,0.6c0-0.2,0-0.3-0.1-0.5c-0.1-0.3-0.2-0.4-0.5-0.4
			c-0.3,0-0.4,0.2-0.4,0.4c0,0.2,0,0.4,0,0.6c0.2,0.5,0.4,0.9,0.6,1.4c0.8-0.4,1.3-0.9,1.9-1.6c0,0.3,0.1,0.4,0,0.5
			c-0.2,0.3-0.4,0.5-0.7,0.7c-0.2,0.2-0.4,0.3-0.6,0.4c-0.3,0.2-0.5,0.5-0.4,0.9c0.1,0.3,0.1,0.7,0,1c-0.1,0.2-0.2,0.5-0.2,0.7
			c-0.1,0.4-0.4,0.4-0.8,0.4c-0.3,0-0.5-0.2-0.6-0.5c-0.1-0.5,0-1,0.3-1.4c0.1-0.1,0.3-0.1,0.4-0.1c-0.1,0.4-0.3,0.8-0.4,1.2
			c0,0.1-0.1,0.3,0.2,0.4c0.2,0,0.3,0,0.4-0.2c0.2-0.4,0.3-0.9,0.2-1.3C127,30.6,126.9,30.6,126.8,30.5z M106.8,31.1
			c-0.1,0-0.2,0-0.2,0.1c-0.5,0.7-0.9,1.4-1.3,2.1c-0.2,0.4-0.4,0.9-0.4,1.4c0,0.3,0.3,0.4,0.5,0.5c0.1,0,0.4-0.1,0.5-0.2
			c0.2-0.2,0.3-0.5,0.4-0.7c0.2-0.6,0.4-1.1,0.5-1.7C106.8,32.1,107.1,31.6,106.8,31.1z M110.2,30.2c0,0.3,0,0.4,0.1,0.6
			c0,0.1,0.2,0.1,0.3,0.1c0.5-0.5,1-1,1.3-1.7c0.1-0.4,0.2-0.9,0.2-1.3c0-0.3-0.1-0.5-0.3-0.6c-0.2-0.1-0.4,0.1-0.5,0.3
			C110.6,28.3,110.4,29.3,110.2,30.2z M122.7,29.1c0.4,0,0.8-0.1,1.1-0.3c0.5-0.3,0.9-0.7,0.8-1.4c-0.1-0.3-0.2-0.4-0.5-0.4
			c-0.3,0-0.5,0.1-0.6,0.3C123.1,27.8,122.7,28.3,122.7,29.1z"/>
		<path d="M47.6,30.4c-0.1,0.2-0.1,0.4-0.2,0.5c-0.2,0.3-0.5,0.4-0.7,0.1c-0.1-0.2-0.2-0.4-0.2-0.6c0-0.3,0-0.6,0-1
			c-0.3,0.5-0.6,0.9-0.8,1.2c-0.2,0.2-0.4,0.4-0.6,0.6c-0.5,0.3-0.9,0.1-1-0.4c0-0.2-0.1-0.5-0.1-0.7c0-0.2,0-0.4,0-0.7
			c-0.4,0.6-0.7,1.1-1,1.6c-0.1,0.2-0.2,0.3-0.4,0.4c-0.3,0.2-0.7,0.2-0.9-0.1c-0.1-0.2-0.2-0.5-0.2-0.7c0.1-0.7,0.3-1.4,0.5-2.1
			c0.1-0.4,0.2-0.9,0.2-1.3c0-0.1-0.1-0.2-0.1-0.3c-0.1,0.1-0.2,0.1-0.3,0.2c-0.2,0.4-0.4,0.8-0.6,1.1c-0.3,0.8-0.6,1.7-0.9,2.6
			c0,0,0,0.1-0.1,0.1c-0.1,0.2-0.2,0.5-0.5,0.4c-0.3,0-0.4-0.3-0.4-0.5c-0.1-0.4,0-0.8,0-1.2c-0.1,0.1-0.2,0.2-0.3,0.3
			c-0.2,0.4-0.4,0.7-0.7,1.1c-0.3,0.3-0.6,0.7-1.1,0.5c-0.5-0.2-0.5-0.7-0.5-1.1c0-0.3,0-0.6-0.1-0.9c-0.1,0.1-0.2,0.2-0.2,0.4
			c-0.3,0.8-0.9,1.3-1.5,1.9c-0.5,0.5-1.1,0.4-1.3-0.3c-0.1-0.3-0.1-0.6-0.1-0.9c-0.3,0.3-0.6,0.5-0.8,0.8c-0.3,0.3-0.5,0.4-0.9,0.3
			c-0.4-0.2-0.5-0.5-0.5-0.9c0-0.4,0-0.8,0-1.4c-0.2,0.3-0.4,0.5-0.6,0.7c-0.5,0.6-0.9,1.2-1.5,1.7c-0.3,0.2-0.5,0.3-0.8,0.2
			c-0.4-0.2-0.5-0.4-0.5-0.8c-0.1-0.5,0.1-1,0.2-1.5c0.3-0.8,0.5-1.5,0.8-2.3c0.2-0.4,0-0.6-0.3-0.8c-0.2,0.3-0.4,0.6-0.5,0.9
			c-0.3,0.5-0.6,0.9-0.9,1.4c-0.3,0.5-0.5,1-0.8,1.4c-0.3,0.5-0.7,1-1.2,1.4c-0.6,0.4-1,0.3-1.2-0.3c-0.2-0.4-0.3-0.9-0.3-1.3
			c0-0.6-0.1-1.3,0.1-1.9c0-0.1,0-0.2,0-0.3c0-0.7,0.1-1.4,0.3-2.1c0.1-0.4-0.1-0.5-0.4-0.4c-0.6,0.2-1.2,0.3-1.8,0.3
			c-0.3,0-0.6-0.1-0.7-0.4c0.2,0,0.4,0.1,0.6,0.1c0.8,0.1,1.5-0.2,2.3-0.3c0.1,0,0.2-0.2,0.2-0.3c0.1-0.5,0.2-0.9,0.3-1.4
			c0-0.2,0.1-0.3,0.2-0.5c0.5,0.2,0.4,0.6,0.4,0.9c0,0.1-0.1,0.3-0.1,0.4c0,0.2,0.2,0.4,0.4,0.3c0.2,0,0.5-0.1,0.7-0.2
			c0.3-0.1,0.6-0.1,0.9,0c0.1,0,0.4,0.2,0.4,0.2c-0.1,0.3-0.3,0.1-0.5,0.1c-0.7-0.1-1.3,0.1-1.9,0.4c-0.1,0-0.2,0.2-0.2,0.4
			c-0.1,0.8-0.2,1.7-0.3,2.5c-0.2,0.8-0.1,1.7-0.1,2.5c0,0.3,0.1,0.5,0.2,0.8c0.1,0.4,0.3,0.4,0.7,0.2c0.2-0.1,0.4-0.3,0.5-0.4
			c0.4-0.6,0.8-1.3,1.2-1.9c0.1-0.2,0.2-0.3,0.3-0.5c0.5-0.5,0.7-1.2,1.1-1.8c0.1-0.2,0.1-0.4-0.1-0.7c-0.1-0.2-0.2-0.4-0.3-0.6
			c-0.1-0.3,0.1-0.5,0.4-0.5c0.3,0,0.5,0.1,0.5,0.4c0,0,0,0,0,0.1c-0.1,0.6,0.1,1.2,0.6,1.6c0.2,0.2,0.1,0.6,0.1,0.9
			c-0.1,0.5-0.3,0.9-0.4,1.4c-0.2,0.7-0.5,1.3-0.4,2c0,0.4,0.3,0.6,0.6,0.3c0.4-0.4,0.8-0.9,1.1-1.4c0.6-0.8,1.2-1.7,1.8-2.5
			c0.4-0.6,1-0.8,1.7-0.3c0.1,0.1,0.2,0.1,0.3,0.1c0.4,0,0.5,0,0.5,0.4c0,0.5-0.1,1-0.2,1.6c-0.1,0.6-0.1,1.2-0.1,1.9
			c0,0.2,0.2,0.3,0.4,0.2c0.3-0.2,0.6-0.5,0.8-0.8c0.4-0.6,0.7-1.2,1.1-1.7c0.2-0.4,0.3-0.7,0.3-1.2c0-0.2,0.1-0.4,0.1-0.6
			c0-0.2,0.2-0.3,0.4-0.3c0.2,0,0.4,0.1,0.4,0.3c-0.1,0.7-0.1,1.4-0.3,2c-0.2,0.6,0,1.1,0.2,1.6c0,0.1,0.2,0.1,0.3,0.1
			c0.1-0.1,0.2-0.2,0.3-0.3c0.6-1,1.3-2,1.4-3.3c0-0.2,0-0.4,0.2-0.4c0.2,0,0.5,0.2,0.5,0.4c0,0.1,0,0.2,0,0.3
			c-0.1,0.9-0.2,1.8-0.4,2.9c0.3-0.4,0.4-0.7,0.5-1c0.2-0.6,0.4-1.1,0.6-1.7c0.2-0.4,0.4-0.9,0.8-1.2c0.2-0.1,0.3-0.1,0.5,0
			c0.3,0.1,0.5,0.4,0.5,0.7c0,0.3,0.2,0.8-0.2,1.1c0,0-0.1,0.1,0,0.1c0.2,0.7-0.2,1.2-0.3,1.9c0,0.3,0,0.6-0.1,1.1
			c0.3-0.2,0.4-0.3,0.5-0.5c0.5-0.7,1-1.5,1.3-2.4c0.1-0.4,0.1-0.8,0.2-1.2c0.1-0.4,0.2-0.5,0.4-0.4c0.3,0,0.4,0.2,0.3,0.5
			c-0.1,0.7-0.2,1.3-0.2,2c0,0.4,0.1,0.9,0.1,1.3c0,0.1,0.1,0.2,0.3,0.1c0.1-0.1,0.2-0.1,0.3-0.2c0.5-0.7,1-1.4,1.3-2.3
			c0.1-0.3,0.1-0.7,0.1-1.1c0-0.2,0-0.4,0.3-0.4c0.2,0,0.4,0.1,0.4,0.4c0,0.2,0,0.4,0,0.6c-0.1,0.8-0.2,1.6-0.3,2.3
			c0,0.1,0.1,0.1,0.1,0.2C47.5,30.3,47.5,30.4,47.6,30.4z M32.1,30.3c0,0.2,0,0.3,0,0.5c0,0.1,0.1,0.2,0.2,0.3c0.1,0,0.2,0,0.3-0.1
			c0.5-0.5,0.9-1.1,1.1-1.8c0.1-0.4,0.2-0.8,0.2-1.3c0-0.2-0.1-0.4-0.3-0.5c-0.2-0.1-0.5,0-0.6,0.2C32.5,28.4,32.1,29.3,32.1,30.3z
			 M28.3,25.1c-0.1,0-0.1,0-0.1,0.1c0,0.1,0,0.3,0,0.4c0,0.1,0.1,0.1,0.2,0.2c0,0,0.1,0,0.1,0c0-0.1,0-0.2,0-0.3
			C28.5,25.2,28.4,25.2,28.3,25.1z"/>
		<path d="M15.5,11.6c0.6-0.4,1.2-0.7,1.8-1c0.7-0.4,1.3-0.7,2.1-0.9c0.6-0.1,0.7-0.3,0.7-0.9c0.1-1.1,0.2-2.1,0.3-3.2
			c0.1-0.7,0.1-1.3,0.2-2c0.1-0.8,0.6-1.1,1.3-0.8C22,3,22.1,3.1,22.1,3.4c-0.1,1-0.3,1.9-0.4,2.9c-0.1,1-0.3,1.9-0.4,2.9
			c-0.1,0.7-0.1,1.4-0.2,2.1c0,0.6-0.2,1.3-0.1,1.9c0.1,0.9-0.1,1.9,0.1,2.8c0.1,0.5,0.1,1.1,0.2,1.6c0,0.1,0,0.2-0.1,0.2
			c-0.1,0-0.2,0-0.2-0.1c-0.2-0.3-0.3-0.5-0.4-0.8c-0.3-0.7-0.3-1.5-0.4-2.3c-0.2-1.4-0.1-2.7-0.1-4.1c0-0.1,0-0.3-0.1-0.4
			c-1.1,0.3-2.1,0.6-3,1.2c-0.3,0.2-0.7,0.5-1,0.7c-0.4,0.3-0.6,0.7-0.6,1.2c0,1-0.1,2,0.1,3c0.1,0.6,0.1,1.1,0.2,1.7
			c0,0.1,0,0.2-0.1,0.2c0,0-0.2,0-0.2-0.1c-0.2-0.4-0.5-0.8-0.6-1.3c-0.2-0.7-0.2-1.5-0.3-2.2c0-0.1-0.1-0.3-0.2-0.5
			c-0.1,0.4-0.3,0.7-0.3,1c-0.1,0.2-0.2,0.2-0.4,0.2c-0.2,0-0.2-0.2-0.2-0.4c0.1-0.6,0.4-1.1,0.7-1.6c0.2-0.2,0.3-0.5,0.2-0.7
			c0-0.2,0-0.4,0-0.6c0-1.2,0-2.3,0.2-3.5c0.1-1.1,0.2-2.2,0.3-3.3c0-0.4,0.1-0.9,0.2-1.3c0.1-0.7,0.9-1,1.5-0.6
			c0.1,0.1,0.1,0.2,0.1,0.3c-0.2,1.1-0.4,2.3-0.5,3.4c-0.1,1.1-0.2,2.3-0.3,3.4C15.6,10.7,15.6,11.1,15.5,11.6z"/>
		<path d="M15.4,29.3c-0.4,0.2-0.8,0.3-1.2,0.6c-0.2,0.1-0.3,0.3-0.4,0.4c-0.4,0.6-0.8,1.1-1.6,1.3c-1,0.2-1.6-0.2-1.8-1.1
			c-0.1-0.2-0.1-0.5-0.1-0.8c-0.1,0.1-0.3,0.2-0.3,0.4c-0.3,0.6-0.7,1-1.1,1.5c-0.5,0.6-1.3,0.8-1.6-0.4c-0.1-0.2-0.1-0.4-0.1-0.6
			c0-0.2,0-0.4,0-0.7c-0.2,0.3-0.4,0.5-0.6,0.7c-0.2,0.3-0.5,0.3-0.8,0.2c-0.4-0.1-0.5-0.4-0.6-0.6c-0.1-0.8,0-1.6,0.5-2.3
			c0.5-0.6,0.8-0.7,1.6-0.4c0.1-0.7,0.3-1.4,0.4-2.1C8,24.6,8.2,24,8.5,23.4c0.1-0.2,0.2-0.4,0.4-0.5c0.3-0.3,0.5-0.2,0.7,0.1
			c0.2,0.3,0.2,0.7,0.1,1c-0.2,1-0.6,1.9-1.2,2.7c-0.2,0.3-0.3,0.6-0.3,1c0,0.8-0.1,1.6-0.2,2.3c0,0.3,0,0.6,0,0.9
			c0,0.2,0.2,0.4,0.3,0.4c0.1,0,0.3-0.1,0.4-0.2c0.6-0.7,1.2-1.4,1.6-2.2c0.3-0.5,0.5-1,0.7-1.5c0,0,0,0,0-0.1
			c0.3-0.5,0.4-0.6,1-0.3c0.2-0.5,0.6-0.7,1.2-0.7c0.4,0,0.7,0.3,0.8,0.6c0.1,0.6,0.3,1.1,0,1.7c-0.1,0.1,0,0.3,0,0.6
			c0.6-0.1,0.9-0.6,1.2-1c0.3-0.4,0.5-0.7,0.8-1.1c0.4-0.6,1.2-0.8,1.8-0.6c0,0,0.1,0.1,0.1,0.2c0,0-0.1,0.1-0.2,0.1
			c-0.6-0.3-0.9,0.2-1.1,0.6c-0.5,0.8-0.8,1.6-0.7,2.6c0,0.1,0.1,0.2,0.2,0.3c0,0,0.2,0,0.2-0.1c0.3-0.5,0.6-1,0.9-1.6
			c0.2-0.4,0.3-0.8,0.5-1.2c0.1-0.1,0.2-0.3,0.3-0.4c0.6,0.8,0.3,1.7,0.5,2.5c0.9-0.4,1.5-1.3,2.5-1.6c-0.2,0.4-0.4,0.5-0.6,0.7
			c-0.5,0.4-1,0.8-1.6,1.2c-0.2,0.2-0.3,0.4-0.3,0.7c0.1,1.1,0,2.1-0.3,3.1c-0.1,0.6-0.3,1.2-0.7,1.6c-0.4,0.4-0.8,0.5-1.3,0.3
			c-0.5-0.2-0.8-0.7-0.6-1.2c0.1-0.5,0.3-1,0.6-1.5c0.4-0.8,0.8-1.5,1.4-2.1c0.1-0.1,0.2-0.3,0.2-0.4c0-0.5,0-1.1-0.1-1.7
			c-0.1,0.2-0.2,0.3-0.3,0.5c-0.3,0.5-0.5,1-0.8,1.4c-0.1,0.1-0.2,0.3-0.3,0.4c-0.4,0.3-0.9,0.2-1.1-0.3
			C15.3,30.2,15.3,29.7,15.4,29.3z M12,27.7c-0.5,0.8-0.7,1.6-0.9,2.5c-0.2,0.8,0.3,1.2,1,1.1c0.2-0.1,0.4-0.2,0.6-0.4
			c0.3-0.3,0.6-0.7,0.7-1.1C12.5,29.3,12.1,28.6,12,27.7z M18.1,31.1c-0.3,0.4-0.6,0.8-0.9,1.2c-0.4,0.6-0.7,1.3-1,2
			c-0.1,0.4,0,0.7,0.2,0.9c0.1,0.2,0.3,0.2,0.4,0.1c0.2-0.2,0.5-0.4,0.6-0.6C17.9,33.6,18.2,32.5,18.1,31.1z M5.9,29.5
			C6,29.5,6,29.5,5.9,29.5C6,29.6,6,29.7,6,29.9c0,0.3,0.2,0.4,0.5,0.2c0.7-0.5,1-1.2,0.9-2.1c0-0.3-0.3-0.5-0.6-0.3
			c-0.3,0.1-0.5,0.4-0.6,0.7C6.1,28.7,6,29.1,5.9,29.5z M12.3,27.9c0.1,0.5,0.3,1,0.9,1.3c0.2,0.1,0.3,0.1,0.4-0.2
			c0-0.3,0.1-0.6,0.1-0.8c0-0.4-0.1-0.7-0.2-1.1c-0.1-0.2-0.3-0.3-0.5-0.3C12.6,27,12.3,27.5,12.3,27.9z M8.3,26.3
			c0.6-0.6,0.9-1.3,1.1-2.1c0.1-0.3,0-0.6,0-0.9c0-0.1-0.1-0.1-0.1-0.1c-0.1,0-0.1,0-0.2,0.1c-0.1,0.1-0.2,0.3-0.2,0.4
			c-0.2,0.6-0.3,1.2-0.4,1.8C8.4,25.7,8.3,26,8.3,26.3z"/>
		<path d="M47.6,30.4c-0.1-0.1-0.1-0.1-0.2-0.2c0.3-0.8,0.6-1.6,0.9-2.5c0.2-0.5,0.4-0.9,0.7-1.2c0.3-0.3,0.5-0.3,0.7,0
			c0.1,0.2,0.3,0.5,0.3,0.7c0.1,0.5,0,1.1-0.2,1.6c-0.1,0.5-0.3,1-0.4,1.4c0,0.2,0,0.5,0,0.7c0.3,0,0.4-0.2,0.5-0.4
			c0.4-0.6,0.7-1.3,1-1.9c0.3-0.5,0.6-1.1,1-1.6c0.5-0.6,1.2-0.7,1.7-0.4c0.1,0,0.1,0.1,0.1,0.2c-0.1,0-0.2,0.1-0.2,0.1
			c-0.6-0.3-0.9,0.1-1.2,0.5c-0.3,0.5-0.4,1-0.6,1.6c-0.1,0.2-0.1,0.5-0.1,0.7c0,0.1,0,0.3,0.1,0.4c0.1,0.2,0.2,0.3,0.4,0.1
			c0.2-0.3,0.5-0.7,0.7-1c0.3-0.5,0.5-1.1,0.7-1.6c0-0.1,0-0.3,0.1-0.3c0.1-0.1,0.2-0.1,0.4-0.2c0,0,0.1,0.2,0.2,0.3
			c0.1,0.5,0.1,1,0.2,1.6c0,0.2,0.1,0.4,0.2,0.6c0.7-0.5,1.4-1,2-1.5c0.1,0,0.1-0.1,0.2-0.1c0.1,0,0.2,0,0.2,0.1c0,0,0,0.2,0,0.2
			c-0.2,0.2-0.5,0.4-0.7,0.6c-0.5,0.4-1,0.7-1.4,1.1c-0.2,0.2-0.3,0.4-0.3,0.7c0.1,1.3-0.1,2.6-0.5,3.8c-0.1,0.3-0.3,0.6-0.5,0.9
			c-0.4,0.6-1.1,0.7-1.6,0.1c-0.3-0.3-0.4-0.7-0.3-1.2c0.2-0.9,0.6-1.6,1.1-2.4c0.2-0.4,0.5-0.7,0.8-1c0.2-0.2,0.3-0.5,0.3-0.8
			c0-0.5,0-0.9-0.1-1.5c-0.3,0.5-0.5,1-0.8,1.4c-0.2,0.3-0.5,0.7-0.7,1c-0.3,0.4-0.8,0.3-1-0.2c-0.1-0.3-0.2-0.6-0.2-1
			c-0.2,0.4-0.5,0.7-0.7,1.1c-0.1,0.1-0.1,0.2-0.1,0.2c-0.3,0.4-0.6,0.6-0.9,0.4c-0.3-0.2-0.6-0.6-0.5-1c0.2-0.9,0.3-1.7,0.6-2.6
			c0.1-0.4,0.1-0.8,0.1-1.3c-0.2,0.1-0.3,0.2-0.4,0.3c-0.2,0.4-0.4,0.9-0.6,1.4C48.2,29,47.9,29.7,47.6,30.4z M53.8,31.2
			c-0.9,0.9-1.5,1.9-1.9,3.1c0,0.2-0.1,0.3,0,0.5c0.1,0.2,0.2,0.4,0.3,0.4c0.2,0.1,0.4,0.1,0.6-0.1c0.1-0.1,0.2-0.3,0.3-0.4
			C53.7,33.6,53.7,32.4,53.8,31.2z"/>
		<path d="M62.9,25.8c0.2-0.4,0.4-0.5,0.6-0.6c0.5-0.3,0.8-0.7,0.7-1.3c-0.1-0.4-0.3-0.7-0.7-0.8c-0.4-0.1-0.7,0-0.9,0.3
			c-0.5,0.7-0.6,1.8-0.1,2.3c0.2,0.3,0.6,0.4,0.8,0.6c0.1,0.1,0.2,0.1,0.4,0.2c-0.2,0-0.4,0.1-0.5,0.1c-0.4-0.1-0.7,0-1,0.2
			c-0.6,0.4-1.2,0.9-1.4,1.6c-0.2,0.8-0.1,1.5,0.4,2.1c0.4,0.5,1.3,0.7,1.9,0.1c0.3-0.4,0.6-0.8,0.8-1.3c-0.4-0.1-0.7-0.1-1.1-0.2
			c0,0-0.1-0.1-0.1-0.2c0,0,0.1-0.1,0.1-0.1c0.1,0,0.2,0,0.3,0c1,0.1,1.9,0.1,2.8-0.4c-0.1,0.3-0.3,0.5-0.6,0.6
			c-0.6,0.1-0.9,0.5-1.2,1c-0.2,0.3-0.4,0.6-0.6,0.9c-0.8,0.7-1.4,0.8-2.3,0.2c-1.1-0.6-1.6-2.1-0.8-3.5c0.4-0.6,0.9-1,1.6-1.3
			c-0.2-0.4-0.5-0.8-0.6-1.2c-0.3-0.8,0-1.8,0.7-2.2c0.3-0.2,0.6-0.2,1-0.2c0.5,0,1,0.1,1.3,0.6c0.3,0.5,0.3,1.1-0.1,1.6
			C63.9,25.3,63.5,25.6,62.9,25.8z"/>
		<path d="M115.6,7.7c0,0.4-0.4,0.7-0.8,0.6c-0.5-0.2-0.7-0.4-0.7-0.7c0-0.1,0-0.2,0.1-0.3c0.1-0.2,0.6-0.3,0.9-0.2
			C115.4,7.2,115.6,7.4,115.6,7.7z"/>
		<path d="M87.3,7c0.4,0.1,0.7,0.2,0.9,0.5c0.1,0.2,0.1,0.4,0,0.6c-0.2,0.2-0.4,0.3-0.6,0.3c-0.2-0.1-0.4-0.2-0.6-0.3
			c-0.3-0.2-0.3-0.5-0.2-0.7C86.9,7.2,87.1,7.1,87.3,7z"/>
		<path d="M90.2,25.8c-0.4,0-0.6-0.2-0.6-0.4c0-0.1,0.2-0.3,0.3-0.3c0.2-0.1,0.6,0.3,0.5,0.5C90.4,25.7,90.3,25.7,90.2,25.8z"/>
		<path d="M45.3,25.6c0,0.2-0.2,0.4-0.4,0.4c-0.2,0-0.5-0.3-0.5-0.4c0-0.1,0.2-0.3,0.3-0.3C45,25.1,45.3,25.4,45.3,25.6z"/>
		<path d="M38.1,25.6c-0.1,0.1-0.2,0.2-0.3,0.3c-0.2,0.1-0.6-0.3-0.5-0.4c0-0.1,0.2-0.2,0.4-0.3C37.8,25.1,38,25.3,38.1,25.6z"/>
		<path d="M82.8,25.1c0.2,0,0.4,0.2,0.4,0.5c0,0.1-0.1,0.2-0.2,0.2c-0.2,0-0.5-0.2-0.5-0.4C82.4,25.2,82.6,25,82.8,25.1z"/>
		<path class="st0" d="M119.1,16.2c0,0.9,0.1,1.6-0.1,2.4c-0.1,0.3-0.3,0.5-0.4,0.8c-0.1,0.2-0.3,0.2-0.5,0.1
			c-0.1-0.1-0.2-0.2-0.2-0.4c-0.1-0.6,0-1.2,0.3-1.7C118.5,17,118.6,16.6,119.1,16.2z"/>
	</g>
</g>
</svg>
