<svg xmlns="http://www.w3.org/2000/svg" viewBox="0 0 47.95 51.66"><defs><style>.cls-1{fill:#d882b1;}.cls-2{fill:#0d0d0d;}</style></defs><title>paw-pink-icon</title><g id="Layer_2" data-name="Layer 2"><g id="Layer_1-2" data-name="Layer 1"><g id="Layer_1-2-2" data-name="Layer 1-2"><path class="cls-1" d="M33.3,4.8C29.5,8.2,25,9.4,21,12.1a90.5,90.5,0,0,0-11.6,10c-6.7,6.6.7,23.6,7.5,17.1,3.8-3.7,7.6-7.3,11.8-9.7s8.2-4.2,12.1-7.7C47.6,15.7,40.1-1.3,33.3,4.8Z"/><path class="cls-1" d="M6.2,14.2c.2.2.7.2.4.7a6.4,6.4,0,0,1-1.9,1.8l-.2.2-.1.1-.2.2a6.86,6.86,0,0,0-.8.9,7.69,7.69,0,0,0-1.3,2.1l.3.4A17.68,17.68,0,0,0,0,27.3,20.84,20.84,0,0,0,3,38.4c.1-.1.2-.2.4.1a25.21,25.21,0,0,0,1.5,2.3,20.38,20.38,0,0,0,2.9,2.9c.4.2.8.5,1.1.6a.72.72,0,0,0,.5,0,11.92,11.92,0,0,0,1.7.7c.3.1.5.2.8.3a2.18,2.18,0,0,0,.8.1,12,12,0,0,0,2.6-.4,5.46,5.46,0,0,0,1.2-.4,4,4,0,0,0,1.1-.7A16.24,16.24,0,0,0,19.5,42c.1-.2.3-.3.4-.5l.3-.4.6-.7c1.2-1.6,2.4-3.1,3.7-4.6a34,34,0,0,1,4.3-4.1c1.6-1.2,3.4-2.4,5.2-3.7,1.5-1.1,3-2.3,4.4-3.5.56-.44,1.09-.91,1.6-1.4a5.35,5.35,0,0,0,.8-.7,6.21,6.21,0,0,0,.8-.9,9.36,9.36,0,0,0,1.9-4.1c-.2.2-.1-1.4-.3-2.7s-.5-2.6-.6-1.9a9.68,9.68,0,0,0-1.2-4.1c-.2-.1-.4-.5-.9-1.2-.3-.4-.6-.9-1-1.4a6.81,6.81,0,0,0-2-1.7,3.78,3.78,0,0,0-3.9.1c-.3.2-.5.4-.7.5-.4.3.1-.1.6-.4s1-.5.6-.3A4.42,4.42,0,0,1,36.4,4a4.49,4.49,0,0,1,1.9,1.1,9.4,9.4,0,0,1,2.4,3.8,13.1,13.1,0,0,1,.2,8.5,6.08,6.08,0,0,1-2.1,2.8,24.75,24.75,0,0,1-3.9,2.4c-2.7,1.5-5.6,2.6-8.9,4.1a63.77,63.77,0,0,0-6.9,4.5c-.8.6-1.6,1.2-2.4,1.9-.4.3-.8.7-1.2,1a9,9,0,0,0-1,.9c-.2.1-.1.1-.2.2l.3-.1a.35.35,0,0,1-.2.1.3.3,0,0,1-.4,0c-.1,0-.1-.1-.2-.1s-.1-.1-.2-.3a8.49,8.49,0,0,1-.7-1.9,9.78,9.78,0,0,1-.2-4.1,2.92,2.92,0,0,1,1-1.9c.1,0,.1-.1.2-.1l.1-.1c.1-.1.3-.2.4-.3.5-.4,1-.7,1.3-1l.5-.5c1.6-1.2,3.3-2.6,5-3.9.8-.6,1.6-1.2,2.3-1.8a7.62,7.62,0,0,1,1-.8c.2-.1.3-.3.5-.4a1.45,1.45,0,0,1,.4-.3c.8-.9,1.9-2,3.2-3.2a16.1,16.1,0,0,1-2.3-.1,12.81,12.81,0,0,0,3.6-1.9c1.6-1.2,1.7-2,1.2-2.3a19.47,19.47,0,0,0-2.6-.9c-1.2-.1-.4-1.6-2.1-1.5,1-.5,1.5-.7,2.5-1.3-.1-.3-.8.2-1.5.6s-1.3.7-1.2.1C27.3,6.9,28.1,6,29,5.5c-.4-.3-1.2.1-2,.5s-1.6.7-1.7.3c.5-.5,3.2-.5,2.9-1.5-.1-.2-1,.3-1.4.6A4.58,4.58,0,0,0,29,2.9c.1-.6-.4-.9-1.7-.6.7-.5,1.9-.8,2.4-1.6h0a9.07,9.07,0,0,1-1.3.8c.4-.3.7-.6,1.1-.9-.2-.1-.3-.1-.5-.2a4.4,4.4,0,0,0-.9.5c.2-.2.5-.4.7-.6L27.6,0c-1.2.1-2.5-.1-3.1.3C23.3,1,21.7,1.7,20,2.7c-.9.5-1.8,1.1-2.8,1.7a29.27,29.27,0,0,0-2.6,1.9A58.7,58.7,0,0,0,6.2,14.2Z"/><path class="cls-2" d="M43.11,11l-.26-.14c-3.68-1.19-7.42,1.34-9.39,4.37-1.92,2.72-2.62,7,.08,9.36a2.61,2.61,0,0,0,1.37.62c4.36.75,8.45-2.84,10-6.91C46,16,45.67,12.4,43.11,11ZM28.83,3.58c-2.16-1-4.88.22-6.32,2.06-2.83,3.58-3.72,9.46-.29,13a2.81,2.81,0,0,0,1.14.61c3,1,5.91-1.48,7.1-4.13,1.71-3.39,2.12-8.17-.79-11a2.84,2.84,0,0,0-.84-.57ZM46,27.44c-3.71-1.76-8.17.61-10.32,3.77-1.76,2.23-2.28,6.15.45,7.84,3.92,2,8.7-.77,10.81-4.29C48.34,32.57,48.49,28.9,46,27.44ZM14.11,11.34a4.19,4.19,0,0,0-4.85.57c-3.59,3.52-3.84,10.32.1,13.56,1.66,1.35,4.05.7,5.39-.73a10,10,0,0,0,.8-12.06A3.28,3.28,0,0,0,14.11,11.34ZM26.16,27.58a12.44,12.44,0,0,0-10.1-.43,25.44,25.44,0,0,0-9.41,6.74,4.67,4.67,0,0,0,0,6.58,5.63,5.63,0,0,0,.81.65c3,1.74,6.82,1.05,10,2.53,2.88,1,4.42,3.62,6.32,5.78,1.55,2,4.47,3.08,6.63,1.4,2-1.78,2.1-4.77,2.18-7.23-.33-4.26-.64-8.74-2.81-12.52a8.54,8.54,0,0,0-3.57-3.5Z"/></g></g></g></svg>