<svg xmlns="http://www.w3.org/2000/svg" viewBox="0 0 47.94 51.65"><defs><style>.cls-1{fill:#a6774e;}.cls-2{fill:#0d0d0d;}</style></defs><title>paw-brown</title><g id="Layer_2" data-name="Layer 2"><g id="Layer_1-2" data-name="Layer 1"><path class="cls-1" d="M33.3,4.8C29.5,8.2,25,9.4,21,12.1a90.32,90.32,0,0,0-11.6,10c-6.7,6.6.7,23.6,7.5,17.1,3.8-3.7,7.6-7.3,11.8-9.7s8.2-4.2,12.1-7.7C47.6,15.7,40.1-1.3,33.3,4.8Z"/><path class="cls-1" d="M6.2,14.2c.2.2.7.2.4.7a6.49,6.49,0,0,1-1.9,1.8l-.2.2-.1.1-.2.2a6.47,6.47,0,0,0-.8.9,7.43,7.43,0,0,0-1.3,2.1l.3.4A17.49,17.49,0,0,0,0,27.3,20.75,20.75,0,0,0,3,38.4c.1-.1.2-.2.4.1a22.22,22.22,0,0,0,1.5,2.3,19.76,19.76,0,0,0,2.9,2.9c.4.2.8.5,1.1.6a.69.69,0,0,0,.5,0,12.2,12.2,0,0,0,1.7.7c.3.1.5.2.8.3a2.2,2.2,0,0,0,.8.1,11.71,11.71,0,0,0,2.6-.4,5.64,5.64,0,0,0,1.2-.4,4.13,4.13,0,0,0,1.1-.7A17,17,0,0,0,19.5,42c.1-.2.3-.3.4-.5l.3-.4.6-.7c1.2-1.6,2.4-3.1,3.7-4.6a33.51,33.51,0,0,1,4.3-4.1c1.6-1.2,3.4-2.4,5.2-3.7,1.5-1.1,3-2.3,4.4-3.5A20,20,0,0,0,40,23.1a5.72,5.72,0,0,0,.8-.7,6.47,6.47,0,0,0,.8-.9,9.49,9.49,0,0,0,1.9-4.1c-.2.2-.1-1.4-.3-2.7s-.5-2.6-.6-1.9a9.89,9.89,0,0,0-1.2-4.1c-.2-.1-.4-.5-.9-1.2-.3-.4-.6-.9-1-1.4a6.88,6.88,0,0,0-2-1.7A3.57,3.57,0,0,0,34.8,4a3.34,3.34,0,0,0-1.2.5c-.3.2-.5.4-.7.5-.4.3.1-.1.6-.4s1-.5.6-.3A4.45,4.45,0,0,1,36.4,4a4.53,4.53,0,0,1,1.9,1.1,9.48,9.48,0,0,1,2.4,3.8,13.08,13.08,0,0,1,.2,8.5,6.12,6.12,0,0,1-2.1,2.8,25.45,25.45,0,0,1-3.9,2.4c-2.7,1.5-5.6,2.6-8.9,4.1a64.49,64.49,0,0,0-6.9,4.5c-.8.6-1.6,1.2-2.4,1.9-.4.3-.8.7-1.2,1s-.7.6-1,.9c-.2.1-.1.1-.2.2l.3-.1a.35.35,0,0,1-.2.1.3.3,0,0,1-.4,0c-.1,0-.1-.1-.2-.1s-.1-.1-.2-.3a8.39,8.39,0,0,1-.7-1.9,9.68,9.68,0,0,1-.2-4.1,2.93,2.93,0,0,1,1-1.9c.1,0,.1-.1.2-.1l.1-.1c.1-.1.3-.2.4-.3.5-.4,1-.7,1.3-1l.5-.5c1.6-1.2,3.3-2.6,5-3.9.8-.6,1.6-1.2,2.3-1.8a7,7,0,0,1,1-.8c.2-.1.3-.3.5-.4a1.38,1.38,0,0,1,.4-.3c.8-.9,1.9-2,3.2-3.2a16.22,16.22,0,0,1-2.3-.1,13,13,0,0,0,3.6-1.9c1.6-1.2,1.7-2,1.2-2.3a19.11,19.11,0,0,0-2.6-.9c-1.2-.1-.4-1.6-2.1-1.5,1-.5,1.5-.7,2.5-1.3-.1-.3-.8.2-1.5.6s-1.3.7-1.2.1C27.3,6.9,28.1,6,29,5.5c-.4-.3-1.2.1-2,.5s-1.6.7-1.7.3c.5-.5,3.2-.5,2.9-1.5-.1-.2-1,.3-1.4.6A4.63,4.63,0,0,0,29,2.9c.1-.6-.4-.9-1.7-.6.7-.5,1.9-.8,2.4-1.6h0a9.13,9.13,0,0,1-1.3.8c.4-.3.7-.6,1.1-.9-.2-.1-.3-.1-.5-.2a4.05,4.05,0,0,0-.9.5c.2-.2.5-.4.7-.6L27.6,0c-1.2.1-2.5-.1-3.1.3C23.3,1,21.7,1.7,20,2.7c-.9.5-1.8,1.1-2.8,1.7s-1.8,1.3-2.6,1.9A58.22,58.22,0,0,0,6.2,14.2Z"/><path class="cls-2" d="M43.11,11l-.26-.14c-3.68-1.19-7.42,1.34-9.39,4.37-1.92,2.72-2.62,7,.08,9.36a2.58,2.58,0,0,0,1.37.62c4.36.75,8.45-2.84,10-6.91C46,16,45.67,12.4,43.11,11ZM28.83,3.58c-2.16-1-4.88.22-6.32,2.06-2.83,3.58-3.72,9.46-.29,13a2.86,2.86,0,0,0,1.14.61c3,1,5.91-1.48,7.1-4.13,1.71-3.39,2.12-8.17-.79-11a3.08,3.08,0,0,0-.84-.57ZM46,27.44c-3.71-1.76-8.17.61-10.32,3.77-1.76,2.23-2.28,6.15.45,7.84,3.92,2,8.7-.77,10.81-4.29C48.34,32.57,48.49,28.9,46,27.44ZM14.11,11.34a4.18,4.18,0,0,0-4.85.57c-3.59,3.52-3.84,10.32.1,13.56,1.66,1.35,4.05.7,5.39-.73a10,10,0,0,0,.8-12.06,3.35,3.35,0,0,0-1.44-1.34ZM26.16,27.58a12.43,12.43,0,0,0-10.1-.43,25.33,25.33,0,0,0-9.41,6.74,4.65,4.65,0,0,0,.77,7.23c3,1.74,6.82,1.05,10,2.53,2.88,1,4.42,3.62,6.32,5.78,1.55,2,4.47,3.08,6.63,1.4,2-1.78,2.1-4.77,2.18-7.23-.33-4.26-.64-8.74-2.81-12.52a8.58,8.58,0,0,0-3.57-3.5Z"/></g></g></svg>