<svg id="telephone_number_Image" data-name="telephone number Image" xmlns="http://www.w3.org/2000/svg" viewBox="0 0 52.7 10.94"><title>Artboard 1</title><path d="M5.23,6.05A10,10,0,0,1,5,8.51,1.87,1.87,0,0,1,3.06,10c-.83,0-1.29-.4-1.57-1.48a9.66,9.66,0,0,1,.18-5.85C2,1.83,2.65,1.5,3.74,1.6A1.59,1.59,0,0,1,5,3,9.09,9.09,0,0,1,5.23,6.05ZM2.35,5.88A8.65,8.65,0,0,0,2.51,8.1c.15.57.32,1.37,1,1.36s1-.76,1.16-1.39a11,11,0,0,0,.1-4.63C4.6,2.81,4.42,2,3.65,2s-.94.79-1.09,1.43A10.38,10.38,0,0,0,2.35,5.88Z"/><path d="M31.56,6a10.16,10.16,0,0,1,1.08-.62.75.75,0,0,1,1.12.54,4.41,4.41,0,0,1-.08,2.89,1.72,1.72,0,0,1-2,1.22,1.76,1.76,0,0,1-1.23-1.6A9.06,9.06,0,0,1,32,2.18a1.07,1.07,0,0,1,.3-.3c.23-.15.5-.38.77-.12s0,.45-.12.63A9,9,0,0,0,31.56,6ZM31.48,7.8c0,.34,0,.53.06.72,0,.44,0,1,.57,1a1,1,0,0,0,1.1-.75,4.08,4.08,0,0,0,.24-2.46c-.1-.57-.45-.73-.92-.4C31.83,6.41,31.25,7,31.48,7.8Z"/><path d="M42.39,3.53a14.62,14.62,0,0,1-1,5.45,6.54,6.54,0,0,1-.32.65c-.14.27-.31.5-.67.31s-.26-.44-.15-.68c.32-.75.48-1.55.73-2.33.13-.44.23-.77-.48-.71A1.36,1.36,0,0,1,39.18,5a3.55,3.55,0,0,1,.72-2.84,1.44,1.44,0,0,1,1-.55,1.13,1.13,0,0,1,1.46,1.19C42.35,3,42.37,3.21,42.39,3.53Zm-1.06.39c0-.6,0-1,0-1.42s-.28-.58-.71-.33a2.53,2.53,0,0,0-.78,3.13c.15.26.27.58.69.48s.71-.31.74-.76S41.32,4.16,41.33,3.92Z"/><path d="M18,4.69l-.21,4.66c0,.29,0,.64-.36.66s-.53-.28-.58-.61a23.34,23.34,0,0,1,0-2.51c0-.89-.06-.93-.94-.89s-1.12-.06-1.06-1.08a9.7,9.7,0,0,0,0-2.22c0-.19,0-.41.27-.41s.34.14.34.37c0,.74,0,1.48.05,2.22,0,.42,0,.73.6.73s.81-.14.84-.7c0-.89.11-1.77.18-2.65,0-.24-.08-.6.31-.62s.59.34.6.68c0,.79,0,1.58,0,2.37Z"/><path d="M46.75,4.39c0,1.63-.33,3.25-.28,4.88,0,.29.07.72-.39.7s-.54-.37-.54-.73c0-.81,0-1.63,0-2.44s-.29-.89-.92-.87C43.5,6,43.49,6,43.54,4.81a15.1,15.1,0,0,0,.05-2c0-.2-.11-.56.26-.54s.33.31.33.56c0,.69,0,1.39,0,2.08,0,.4,0,.68.52.64s.91.14.94-.56c0-.91.09-1.82.16-2.72,0-.26-.12-.66.35-.65s.56.35.57.71C46.76,3,46.75,3.7,46.75,4.39Z"/><path d="M38.1,4.8c-.07,1.48-.13,3-.22,4.44,0,.28.11.74-.34.75s-.6-.39-.61-.77a21,21,0,0,1,0-2.51c.08-.74-.31-.79-.85-.77C34.92,6,34.93,6,35,4.78c0-.67,0-1.34,0-2,0-.2-.09-.5.22-.52s.35.29.36.53c0,.7,0,1.39,0,2.08,0,.35-.08.71.46.67s.93.13.95-.61c0-.9.1-1.81.18-2.72,0-.21-.13-.59.31-.59a.58.58,0,0,1,.58.61c0,.86,0,1.72,0,2.58Z"/><path d="M13.69,4.87c-.09,1.4-.18,3-.28,4.51,0,.26.09.65-.35.65s-.41-.34-.49-.66a12.28,12.28,0,0,1,0-2.57c0-.64-.22-.83-.84-.81-1.17,0-1.16,0-1.14-1.17,0-.67,0-1.34,0-2,0-.2-.1-.48.21-.52s.4.26.41.48c0,.72,0,1.44,0,2.15,0,.38,0,.72.55.7s.85.06.87-.61c0-.91.13-1.82.21-2.72,0-.23-.13-.62.27-.62a.6.6,0,0,1,.59.68C13.68,3.14,13.69,3.93,13.69,4.87Z"/><path d="M6.17,2.33c1-.22,1.89-.46,2.8-.59.6-.09.83.32.54.94A26.18,26.18,0,0,0,7.84,7.87c-.11.46-.15,1-.25,1.41,0,.26,0,.65-.44.61s-.5-.4-.47-.75a15,15,0,0,1,.5-2.83A27.34,27.34,0,0,1,8.23,3c.2-.47.11-.64-.46-.53S6.74,3,6.17,2.33Z"/><path d="M19.53,9A23.44,23.44,0,0,1,21,3.19c.09-.23.34-.5.12-.72s-.45,0-.68,0a2.07,2.07,0,0,1-1.13.07.32.32,0,0,1-.17-.19c0-.11.08-.15.18-.17l2.31-.49c.26-.06.53-.1.72.16a.76.76,0,0,1,0,.81,25.1,25.1,0,0,0-1.87,6.45c-.05.3,0,.77-.5.7S19.46,9.4,19.53,9Z"/><path d="M26.67,9.08a23.79,23.79,0,0,1,1.46-5.91c.09-.23.33-.51.14-.73s-.48.05-.73.07c-.42,0-1.08.3-1.16-.08s.61-.26,1-.38a6.66,6.66,0,0,1,1.53-.35c.65-.07.91.31.64.89a24.9,24.9,0,0,0-1.93,6.6c0,.26,0,.71-.47.66S26.62,9.45,26.67,9.08Z"/><path d="M48.61,3.22c-.33.16-.45.77-.77.54s.16-.56.3-.83.4-.66.6-1,.32-.52.67-.43.37.43.35.76c-.09,1.86-.18,3.72-.26,5.59,0,.47,0,1,0,1.43,0,.24,0,.55-.3.56a.58.58,0,0,1-.58-.46,4.09,4.09,0,0,1-.08-.92c.05-1.49.11-3,.17-4.45A1.17,1.17,0,0,0,48.61,3.22Z"/></svg>